<svg id="svg" version="1.1" xmlns="http://www.w3.org/2000/svg" xmlns:xlink="http://www.w3.org/1999/xlink" width="400" height="400" viewBox="0, 0, 400,400"><g id="svgg"><path id="path0" d="M216.617 126.372 C 216.491 126.577,216.554 126.848,216.757 126.974 C 217.279 127.296,218.442 126.791,218.174 126.358 C 217.884 125.889,216.910 125.898,216.617 126.372 M228.807 139.381 C 228.602 139.920,227.879 140.649,227.200 141.000 C 226.521 141.351,225.765 142.079,225.519 142.617 C 225.274 143.155,224.499 143.935,223.797 144.349 C 222.946 144.851,222.436 145.521,222.268 146.358 C 222.103 147.185,221.687 147.739,221.048 147.982 C 220.309 148.263,220.010 148.760,219.791 150.075 C 219.575 151.364,219.104 152.170,217.926 153.262 C 215.925 155.118,215.794 157.810,217.663 158.701 C 218.247 158.980,219.096 159.836,219.549 160.604 C 220.002 161.372,220.655 162.000,221.000 162.000 C 221.345 162.000,221.988 162.612,222.430 163.361 C 222.871 164.109,223.672 164.832,224.209 164.967 C 224.746 165.101,225.445 165.714,225.763 166.328 C 226.080 166.942,226.795 167.651,227.351 167.905 C 227.907 168.158,228.627 168.878,228.951 169.505 C 229.275 170.131,230.013 170.860,230.591 171.123 C 231.169 171.387,231.830 172.142,232.060 172.801 C 232.585 174.306,233.127 174.328,233.637 172.865 C 233.876 172.181,234.543 171.506,235.316 171.165 C 236.139 170.803,236.647 170.265,236.732 169.668 C 236.809 169.124,237.409 168.414,238.169 167.965 C 238.886 167.542,239.676 166.752,239.923 166.209 C 240.170 165.666,240.822 165.109,241.370 164.972 C 241.919 164.834,242.709 164.143,243.126 163.435 C 243.609 162.618,244.379 162.007,245.240 161.760 C 246.927 161.276,247.226 160.177,245.843 159.547 C 244.116 158.760,240.943 154.656,240.652 152.833 C 240.466 151.670,240.084 151.016,239.296 150.512 C 237.496 149.360,237.192 148.758,237.458 146.864 L 237.702 145.129 234.151 141.764 C 230.411 138.221,229.417 137.778,228.807 139.381 M229.200 142.577 C 229.200 143.216,227.713 144.400,226.911 144.400 C 226.610 144.400,226.400 143.907,226.400 143.200 C 226.400 142.095,226.511 142.000,227.800 142.000 C 228.753 142.000,229.200 142.184,229.200 142.577 M232.800 142.614 C 232.800 143.104,232.639 143.142,232.000 142.800 C 231.560 142.565,231.200 142.288,231.200 142.186 C 231.200 142.084,231.560 142.000,232.000 142.000 C 232.453 142.000,232.800 142.267,232.800 142.614 M225.933 145.423 C 226.218 145.658,224.367 147.200,223.800 147.200 C 223.199 147.200,222.941 145.592,223.459 145.074 C 223.684 144.849,225.559 145.113,225.933 145.423 M164.365 147.863 C 164.016 147.957,163.476 148.606,163.165 149.306 C 162.843 150.031,162.211 150.669,161.695 150.789 C 161.197 150.905,160.432 151.589,159.995 152.310 C 159.558 153.030,158.773 153.782,158.251 153.981 C 157.693 154.193,157.186 154.808,157.023 155.471 C 156.870 156.092,156.172 157.195,155.472 157.922 C 154.311 159.129,154.196 159.481,154.149 161.980 C 154.090 165.184,153.943 165.497,152.151 166.246 C 150.816 166.804,150.800 166.841,150.800 169.368 C 150.800 171.699,150.678 172.071,149.414 173.583 C 147.156 176.286,146.973 179.290,149.000 180.391 C 149.660 180.750,150.441 181.579,150.735 182.234 C 151.029 182.889,151.794 183.726,152.435 184.094 C 153.162 184.511,153.613 185.108,153.634 185.681 C 153.776 189.459,153.740 189.361,155.269 190.083 C 156.078 190.465,156.858 191.153,157.004 191.612 C 157.149 192.070,157.707 192.613,158.244 192.817 C 158.781 193.021,159.593 193.820,160.049 194.593 C 161.258 196.643,161.600 196.017,161.600 191.750 C 161.600 187.740,161.822 187.001,163.659 184.886 C 164.764 183.613,164.800 183.436,164.800 179.187 L 164.800 174.802 166.144 173.301 C 166.883 172.476,167.708 171.122,167.977 170.293 C 168.290 169.329,168.879 168.573,169.611 168.194 C 170.240 167.869,170.990 167.112,171.278 166.513 C 171.565 165.914,172.217 165.216,172.726 164.962 C 173.235 164.708,173.955 163.898,174.326 163.162 C 174.729 162.362,175.402 161.727,176.000 161.585 C 177.286 161.279,177.187 159.469,175.804 158.000 C 175.286 157.450,174.706 156.370,174.514 155.600 C 174.260 154.582,173.820 154.046,172.899 153.635 C 172.153 153.302,171.472 152.610,171.242 151.949 C 171.001 151.258,170.465 150.731,169.842 150.575 C 169.284 150.435,168.473 149.713,168.030 148.961 C 167.233 147.609,166.324 147.337,164.365 147.863 M170.400 152.227 C 170.400 153.108,170.273 153.214,169.500 152.973 C 167.769 152.433,167.906 151.222,169.700 151.206 C 170.186 151.202,170.400 151.513,170.400 152.227 M173.600 155.600 C 173.600 156.919,173.352 157.042,172.300 156.243 C 171.243 155.441,171.412 154.400,172.600 154.400 C 173.444 154.400,173.600 154.587,173.600 155.600 M218.728 157.104 C 218.825 157.785,218.657 158.000,218.028 158.000 C 217.405 158.000,217.200 157.745,217.200 156.971 C 217.200 155.658,218.538 155.775,218.728 157.104 M222.000 160.862 C 222.000 161.048,221.550 161.200,221.000 161.200 C 219.967 161.200,219.821 160.931,220.249 159.815 C 220.511 159.133,222.000 160.023,222.000 160.862 M245.600 160.800 C 245.600 161.020,245.049 161.200,244.376 161.200 C 243.663 161.200,243.256 161.033,243.400 160.800 C 243.536 160.580,244.087 160.400,244.624 160.400 C 245.161 160.400,245.600 160.580,245.600 160.800 M242.400 163.400 C 242.400 163.730,242.108 164.000,241.751 164.000 C 241.220 164.000,241.192 163.891,241.600 163.400 C 241.874 163.070,242.166 162.800,242.249 162.800 C 242.332 162.800,242.400 163.070,242.400 163.400 M153.200 167.558 C 153.200 167.703,152.895 168.257,152.523 168.789 L 151.846 169.756 151.540 168.612 C 151.372 167.983,151.317 167.335,151.417 167.172 C 151.631 166.826,153.200 167.166,153.200 167.558 M248.085 170.108 C 247.866 170.379,247.622 170.960,247.543 171.400 C 247.464 171.840,246.850 172.442,246.178 172.739 C 245.506 173.035,244.786 173.652,244.578 174.111 C 244.370 174.569,243.582 175.149,242.827 175.399 C 241.817 175.733,241.337 176.199,241.014 177.159 C 240.772 177.878,240.144 178.790,239.618 179.187 C 238.772 179.824,238.641 180.301,238.483 183.303 L 238.305 186.697 239.769 188.249 C 241.603 190.191,241.771 190.878,241.466 195.181 C 241.210 198.788,241.458 199.600,242.818 199.600 C 244.410 199.600,244.934 200.991,244.682 204.556 C 244.440 207.979,244.870 209.200,246.317 209.200 C 247.361 209.200,247.761 211.085,247.790 216.137 L 247.819 221.273 249.113 222.337 C 250.187 223.219,250.407 223.676,250.404 225.028 C 250.399 227.072,252.407 229.596,254.800 230.553 C 255.728 230.925,256.608 231.618,256.864 232.180 C 257.109 232.719,257.839 233.345,258.486 233.570 C 259.225 233.828,259.830 234.426,260.115 235.180 C 260.393 235.918,261.004 236.532,261.699 236.775 C 262.418 237.025,262.986 237.613,263.255 238.385 C 263.488 239.053,263.826 239.600,264.006 239.600 C 266.431 239.600,266.378 229.974,263.940 227.684 C 262.327 226.168,262.139 225.045,262.316 218.000 C 262.402 214.590,262.480 211.272,262.490 210.626 C 262.502 209.796,262.131 209.116,261.225 208.306 C 259.269 206.559,258.877 205.158,259.232 201.200 C 259.399 199.330,259.551 196.420,259.568 194.733 L 259.600 191.666 257.920 190.271 L 256.241 188.876 256.220 185.554 L 256.200 182.231 254.481 181.077 C 252.790 179.940,252.767 179.894,253.027 178.157 C 253.281 176.466,253.223 176.328,251.646 174.887 C 250.287 173.645,250.000 173.125,250.000 171.905 C 250.000 170.264,248.841 169.177,248.085 170.108 M158.344 172.933 C 159.111 173.857,158.011 174.922,157.041 174.194 C 156.413 173.723,156.369 173.519,156.790 173.013 C 157.414 172.261,157.771 172.242,158.344 172.933 M244.392 176.387 C 244.901 176.709,244.867 176.919,244.150 177.881 C 243.027 179.386,242.096 179.522,241.771 178.227 C 241.281 176.276,242.673 175.300,244.392 176.387 M164.000 182.587 C 164.000 182.944,163.765 183.085,163.402 182.946 C 163.074 182.819,162.904 182.555,163.026 182.358 C 163.375 181.793,164.000 181.940,164.000 182.587 M254.800 183.200 C 254.800 183.706,253.983 183.706,253.200 183.200 C 252.732 182.898,252.843 182.811,253.700 182.806 C 254.305 182.803,254.800 182.980,254.800 183.200 M141.548 186.378 C 141.242 187.256,140.664 187.865,139.793 188.229 C 139.003 188.559,138.399 189.149,138.252 189.735 C 138.109 190.306,137.511 190.905,136.786 191.206 C 136.113 191.485,135.292 192.235,134.962 192.874 C 134.632 193.512,133.935 194.197,133.413 194.395 C 132.892 194.593,132.225 195.248,131.932 195.849 C 131.640 196.451,130.889 197.226,130.266 197.572 C 129.642 197.917,128.901 198.631,128.621 199.157 C 128.340 199.684,127.591 200.327,126.955 200.587 L 125.800 201.060 125.800 206.210 L 125.800 211.361 124.152 212.472 L 122.505 213.582 122.706 218.149 C 122.959 223.881,122.797 224.540,120.901 225.467 C 119.706 226.051,119.417 226.404,119.485 227.200 C 119.577 228.271,119.689 235.328,119.633 236.514 C 119.612 236.963,118.940 237.511,117.821 237.991 C 116.064 238.744,116.046 238.772,116.321 240.277 C 116.475 241.114,116.600 243.571,116.600 245.736 C 116.600 249.914,116.556 250.017,114.185 251.420 C 113.566 251.786,113.464 252.554,113.392 257.420 C 113.302 263.426,113.053 264.512,111.443 265.897 C 109.454 267.608,112.033 270.779,115.453 270.828 C 118.071 270.866,118.792 271.209,119.554 272.779 L 120.200 274.110 125.000 274.035 C 131.519 273.933,131.600 273.906,131.600 271.824 C 131.600 270.338,131.790 269.981,133.174 268.869 L 134.748 267.604 134.520 264.079 L 134.292 260.553 135.935 259.252 C 137.500 258.012,137.567 257.870,137.346 256.256 C 136.908 253.062,137.864 248.781,139.368 247.200 L 140.700 245.800 140.741 239.200 L 140.783 232.600 142.174 231.400 L 143.565 230.200 143.683 222.328 C 143.794 214.850,143.845 214.400,144.702 213.328 C 146.864 210.625,146.783 211.041,146.786 202.583 C 146.789 193.995,146.417 188.743,145.791 188.524 C 144.452 188.056,143.356 187.265,142.967 186.485 C 142.236 185.019,142.027 185.003,141.548 186.378 M156.800 187.631 C 156.800 187.798,156.909 188.219,157.043 188.567 C 157.237 189.072,156.994 189.200,155.843 189.200 C 154.360 189.200,154.033 188.621,154.634 187.057 C 154.876 186.426,156.800 186.937,156.800 187.631 M145.600 189.976 C 145.600 191.444,144.853 191.960,144.139 190.985 C 143.255 189.775,143.460 188.800,144.600 188.800 C 145.440 188.800,145.600 188.988,145.600 189.976 M258.000 192.800 C 258.000 193.781,256.860 193.858,255.180 192.990 C 253.559 192.152,253.685 192.000,256.000 192.000 C 257.733 192.000,258.000 192.107,258.000 192.800 M137.200 195.227 C 137.200 196.168,135.918 196.505,134.682 195.890 C 133.565 195.334,133.516 195.248,134.297 195.226 C 134.790 195.212,135.420 194.837,135.697 194.393 C 136.183 193.613,137.200 194.177,137.200 195.227 M243.890 196.324 C 245.169 197.136,244.657 198.595,243.046 198.727 C 241.593 198.846,241.509 198.794,241.741 197.927 C 241.877 197.417,241.992 196.775,241.995 196.500 C 242.001 195.945,243.129 195.840,243.890 196.324 M131.200 198.757 C 131.200 198.954,130.915 199.224,130.567 199.357 C 129.673 199.700,129.600 199.673,129.600 199.000 C 129.600 198.667,129.956 198.400,130.400 198.400 C 130.840 198.400,131.200 198.561,131.200 198.757 M128.595 201.592 C 128.964 202.189,128.126 203.474,127.213 203.713 C 126.513 203.895,126.400 203.735,126.400 202.563 C 126.400 201.189,127.928 200.513,128.595 201.592 M247.200 207.670 C 247.200 207.851,246.750 208.000,246.200 208.000 C 245.343 208.000,245.200 207.818,245.200 206.730 L 245.200 205.461 246.200 206.400 C 246.750 206.917,247.200 207.488,247.200 207.670 M137.338 208.295 C 136.393 208.986,134.207 208.931,133.601 208.201 C 132.727 207.148,135.451 206.267,136.912 207.130 C 137.937 207.735,137.972 207.831,137.338 208.295 M261.312 211.615 C 261.075 212.523,261.010 212.541,259.974 211.986 C 259.009 211.470,258.967 210.511,259.900 210.301 C 260.891 210.077,261.553 210.693,261.312 211.615 M126.000 214.417 C 126.000 215.349,124.950 216.400,124.018 216.400 C 123.205 216.400,122.631 214.490,123.228 213.768 C 123.811 213.062,126.000 213.574,126.000 214.417 M250.421 219.426 C 251.022 220.150,250.559 220.800,249.443 220.800 C 248.261 220.800,248.076 220.580,248.295 219.438 C 248.491 218.414,249.577 218.408,250.421 219.426 M122.758 226.366 C 123.208 226.650,123.108 226.929,122.247 227.789 C 120.933 229.103,120.239 228.937,120.075 227.269 C 119.943 225.931,121.333 225.463,122.758 226.366 M139.200 236.080 C 139.200 236.726,139.082 236.842,138.755 236.515 C 138.510 236.270,138.431 235.874,138.578 235.635 C 138.992 234.965,139.200 235.114,139.200 236.080 M120.000 239.244 C 120.000 239.916,118.351 241.249,117.680 241.120 C 116.982 240.986,116.592 239.918,116.925 239.052 C 117.143 238.482,120.000 238.660,120.000 239.244 M248.000 240.129 C 248.000 242.683,247.412 243.968,246.021 244.453 C 244.921 244.836,244.830 245.024,244.719 247.131 C 244.604 249.326,244.550 249.423,243.000 250.233 L 241.400 251.070 241.535 254.368 C 241.714 258.726,241.491 259.468,239.793 260.177 C 238.424 260.749,238.400 260.800,238.400 263.134 C 238.400 265.349,238.300 265.606,236.913 266.953 L 235.426 268.398 235.213 273.600 L 235.000 278.802 233.300 280.355 C 230.526 282.888,231.281 284.444,234.914 283.685 C 236.119 283.433,240.294 283.291,244.800 283.348 C 256.741 283.500,256.319 283.940,256.199 271.446 L 256.119 263.093 257.273 261.778 C 257.907 261.055,258.709 259.634,259.055 258.621 C 259.488 257.349,260.040 256.593,260.835 256.182 C 261.468 255.854,262.248 255.081,262.567 254.464 C 262.886 253.847,263.429 253.108,263.774 252.822 C 264.697 252.055,264.539 251.482,263.194 250.717 C 262.533 250.341,261.818 249.572,261.604 249.009 C 261.389 248.446,260.745 247.807,260.171 247.589 C 259.579 247.364,258.930 246.668,258.670 245.980 C 258.400 245.264,257.834 244.673,257.287 244.536 C 256.746 244.400,256.078 243.711,255.680 242.877 C 255.211 241.894,254.627 241.353,253.800 241.137 C 253.140 240.965,252.240 240.383,251.800 239.844 C 251.341 239.281,250.361 238.746,249.500 238.587 L 248.000 238.311 248.000 240.129 M254.800 242.800 C 254.800 243.691,254.016 243.856,253.280 243.120 C 252.534 242.374,252.708 242.000,253.800 242.000 C 254.533 242.000,254.800 242.213,254.800 242.800 M117.866 252.173 C 117.733 252.518,117.439 252.800,117.213 252.800 C 116.752 252.800,116.647 251.486,117.073 251.060 C 117.512 250.621,118.129 251.487,117.866 252.173 M245.091 251.358 C 245.721 251.988,244.454 253.808,243.306 253.923 C 242.028 254.050,241.102 252.330,241.821 251.166 C 242.082 250.743,244.626 250.892,245.091 251.358 M114.794 254.700 C 114.776 255.577,114.012 256.159,114.006 255.300 C 114.003 254.805,114.180 254.400,114.400 254.400 C 114.620 254.400,114.797 254.535,114.794 254.700 M132.841 267.319 C 132.109 268.051,131.333 267.004,132.007 266.192 C 132.495 265.603,132.571 265.605,132.911 266.213 C 133.152 266.643,133.127 267.033,132.841 267.319 M121.520 272.480 C 122.266 273.226,122.092 273.600,121.000 273.600 C 119.911 273.600,119.885 273.566,120.243 272.633 C 120.533 271.876,120.875 271.835,121.520 272.480 M235.270 282.113 C 235.678 282.773,235.340 283.106,233.956 283.410 C 232.390 283.754,231.763 283.190,232.396 282.008 C 232.893 281.079,234.671 281.144,235.270 282.113 " stroke="none" fill="#548399" fill-rule="evenodd"></path><path id="path1" d="M178.500 93.212 C 178.005 93.411,177.559 93.625,177.509 93.687 C 177.460 93.749,177.325 102.710,177.209 113.600 L 177.000 133.400 171.618 133.512 C 165.790 133.634,164.800 133.975,164.800 135.862 C 164.800 136.926,166.089 138.400,167.021 138.400 C 167.362 138.400,167.832 138.945,168.064 139.612 C 168.298 140.282,169.012 141.096,169.661 141.431 C 170.306 141.765,171.032 142.471,171.272 142.999 C 171.513 143.528,172.226 144.140,172.857 144.360 C 173.488 144.580,174.176 145.210,174.385 145.761 C 174.594 146.311,175.278 147.027,175.905 147.351 C 176.532 147.675,177.251 148.395,177.505 148.951 C 177.758 149.507,178.500 150.238,179.154 150.576 C 179.808 150.915,180.454 151.540,180.589 151.967 C 180.725 152.393,181.467 153.114,182.238 153.569 C 183.024 154.033,183.822 154.918,184.054 155.582 C 184.281 156.234,184.825 156.881,185.263 157.020 C 185.701 157.159,186.389 158.040,186.791 158.979 C 187.193 159.917,187.801 160.792,188.143 160.923 C 188.484 161.054,189.153 161.935,189.629 162.881 C 191.664 166.928,195.666 167.787,197.557 164.582 C 198.006 163.822,198.647 163.200,198.981 163.200 C 199.316 163.200,200.044 162.480,200.600 161.600 C 201.156 160.720,201.880 160.000,202.211 160.000 C 202.541 160.000,203.151 159.442,203.566 158.760 C 203.981 158.078,204.862 157.190,205.524 156.788 C 206.187 156.385,206.843 155.696,206.982 155.257 C 207.121 154.817,207.857 154.091,208.618 153.643 C 209.378 153.194,210.000 152.530,210.000 152.167 C 210.000 151.805,210.601 150.944,211.335 150.254 C 212.069 149.564,212.982 148.197,213.365 147.217 C 213.747 146.236,214.426 145.177,214.872 144.864 C 215.319 144.551,215.940 143.683,216.253 142.934 C 216.566 142.185,217.258 141.374,217.791 141.131 C 218.324 140.888,218.934 140.192,219.146 139.583 C 219.358 138.974,220.026 138.234,220.629 137.938 C 222.311 137.113,222.717 136.203,221.985 134.897 L 221.371 133.800 216.001 133.688 C 212.321 133.611,210.535 133.422,210.322 133.088 C 210.152 132.820,210.007 124.050,210.000 113.600 C 209.987 94.014,209.988 94.030,208.526 93.260 C 207.460 92.698,179.887 92.655,178.500 93.212 M208.698 94.481 C 209.088 94.805,209.200 99.141,209.200 113.917 C 209.200 136.700,208.500 134.400,215.433 134.400 C 219.363 134.400,220.468 134.525,220.971 135.029 C 221.824 135.881,221.949 135.662,218.700 139.017 C 214.737 143.110,213.034 145.148,212.198 146.800 C 211.808 147.570,210.974 148.791,210.345 149.514 C 209.715 150.237,209.200 151.009,209.200 151.230 C 209.200 151.451,206.061 154.774,202.225 158.614 L 195.251 165.596 193.733 165.098 C 192.749 164.775,191.932 164.132,191.408 163.268 C 189.657 160.382,184.209 154.185,179.215 149.400 C 178.817 149.019,176.883 147.041,175.600 145.703 C 175.270 145.359,174.730 144.828,174.400 144.523 C 163.797 134.730,163.719 134.400,172.013 134.400 C 175.920 134.400,177.211 134.268,177.573 133.832 C 177.921 133.413,178.036 128.293,178.012 114.243 C 177.981 96.528,178.028 95.172,178.689 94.511 C 179.524 93.676,207.694 93.648,208.698 94.481 M217.373 107.200 C 217.526 107.750,217.753 108.961,217.877 109.892 C 218.001 110.823,218.268 111.482,218.470 111.357 C 219.008 111.024,218.414 107.503,217.703 106.800 C 217.161 106.265,217.125 106.308,217.373 107.200 M216.089 125.023 C 213.925 126.539,215.906 129.289,218.536 128.421 C 221.546 127.428,221.603 125.942,218.673 124.828 C 217.225 124.277,217.145 124.283,216.089 125.023 M218.174 126.358 C 218.442 126.791,217.279 127.296,216.757 126.974 C 216.554 126.848,216.491 126.577,216.617 126.372 C 216.910 125.898,217.884 125.889,218.174 126.358 M231.523 135.201 C 231.236 135.677,230.318 136.419,229.484 136.850 C 228.650 137.280,227.772 138.063,227.532 138.589 C 227.292 139.115,226.577 139.761,225.943 140.024 C 225.298 140.291,224.687 140.912,224.556 141.434 C 224.427 141.947,223.706 142.730,222.955 143.174 C 222.203 143.617,221.427 144.403,221.230 144.920 C 221.034 145.437,220.407 146.165,219.839 146.538 C 219.270 146.911,218.534 147.863,218.203 148.654 C 217.873 149.444,217.065 150.704,216.407 151.453 C 214.501 153.624,214.149 158.436,215.826 159.388 C 216.226 159.614,216.924 160.201,217.376 160.691 C 217.829 161.181,218.519 161.901,218.909 162.291 C 219.299 162.681,220.068 163.450,220.618 164.000 C 221.168 164.550,221.895 165.270,222.233 165.600 C 222.571 165.930,223.512 166.850,224.324 167.643 C 225.136 168.437,226.118 169.198,226.506 169.333 C 226.894 169.469,227.375 170.008,227.574 170.531 C 227.773 171.055,228.580 171.863,229.368 172.328 C 230.156 172.793,230.800 173.445,230.800 173.777 C 230.800 175.838,234.323 175.734,234.983 173.654 C 235.117 173.231,235.745 172.671,236.379 172.409 C 237.023 172.142,237.751 171.402,238.028 170.732 C 238.301 170.072,238.949 169.371,239.467 169.174 C 239.986 168.977,240.611 168.375,240.857 167.835 C 241.103 167.296,241.814 166.643,242.437 166.384 C 243.061 166.126,243.911 165.339,244.326 164.636 C 245.454 162.724,248.048 162.224,255.422 162.500 C 260.811 162.702,261.341 162.659,262.040 161.960 C 263.042 160.958,263.000 160.580,261.791 159.719 C 258.704 157.518,256.400 154.922,256.400 153.642 C 256.400 151.933,255.112 149.932,252.427 147.468 C 252.228 147.285,251.505 146.565,250.821 145.868 C 250.136 145.170,249.042 144.060,248.388 143.400 C 247.461 142.463,247.200 141.841,247.200 140.569 C 247.200 139.010,246.014 137.200,244.993 137.200 C 244.798 137.200,244.035 136.615,243.298 135.900 L 241.958 134.600 237.002 134.468 C 232.279 134.342,232.022 134.376,231.523 135.201 M234.151 141.764 L 237.702 145.129 237.458 146.864 C 237.192 148.758,237.496 149.360,239.296 150.512 C 240.084 151.016,240.466 151.670,240.652 152.833 C 240.943 154.656,244.116 158.760,245.843 159.547 C 247.226 160.177,246.927 161.276,245.240 161.760 C 244.379 162.007,243.609 162.618,243.126 163.435 C 242.709 164.143,241.919 164.834,241.370 164.972 C 240.822 165.109,240.170 165.666,239.923 166.209 C 239.676 166.752,238.886 167.542,238.169 167.965 C 237.409 168.414,236.809 169.124,236.732 169.668 C 236.647 170.265,236.139 170.803,235.316 171.165 C 234.543 171.506,233.876 172.181,233.637 172.865 C 233.127 174.328,232.585 174.306,232.060 172.801 C 231.830 172.142,231.169 171.387,230.591 171.123 C 230.013 170.860,229.275 170.131,228.951 169.505 C 228.627 168.878,227.907 168.158,227.351 167.905 C 226.795 167.651,226.080 166.942,225.763 166.328 C 225.445 165.714,224.746 165.101,224.209 164.967 C 223.672 164.832,222.871 164.109,222.430 163.361 C 221.988 162.612,221.345 162.000,221.000 162.000 C 220.655 162.000,220.002 161.372,219.549 160.604 C 219.096 159.836,218.247 158.980,217.663 158.701 C 215.794 157.810,215.925 155.118,217.926 153.262 C 219.104 152.170,219.575 151.364,219.791 150.075 C 220.010 148.760,220.309 148.263,221.048 147.982 C 221.687 147.739,222.103 147.185,222.268 146.358 C 222.436 145.521,222.946 144.851,223.797 144.349 C 224.499 143.935,225.274 143.155,225.519 142.617 C 225.765 142.079,226.521 141.351,227.200 141.000 C 227.879 140.649,228.602 139.920,228.807 139.381 C 229.417 137.778,230.411 138.221,234.151 141.764 M162.929 146.900 C 162.484 147.395,162.007 148.118,161.870 148.506 C 161.733 148.894,161.187 149.377,160.657 149.578 C 160.127 149.780,159.308 150.486,158.837 151.149 C 158.365 151.811,157.622 152.466,157.185 152.605 C 156.749 152.743,156.099 153.429,155.743 154.128 C 155.386 154.828,154.537 155.872,153.855 156.450 C 152.648 157.472,152.615 157.591,152.592 160.995 C 152.568 164.457,152.556 164.496,151.384 165.088 C 149.651 165.963,149.200 166.733,149.200 168.815 C 149.200 170.388,148.991 170.893,147.855 172.062 C 145.280 174.714,145.388 180.151,148.050 181.832 C 148.903 182.370,149.600 183.072,149.600 183.391 C 149.600 183.711,150.117 184.563,150.749 185.286 C 151.381 186.009,152.029 187.230,152.188 188.000 C 152.521 189.606,153.433 191.200,154.018 191.200 C 154.555 191.200,158.800 195.469,158.800 196.009 C 158.800 196.806,160.733 198.401,161.393 198.147 C 162.702 197.645,163.271 195.684,163.147 192.104 L 163.029 188.693 164.615 187.136 L 166.200 185.579 166.233 180.918 L 166.266 176.257 167.699 174.829 C 168.487 174.043,169.354 172.638,169.627 171.708 C 169.921 170.701,170.424 169.919,170.868 169.778 C 171.278 169.648,171.967 168.848,172.400 168.000 C 172.833 167.152,173.566 166.338,174.029 166.191 C 174.492 166.044,175.088 165.408,175.353 164.778 C 175.618 164.148,176.457 163.207,177.217 162.687 C 179.238 161.307,179.133 158.078,177.005 156.128 C 176.232 155.420,175.600 154.564,175.600 154.225 C 175.600 153.887,174.880 153.156,174.000 152.600 C 173.120 152.044,172.400 151.316,172.400 150.981 C 172.400 150.647,171.798 150.018,171.063 149.584 C 170.328 149.150,169.520 148.343,169.268 147.790 C 168.388 145.859,164.374 145.296,162.929 146.900 M168.030 148.961 C 168.473 149.713,169.284 150.435,169.842 150.575 C 170.465 150.731,171.001 151.258,171.242 151.949 C 171.472 152.610,172.153 153.302,172.899 153.635 C 173.820 154.046,174.260 154.582,174.514 155.600 C 174.706 156.370,175.286 157.450,175.804 158.000 C 177.187 159.469,177.286 161.279,176.000 161.585 C 175.402 161.727,174.729 162.362,174.326 163.162 C 173.955 163.898,173.235 164.708,172.726 164.962 C 172.217 165.216,171.565 165.914,171.278 166.513 C 170.990 167.112,170.240 167.869,169.611 168.194 C 168.879 168.573,168.290 169.329,167.977 170.293 C 167.708 171.122,166.883 172.476,166.144 173.301 L 164.800 174.802 164.800 179.187 C 164.800 183.436,164.764 183.613,163.659 184.886 C 161.822 187.001,161.600 187.740,161.600 191.750 C 161.600 196.017,161.258 196.643,160.049 194.593 C 159.593 193.820,158.781 193.021,158.244 192.817 C 157.707 192.613,157.149 192.070,157.004 191.612 C 156.858 191.153,156.078 190.465,155.269 190.083 C 153.740 189.361,153.776 189.459,153.634 185.681 C 153.613 185.108,153.162 184.511,152.435 184.094 C 151.794 183.726,151.029 182.889,150.735 182.234 C 150.441 181.579,149.660 180.750,149.000 180.391 C 146.973 179.290,147.156 176.286,149.414 173.583 C 150.678 172.071,150.800 171.699,150.800 169.368 C 150.800 166.841,150.816 166.804,152.151 166.246 C 153.943 165.497,154.090 165.184,154.149 161.980 C 154.196 159.481,154.311 159.129,155.472 157.922 C 156.172 157.195,156.870 156.092,157.023 155.471 C 157.186 154.808,157.693 154.193,158.251 153.981 C 158.773 153.782,159.558 153.030,159.995 152.310 C 160.432 151.589,161.197 150.905,161.695 150.789 C 162.211 150.669,162.843 150.031,163.165 149.306 C 163.749 147.990,164.219 147.725,166.113 147.646 C 166.980 147.610,167.405 147.902,168.030 148.961 M247.300 168.608 C 246.805 168.958,246.400 169.511,246.400 169.836 C 246.400 170.161,245.778 170.794,245.018 171.243 C 244.257 171.691,243.522 172.415,243.384 172.852 C 243.245 173.288,242.519 173.938,241.770 174.295 C 241.021 174.652,240.302 175.279,240.172 175.689 C 240.042 176.098,239.211 177.150,238.325 178.027 L 236.714 179.622 236.860 184.202 L 237.005 188.782 238.518 190.251 L 240.030 191.721 239.968 195.422 C 239.896 199.644,239.954 199.803,241.849 200.595 L 243.242 201.177 243.151 205.021 L 243.059 208.865 244.529 210.212 C 246.150 211.697,246.137 211.634,246.177 218.479 C 246.192 221.021,246.372 222.531,246.700 222.859 C 246.975 223.135,247.200 223.999,247.200 224.780 C 247.200 226.978,250.304 230.947,252.740 231.865 C 253.763 232.250,255.077 233.068,255.660 233.683 C 256.244 234.297,257.006 234.800,257.355 234.800 C 257.704 234.800,258.435 235.506,258.980 236.368 C 259.524 237.231,260.332 238.051,260.774 238.192 C 261.217 238.332,261.811 238.931,262.094 239.522 C 262.377 240.113,263.147 240.868,263.805 241.198 C 265.116 241.858,268.093 244.607,268.650 245.673 C 268.843 246.043,269.615 246.763,270.364 247.273 L 271.727 248.200 271.638 251.729 L 271.549 255.258 273.074 256.696 L 274.599 258.134 274.743 262.680 L 274.887 267.226 276.223 268.244 C 276.957 268.805,277.922 269.879,278.366 270.632 C 279.470 272.503,279.500 272.490,283.754 268.236 C 288.746 263.244,289.395 259.467,285.823 256.196 L 284.354 254.850 284.477 245.394 L 284.600 235.937 282.835 234.430 L 281.069 232.924 281.324 224.723 C 281.604 215.727,281.406 214.280,279.706 212.906 L 278.600 212.012 278.400 202.264 L 278.200 192.516 276.700 190.857 L 275.200 189.198 275.200 184.232 L 275.200 179.267 273.600 178.000 C 272.128 176.834,272.000 176.578,272.000 174.794 C 272.000 173.059,271.863 172.759,270.700 171.947 C 269.398 171.037,269.088 170.719,268.418 169.600 C 268.122 169.107,266.428 168.955,258.929 168.748 C 253.908 168.609,249.440 168.377,249.000 168.233 C 248.526 168.077,247.833 168.230,247.300 168.608 M250.000 171.905 C 250.000 173.125,250.287 173.645,251.646 174.887 C 253.223 176.328,253.281 176.466,253.027 178.157 C 252.767 179.894,252.790 179.940,254.481 181.077 L 256.200 182.231 256.220 185.554 L 256.241 188.876 257.920 190.271 L 259.600 191.666 259.568 194.733 C 259.551 196.420,259.399 199.330,259.232 201.200 C 258.877 205.158,259.269 206.559,261.225 208.306 C 262.131 209.116,262.502 209.796,262.490 210.626 C 262.480 211.272,262.402 214.590,262.316 218.000 C 262.139 225.045,262.327 226.168,263.940 227.684 C 265.698 229.335,266.527 238.759,264.967 239.357 C 263.904 239.765,263.694 239.646,263.255 238.385 C 262.986 237.613,262.418 237.025,261.699 236.775 C 261.004 236.532,260.393 235.918,260.115 235.180 C 259.830 234.426,259.225 233.828,258.486 233.570 C 257.839 233.345,257.109 232.719,256.864 232.180 C 256.608 231.618,255.728 230.925,254.800 230.553 C 252.407 229.596,250.399 227.072,250.404 225.028 C 250.407 223.676,250.187 223.219,249.113 222.337 L 247.819 221.273 247.790 216.137 C 247.761 211.085,247.361 209.200,246.317 209.200 C 244.870 209.200,244.440 207.979,244.682 204.556 C 244.934 200.991,244.410 199.600,242.818 199.600 C 241.458 199.600,241.210 198.788,241.466 195.181 C 241.771 190.878,241.603 190.191,239.769 188.249 L 238.305 186.697 238.483 183.303 C 238.641 180.301,238.772 179.824,239.618 179.187 C 240.144 178.790,240.772 177.878,241.014 177.159 C 241.337 176.199,241.817 175.733,242.827 175.399 C 243.582 175.149,244.370 174.569,244.578 174.111 C 244.786 173.652,245.506 173.035,246.178 172.739 C 246.850 172.442,247.464 171.840,247.543 171.400 C 247.971 169.010,250.000 169.427,250.000 171.905 M140.358 185.192 C 139.654 186.068,138.744 186.891,138.335 187.021 C 137.926 187.150,137.320 187.781,136.989 188.422 C 136.658 189.062,135.885 189.846,135.271 190.163 C 134.658 190.480,133.943 191.206,133.684 191.776 C 133.424 192.346,132.802 192.998,132.301 193.227 C 131.801 193.455,131.085 194.174,130.712 194.824 C 130.339 195.475,129.573 196.182,129.012 196.396 C 128.450 196.609,127.784 197.237,127.532 197.790 C 127.280 198.343,126.472 199.150,125.737 199.584 L 124.400 200.373 124.398 204.287 C 124.395 208.872,123.902 211.050,122.787 211.404 C 121.400 211.844,121.119 213.072,121.176 218.429 L 121.230 223.564 119.915 224.238 C 117.988 225.225,117.958 225.337,118.084 230.969 L 118.200 236.138 117.000 236.845 C 114.621 238.245,114.663 238.109,114.927 243.634 C 115.188 249.091,115.173 249.144,113.057 250.195 C 112.036 250.702,111.524 254.481,111.885 258.841 C 112.102 261.454,112.088 261.500,110.602 263.145 C 106.681 267.485,109.029 272.355,115.125 272.526 C 117.664 272.596,117.817 272.657,118.357 273.800 C 119.190 275.564,119.293 275.589,125.600 275.572 C 134.439 275.549,137.182 275.167,139.051 273.702 C 139.903 273.034,141.244 272.284,142.031 272.035 C 142.818 271.787,143.840 271.072,144.302 270.447 C 144.953 269.567,145.559 269.264,146.989 269.102 C 148.508 268.931,149.106 268.602,150.357 267.247 C 151.376 266.143,152.214 265.600,152.901 265.600 C 153.485 265.600,154.644 264.999,155.600 264.200 C 156.522 263.430,157.439 262.800,157.638 262.800 C 159.628 262.800,159.600 263.207,159.600 234.476 C 159.600 205.785,159.706 207.229,157.500 205.863 C 156.559 205.280,156.400 204.917,156.400 203.345 C 156.400 201.756,156.211 201.334,155.000 200.226 C 154.230 199.520,153.600 198.783,153.600 198.588 C 153.600 198.392,152.835 197.493,151.900 196.590 C 149.753 194.514,148.433 192.351,147.758 189.800 C 147.467 188.700,146.918 187.620,146.538 187.400 C 145.910 187.036,145.105 186.265,143.302 184.300 C 142.347 183.258,141.773 183.432,140.358 185.192 M142.967 186.485 C 143.356 187.265,144.452 188.056,145.791 188.524 C 146.417 188.743,146.789 193.995,146.786 202.583 C 146.783 211.041,146.864 210.625,144.702 213.328 C 143.845 214.400,143.794 214.850,143.683 222.328 L 143.565 230.200 142.174 231.400 L 140.783 232.600 140.741 239.200 L 140.700 245.800 139.368 247.200 C 137.864 248.781,136.908 253.062,137.346 256.256 C 137.567 257.870,137.500 258.012,135.935 259.252 L 134.292 260.553 134.520 264.079 L 134.748 267.604 133.174 268.869 C 131.790 269.981,131.600 270.338,131.600 271.824 C 131.600 273.906,131.519 273.933,125.000 274.035 L 120.200 274.110 119.554 272.779 C 118.792 271.209,118.071 270.866,115.453 270.828 C 112.033 270.779,109.454 267.608,111.443 265.897 C 113.053 264.512,113.302 263.426,113.392 257.420 C 113.464 252.554,113.566 251.786,114.185 251.420 C 116.556 250.017,116.600 249.914,116.600 245.736 C 116.600 243.571,116.475 241.114,116.321 240.277 C 116.046 238.772,116.064 238.744,117.821 237.991 C 118.940 237.511,119.612 236.963,119.633 236.514 C 119.689 235.328,119.577 228.271,119.485 227.200 C 119.417 226.404,119.706 226.051,120.901 225.467 C 122.797 224.540,122.959 223.881,122.706 218.149 L 122.505 213.582 124.152 212.472 L 125.800 211.361 125.800 206.210 L 125.800 201.060 126.955 200.587 C 127.591 200.327,128.340 199.684,128.621 199.157 C 128.901 198.631,129.642 197.917,130.266 197.572 C 130.889 197.226,131.640 196.451,131.932 195.849 C 132.225 195.248,132.892 194.593,133.413 194.395 C 133.935 194.197,134.632 193.512,134.962 192.874 C 135.292 192.235,136.113 191.485,136.786 191.206 C 137.511 190.905,138.109 190.306,138.252 189.735 C 138.399 189.149,139.003 188.559,139.793 188.229 C 140.664 187.865,141.242 187.256,141.548 186.378 C 142.027 185.003,142.236 185.019,142.967 186.485 M116.202 203.998 C 115.540 204.730,115.535 204.800,116.151 204.800 C 116.522 204.800,116.932 204.522,117.062 204.183 C 117.434 203.212,116.998 203.118,116.202 203.998 M247.245 236.634 C 246.749 237.264,246.327 238.596,246.162 240.051 C 245.929 242.115,245.746 242.511,244.795 243.003 C 243.458 243.694,243.200 244.306,243.200 246.784 C 243.200 248.534,243.096 248.746,242.013 249.195 C 240.053 250.006,239.854 250.526,239.950 254.568 L 240.039 258.287 238.804 258.798 C 237.259 259.438,236.800 260.281,236.800 262.474 C 236.800 263.978,236.607 264.362,235.300 265.459 L 233.800 266.718 233.744 272.022 L 233.688 277.326 232.193 278.581 C 230.920 279.650,230.670 280.131,230.508 281.819 C 230.175 285.281,230.384 285.350,240.583 285.114 C 248.434 284.933,249.283 284.979,250.389 285.652 C 251.571 286.371,251.631 286.369,252.900 285.596 C 253.664 285.130,254.912 284.802,255.926 284.801 C 258.109 284.800,258.962 284.340,259.588 282.829 C 260.145 281.484,261.164 281.004,262.663 281.380 C 264.157 281.755,265.049 281.323,265.957 279.782 C 266.710 278.506,266.923 278.400,268.725 278.400 C 271.571 278.400,272.000 277.758,272.000 273.502 L 272.000 270.067 270.400 268.800 L 268.800 267.533 268.800 263.780 C 268.800 260.117,268.769 259.993,267.500 258.548 C 266.290 257.169,266.190 256.835,266.057 253.695 C 265.917 250.365,265.898 250.313,264.600 249.547 C 263.877 249.121,263.195 248.423,263.083 247.996 C 262.971 247.569,262.251 246.849,261.483 246.396 C 260.715 245.943,259.994 245.220,259.881 244.789 C 259.769 244.359,259.123 243.690,258.447 243.303 C 257.770 242.917,257.016 242.117,256.771 241.526 C 256.524 240.933,255.817 240.275,255.192 240.057 C 254.569 239.840,253.745 239.182,253.360 238.595 C 252.832 237.789,249.046 235.600,248.179 235.600 C 248.113 235.600,247.692 236.065,247.245 236.634 M251.800 239.844 C 252.240 240.383,253.140 240.965,253.800 241.137 C 254.627 241.353,255.211 241.894,255.680 242.877 C 256.078 243.711,256.746 244.400,257.287 244.536 C 257.834 244.673,258.400 245.264,258.670 245.980 C 258.930 246.668,259.579 247.364,260.171 247.589 C 260.745 247.807,261.389 248.446,261.604 249.009 C 261.818 249.572,262.533 250.341,263.194 250.717 C 264.539 251.482,264.697 252.055,263.774 252.822 C 263.429 253.108,262.886 253.847,262.567 254.464 C 262.248 255.081,261.468 255.854,260.835 256.182 C 260.040 256.593,259.488 257.349,259.055 258.621 C 258.709 259.634,257.907 261.055,257.273 261.778 L 256.119 263.093 256.199 271.446 C 256.319 283.940,256.741 283.500,244.800 283.348 C 240.294 283.291,236.119 283.433,234.914 283.685 C 231.281 284.444,230.526 282.888,233.300 280.355 L 235.000 278.802 235.213 273.600 L 235.426 268.398 236.913 266.953 C 238.300 265.606,238.400 265.349,238.400 263.134 C 238.400 260.800,238.424 260.749,239.793 260.177 C 241.491 259.468,241.714 258.726,241.535 254.368 L 241.400 251.070 243.000 250.233 C 244.550 249.423,244.604 249.326,244.719 247.131 C 244.830 245.024,244.921 244.836,246.021 244.453 C 247.412 243.968,248.000 242.683,248.000 240.129 L 248.000 238.311 249.500 238.587 C 250.361 238.746,251.341 239.281,251.800 239.844 M100.609 269.590 C 99.876 270.400,100.288 271.600,101.298 271.600 C 101.521 271.600,101.478 271.335,101.200 271.000 C 100.802 270.521,100.804 270.277,101.208 269.790 C 101.977 268.864,101.432 268.681,100.609 269.590 M184.600 270.800 C 184.736 271.020,185.186 271.200,185.600 271.200 C 186.014 271.200,186.452 271.360,186.573 271.556 C 186.958 272.180,189.540 272.308,189.303 271.691 C 189.190 271.396,188.867 271.242,188.587 271.350 C 188.307 271.457,187.745 271.293,187.339 270.985 C 186.491 270.343,184.223 270.189,184.600 270.800 " stroke="none" fill="#34647a" fill-rule="evenodd"></path><path id="path2" d="M179.289 94.623 L 178.400 95.245 178.400 114.207 L 178.400 133.169 177.525 133.984 C 176.743 134.713,176.127 134.800,171.774 134.800 C 166.591 134.800,165.145 135.267,166.616 136.465 C 166.977 136.759,167.618 137.360,168.039 137.800 C 169.294 139.109,170.972 140.831,171.400 141.249 C 173.383 143.185,184.998 155.221,186.400 156.793 C 187.390 157.902,188.524 159.123,188.919 159.505 C 189.314 159.887,190.193 161.063,190.871 162.117 C 192.013 163.891,193.696 165.200,194.836 165.200 C 195.097 165.200,197.694 162.725,200.607 159.700 C 203.520 156.675,206.530 153.570,207.296 152.800 C 208.062 152.030,208.920 150.950,209.202 150.400 C 209.485 149.850,210.319 148.724,211.058 147.899 C 211.796 147.073,212.400 146.254,212.400 146.079 C 212.400 145.904,213.075 145.026,213.900 144.128 C 214.725 143.230,216.210 141.570,217.200 140.439 C 219.345 137.988,219.515 137.817,220.787 136.846 C 222.747 135.349,221.395 134.800,215.751 134.800 C 208.474 134.800,209.200 137.077,209.200 114.262 C 209.200 96.423,209.158 95.286,208.469 94.662 C 207.395 93.690,180.672 93.654,179.289 94.623 " stroke="none" fill="#facc4c" fill-rule="evenodd"></path><path id="path3" d="M170.400 105.600 L 170.400 125.200 167.049 125.200 C 164.594 125.200,163.568 125.357,163.212 125.786 C 162.860 126.210,161.657 126.403,158.863 126.486 L 155.000 126.600 154.914 132.800 C 154.867 136.210,154.822 139.765,154.814 140.700 L 154.800 142.400 153.200 142.400 C 151.638 142.400,151.600 142.433,151.600 143.800 C 151.600 145.014,151.472 145.200,150.633 145.200 C 148.588 145.200,148.400 145.488,148.400 148.619 L 148.400 151.552 146.900 151.676 L 145.400 151.800 145.283 154.900 L 145.166 158.000 143.838 158.000 L 142.510 158.000 142.229 161.826 C 141.940 165.758,141.289 167.200,139.800 167.200 C 139.317 167.200,139.200 167.820,139.200 170.376 L 139.200 173.552 137.700 173.676 C 136.286 173.793,136.193 173.885,136.077 175.277 C 135.962 176.665,135.865 176.762,134.477 176.877 C 133.133 176.989,132.989 177.117,132.875 178.300 C 132.772 179.365,132.578 179.600,131.803 179.600 C 130.592 179.600,129.600 180.592,129.600 181.803 C 129.600 182.578,129.365 182.772,128.300 182.875 C 127.117 182.989,126.989 183.133,126.877 184.477 C 126.762 185.865,126.665 185.962,125.277 186.077 C 123.885 186.193,123.793 186.286,123.676 187.700 C 123.565 189.038,123.433 189.200,122.456 189.200 C 121.058 189.200,120.400 189.865,120.400 191.280 C 120.400 192.255,120.246 192.400,119.214 192.400 C 117.531 192.400,117.200 193.317,117.200 197.984 C 117.200 201.873,117.165 202.033,116.242 202.384 C 114.427 203.074,114.000 204.760,114.000 211.237 L 114.000 217.152 112.500 217.276 L 111.000 217.400 110.890 223.475 L 110.779 229.551 109.490 229.675 L 108.200 229.800 108.090 236.100 L 107.980 242.400 106.390 242.400 L 104.800 242.400 104.800 248.600 L 104.800 254.800 103.829 254.800 C 101.842 254.800,101.600 255.563,101.600 261.829 C 101.600 267.172,101.545 267.600,100.862 267.600 C 99.751 267.600,98.800 268.897,98.800 270.410 C 98.800 271.722,100.521 274.800,101.254 274.800 C 101.444 274.800,101.600 275.160,101.600 275.600 C 101.600 276.040,101.862 276.400,102.182 276.400 C 102.936 276.400,104.800 278.264,104.800 279.018 C 104.800 279.475,105.437 279.600,107.760 279.600 L 110.721 279.600 111.075 281.100 L 111.429 282.600 115.914 282.713 L 120.400 282.826 120.400 284.413 L 120.400 286.000 125.000 286.000 C 127.571 286.000,129.600 285.836,129.600 285.628 C 129.600 285.423,130.003 285.198,130.496 285.128 C 131.002 285.056,131.622 284.521,131.918 283.900 L 132.444 282.800 138.822 282.800 L 145.200 282.800 145.200 281.217 L 145.200 279.634 148.300 279.517 L 151.400 279.400 151.524 277.900 C 151.642 276.477,151.720 276.400,153.044 276.400 C 154.782 276.400,156.664 275.459,156.992 274.426 C 157.177 273.844,157.668 273.613,158.920 273.522 C 160.547 273.404,160.604 273.353,160.724 271.900 L 160.848 270.400 170.464 270.400 L 180.079 270.400 181.200 271.600 C 182.157 272.624,182.635 272.808,184.460 272.853 C 185.637 272.883,187.950 272.980,189.600 273.070 C 191.250 273.160,199.575 273.342,208.100 273.475 L 223.600 273.716 223.600 282.858 L 223.600 292.000 230.000 292.000 L 236.400 292.000 236.400 292.951 C 236.400 294.920,236.886 295.000,248.875 295.000 C 260.875 295.000,260.779 295.017,260.794 292.917 C 260.800 292.093,261.007 292.026,263.900 291.917 L 267.000 291.800 267.124 290.517 L 267.248 289.234 270.124 289.117 L 273.000 289.000 273.371 287.500 L 273.741 286.000 276.671 286.000 L 279.600 286.000 279.600 284.400 L 279.600 282.800 281.200 282.800 L 282.800 282.800 282.800 281.200 C 282.800 279.600,282.800 279.600,284.400 279.600 C 285.280 279.600,285.979 279.465,285.953 279.300 C 285.604 277.094,286.005 276.400,287.625 276.400 C 288.933 276.400,289.236 276.263,289.179 275.700 C 288.994 273.876,289.165 273.697,291.355 273.423 C 295.247 272.937,295.000 273.920,295.000 258.933 L 295.000 245.800 293.600 245.600 L 292.200 245.400 292.000 234.600 L 291.800 223.800 290.500 223.675 L 289.200 223.549 289.177 214.275 C 289.148 202.629,289.031 201.843,287.295 201.675 L 286.000 201.549 286.000 191.001 L 286.000 180.452 284.418 179.326 L 282.837 178.200 282.718 174.400 L 282.600 170.600 281.100 170.476 C 279.642 170.355,279.600 170.308,279.600 168.776 C 279.600 167.204,279.596 167.200,278.000 167.200 L 276.400 167.200 276.395 165.300 C 276.386 162.395,276.053 161.591,274.748 161.330 C 273.884 161.157,273.600 160.873,273.600 160.183 C 273.600 158.498,273.180 158.000,271.757 158.000 C 270.440 158.000,270.400 157.952,270.400 156.400 L 270.400 154.800 268.800 154.800 L 267.200 154.800 267.195 152.700 C 267.186 149.481,266.908 148.857,265.356 148.565 C 264.091 148.328,264.000 148.207,264.000 146.755 C 264.000 145.207,263.992 145.200,262.400 145.200 C 260.852 145.200,260.800 145.157,260.800 143.860 C 260.800 141.629,260.063 140.100,258.771 139.650 C 257.736 139.289,257.600 139.053,257.600 137.621 C 257.600 136.041,257.566 136.000,256.224 136.000 C 254.923 136.000,254.842 135.919,254.724 134.500 C 254.607 133.081,254.519 132.993,253.100 132.876 C 251.642 132.755,251.600 132.708,251.600 131.176 C 251.600 130.309,251.440 129.600,251.243 129.600 C 251.047 129.600,250.780 129.176,250.650 128.657 C 250.266 127.126,247.703 126.400,242.687 126.400 C 239.124 126.400,238.400 126.298,238.400 125.794 C 238.400 124.530,235.991 123.603,232.700 123.601 L 229.600 123.600 229.600 122.000 L 229.600 120.400 227.600 120.400 C 226.165 120.400,225.600 120.244,225.600 119.847 C 225.600 118.951,222.973 117.200,221.627 117.200 C 220.918 117.200,220.395 116.989,220.389 116.700 C 220.196 107.858,219.294 101.771,218.002 100.602 C 217.258 99.929,217.200 99.373,217.200 92.938 L 217.200 86.000 193.800 86.000 L 170.400 86.000 170.400 105.600 M208.526 93.260 C 209.988 94.030,209.987 94.014,210.000 113.600 C 210.007 124.050,210.152 132.820,210.322 133.088 C 210.535 133.422,212.321 133.611,216.001 133.688 L 221.371 133.800 221.985 134.897 C 222.717 136.203,222.311 137.113,220.629 137.938 C 220.026 138.234,219.358 138.974,219.146 139.583 C 218.934 140.192,218.324 140.888,217.791 141.131 C 217.258 141.374,216.566 142.185,216.253 142.934 C 215.940 143.683,215.319 144.551,214.872 144.864 C 214.426 145.177,213.747 146.236,213.365 147.217 C 212.982 148.197,212.069 149.564,211.335 150.254 C 210.601 150.944,210.000 151.805,210.000 152.167 C 210.000 152.530,209.378 153.194,208.618 153.643 C 207.857 154.091,207.121 154.817,206.982 155.257 C 206.843 155.696,206.187 156.385,205.524 156.788 C 204.862 157.190,203.981 158.078,203.566 158.760 C 203.151 159.442,202.541 160.000,202.211 160.000 C 201.880 160.000,201.156 160.720,200.600 161.600 C 200.044 162.480,199.316 163.200,198.981 163.200 C 198.647 163.200,198.006 163.822,197.557 164.582 C 195.666 167.787,191.664 166.928,189.629 162.881 C 189.153 161.935,188.484 161.054,188.143 160.923 C 187.801 160.792,187.193 159.917,186.791 158.979 C 186.389 158.040,185.701 157.159,185.263 157.020 C 184.825 156.881,184.281 156.234,184.054 155.582 C 183.822 154.918,183.024 154.033,182.238 153.569 C 181.467 153.114,180.725 152.393,180.589 151.967 C 180.454 151.540,179.808 150.915,179.154 150.576 C 178.500 150.238,177.758 149.507,177.505 148.951 C 177.251 148.395,176.532 147.675,175.905 147.351 C 175.278 147.027,174.594 146.311,174.385 145.761 C 174.176 145.210,173.488 144.580,172.857 144.360 C 172.226 144.140,171.513 143.528,171.272 142.999 C 171.032 142.471,170.306 141.765,169.661 141.431 C 169.012 141.096,168.298 140.282,168.064 139.612 C 167.832 138.945,167.362 138.400,167.021 138.400 C 166.089 138.400,164.800 136.926,164.800 135.862 C 164.800 133.975,165.790 133.634,171.618 133.512 L 177.000 133.400 177.209 113.600 C 177.325 102.710,177.460 93.749,177.509 93.687 C 178.268 92.742,206.796 92.349,208.526 93.260 M218.800 109.438 C 218.800 111.715,218.162 112.029,217.877 109.892 C 217.753 108.961,217.521 107.750,217.363 107.200 C 217.075 106.204,217.077 106.203,217.937 106.962 C 218.568 107.519,218.800 108.185,218.800 109.438 M218.673 124.828 C 221.603 125.942,221.546 127.428,218.536 128.421 C 215.906 129.289,213.925 126.539,216.089 125.023 C 217.145 124.283,217.225 124.277,218.673 124.828 M243.298 135.900 C 244.035 136.615,244.798 137.200,244.993 137.200 C 246.014 137.200,247.200 139.010,247.200 140.569 C 247.200 141.841,247.461 142.463,248.388 143.400 C 249.042 144.060,250.136 145.170,250.821 145.868 C 251.505 146.565,252.228 147.285,252.427 147.468 C 255.112 149.932,256.400 151.933,256.400 153.642 C 256.400 154.922,258.704 157.518,261.791 159.719 C 263.000 160.580,263.042 160.958,262.040 161.960 C 261.341 162.659,260.811 162.702,255.422 162.500 C 248.048 162.224,245.454 162.724,244.326 164.636 C 243.911 165.339,243.061 166.126,242.437 166.384 C 241.814 166.643,241.103 167.296,240.857 167.835 C 240.611 168.375,239.986 168.977,239.467 169.174 C 238.949 169.371,238.301 170.072,238.028 170.732 C 237.751 171.402,237.023 172.142,236.379 172.409 C 235.745 172.671,235.117 173.231,234.983 173.654 C 234.323 175.734,230.800 175.838,230.800 173.777 C 230.800 173.445,230.156 172.793,229.368 172.328 C 228.580 171.863,227.773 171.055,227.574 170.531 C 227.375 170.008,226.894 169.469,226.506 169.333 C 226.118 169.198,225.136 168.437,224.324 167.643 C 223.512 166.850,222.571 165.930,222.233 165.600 C 221.895 165.270,221.168 164.550,220.618 164.000 C 220.068 163.450,219.299 162.681,218.909 162.291 C 218.519 161.901,217.829 161.181,217.376 160.691 C 216.924 160.201,216.226 159.614,215.826 159.388 C 214.149 158.436,214.501 153.624,216.407 151.453 C 217.065 150.704,217.873 149.444,218.203 148.654 C 218.534 147.863,219.270 146.911,219.839 146.538 C 220.407 146.165,221.034 145.437,221.230 144.920 C 221.427 144.403,222.203 143.617,222.955 143.174 C 223.706 142.730,224.427 141.947,224.556 141.434 C 224.687 140.912,225.298 140.291,225.943 140.024 C 226.577 139.761,227.292 139.115,227.532 138.589 C 227.772 138.063,228.650 137.280,229.484 136.850 C 230.318 136.419,231.236 135.677,231.523 135.201 C 232.022 134.376,232.279 134.342,237.002 134.468 L 241.958 134.600 243.298 135.900 M167.779 146.392 C 168.346 146.608,169.016 147.237,169.268 147.790 C 169.520 148.343,170.328 149.150,171.063 149.584 C 171.798 150.018,172.400 150.647,172.400 150.981 C 172.400 151.316,173.120 152.044,174.000 152.600 C 174.880 153.156,175.600 153.887,175.600 154.225 C 175.600 154.564,176.232 155.420,177.005 156.128 C 179.133 158.078,179.238 161.307,177.217 162.687 C 176.457 163.207,175.618 164.148,175.353 164.778 C 175.088 165.408,174.492 166.044,174.029 166.191 C 173.566 166.338,172.833 167.152,172.400 168.000 C 171.967 168.848,171.278 169.648,170.868 169.778 C 170.424 169.919,169.921 170.701,169.627 171.708 C 169.354 172.638,168.487 174.043,167.699 174.829 L 166.266 176.257 166.233 180.918 L 166.200 185.579 164.615 187.136 L 163.029 188.693 163.147 192.104 C 163.271 195.684,162.702 197.645,161.393 198.147 C 160.733 198.401,158.800 196.806,158.800 196.009 C 158.800 195.469,154.555 191.200,154.018 191.200 C 153.433 191.200,152.521 189.606,152.188 188.000 C 152.029 187.230,151.381 186.009,150.749 185.286 C 150.117 184.563,149.600 183.711,149.600 183.391 C 149.600 183.072,148.903 182.370,148.050 181.832 C 145.388 180.151,145.280 174.714,147.855 172.062 C 148.991 170.893,149.200 170.388,149.200 168.815 C 149.200 166.733,149.651 165.963,151.384 165.088 C 152.556 164.496,152.568 164.457,152.592 160.995 C 152.615 157.591,152.648 157.472,153.855 156.450 C 154.537 155.872,155.386 154.828,155.743 154.128 C 156.099 153.429,156.749 152.743,157.185 152.605 C 157.622 152.466,158.365 151.811,158.837 151.149 C 159.308 150.486,160.127 149.780,160.657 149.578 C 161.187 149.377,161.733 148.894,161.870 148.506 C 162.665 146.253,165.112 145.378,167.779 146.392 M258.929 168.748 C 266.428 168.955,268.122 169.107,268.418 169.600 C 269.088 170.719,269.398 171.037,270.700 171.947 C 271.863 172.759,272.000 173.059,272.000 174.794 C 272.000 176.578,272.128 176.834,273.600 178.000 L 275.200 179.267 275.200 184.232 L 275.200 189.198 276.700 190.857 L 278.200 192.516 278.400 202.264 L 278.600 212.012 279.706 212.906 C 281.406 214.280,281.604 215.727,281.324 224.723 L 281.069 232.924 282.835 234.430 L 284.600 235.937 284.477 245.394 L 284.354 254.850 285.823 256.196 C 289.395 259.467,288.746 263.244,283.754 268.236 C 279.500 272.490,279.470 272.503,278.366 270.632 C 277.922 269.879,276.957 268.805,276.223 268.244 L 274.887 267.226 274.743 262.680 L 274.599 258.134 273.074 256.696 L 271.549 255.258 271.638 251.729 L 271.727 248.200 270.364 247.273 C 269.615 246.763,268.843 246.043,268.650 245.673 C 268.093 244.607,265.116 241.858,263.805 241.198 C 263.147 240.868,262.377 240.113,262.094 239.522 C 261.811 238.931,261.217 238.332,260.774 238.192 C 260.332 238.051,259.524 237.231,258.980 236.368 C 258.435 235.506,257.704 234.800,257.355 234.800 C 257.006 234.800,256.244 234.297,255.660 233.683 C 255.077 233.068,253.763 232.250,252.740 231.865 C 250.304 230.947,247.200 226.978,247.200 224.780 C 247.200 223.999,246.975 223.135,246.700 222.859 C 246.372 222.531,246.192 221.021,246.177 218.479 C 246.137 211.634,246.150 211.697,244.529 210.212 L 243.059 208.865 243.151 205.021 L 243.242 201.177 241.849 200.595 C 239.954 199.803,239.896 199.644,239.968 195.422 L 240.030 191.721 238.518 190.251 L 237.005 188.782 236.860 184.202 L 236.714 179.622 238.325 178.027 C 239.211 177.150,240.042 176.098,240.172 175.689 C 240.302 175.279,241.021 174.652,241.770 174.295 C 242.519 173.938,243.245 173.288,243.384 172.852 C 243.522 172.415,244.257 171.691,245.018 171.243 C 245.778 170.794,246.400 170.161,246.400 169.836 C 246.400 168.954,248.067 167.926,249.000 168.233 C 249.440 168.377,253.908 168.609,258.929 168.748 M143.302 184.300 C 145.105 186.265,145.910 187.036,146.538 187.400 C 146.918 187.620,147.467 188.700,147.758 189.800 C 148.433 192.351,149.753 194.514,151.900 196.590 C 152.835 197.493,153.600 198.392,153.600 198.588 C 153.600 198.783,154.230 199.520,155.000 200.226 C 156.211 201.334,156.400 201.756,156.400 203.345 C 156.400 204.917,156.559 205.280,157.500 205.863 C 159.706 207.229,159.600 205.785,159.600 234.476 C 159.600 263.207,159.628 262.800,157.638 262.800 C 157.439 262.800,156.522 263.430,155.600 264.200 C 154.644 264.999,153.485 265.600,152.901 265.600 C 152.214 265.600,151.376 266.143,150.357 267.247 C 149.106 268.602,148.508 268.931,146.989 269.102 C 145.559 269.264,144.953 269.567,144.302 270.447 C 143.840 271.072,142.818 271.787,142.031 272.035 C 141.244 272.284,139.903 273.034,139.051 273.702 C 137.182 275.167,134.439 275.549,125.600 275.572 C 119.293 275.589,119.190 275.564,118.357 273.800 C 117.817 272.657,117.664 272.596,115.125 272.526 C 109.029 272.355,106.681 267.485,110.602 263.145 C 112.088 261.500,112.102 261.454,111.885 258.841 C 111.524 254.481,112.036 250.702,113.057 250.195 C 115.173 249.144,115.188 249.091,114.927 243.634 C 114.663 238.109,114.621 238.245,117.000 236.845 L 118.200 236.138 118.084 230.969 C 117.958 225.337,117.988 225.225,119.915 224.238 L 121.230 223.564 121.176 218.429 C 121.119 213.072,121.400 211.844,122.787 211.404 C 123.902 211.050,124.395 208.872,124.398 204.287 L 124.400 200.373 125.737 199.584 C 126.472 199.150,127.280 198.343,127.532 197.790 C 127.784 197.237,128.450 196.609,129.012 196.396 C 129.573 196.182,130.339 195.475,130.712 194.824 C 131.085 194.174,131.801 193.455,132.301 193.227 C 132.802 192.998,133.424 192.346,133.684 191.776 C 133.943 191.206,134.658 190.480,135.271 190.163 C 135.885 189.846,136.658 189.062,136.989 188.422 C 137.320 187.781,137.926 187.150,138.335 187.021 C 138.744 186.891,139.654 186.068,140.358 185.192 C 141.773 183.432,142.347 183.258,143.302 184.300 M117.062 204.183 C 116.932 204.522,116.522 204.800,116.151 204.800 C 115.535 204.800,115.540 204.730,116.202 203.998 C 116.998 203.118,117.434 203.212,117.062 204.183 M250.481 236.564 C 251.680 237.095,252.976 238.009,253.360 238.595 C 253.745 239.182,254.569 239.840,255.192 240.057 C 255.817 240.275,256.524 240.933,256.771 241.526 C 257.016 242.117,257.770 242.917,258.447 243.303 C 259.123 243.690,259.769 244.359,259.881 244.789 C 259.994 245.220,260.715 245.943,261.483 246.396 C 262.251 246.849,262.971 247.569,263.083 247.996 C 263.195 248.423,263.877 249.121,264.600 249.547 C 265.898 250.313,265.917 250.365,266.057 253.695 C 266.190 256.835,266.290 257.169,267.500 258.548 C 268.769 259.993,268.800 260.117,268.800 263.780 L 268.800 267.533 270.400 268.800 L 272.000 270.067 272.000 273.502 C 272.000 277.758,271.571 278.400,268.725 278.400 C 266.923 278.400,266.710 278.506,265.957 279.782 C 265.049 281.323,264.157 281.755,262.663 281.380 C 261.164 281.004,260.145 281.484,259.588 282.829 C 258.962 284.340,258.109 284.800,255.926 284.801 C 254.912 284.802,253.664 285.130,252.900 285.596 C 251.631 286.369,251.571 286.371,250.389 285.652 C 249.283 284.979,248.434 284.933,240.583 285.114 C 230.384 285.350,230.175 285.281,230.508 281.819 C 230.670 280.131,230.920 279.650,232.193 278.581 L 233.688 277.326 233.744 272.022 L 233.800 266.718 235.300 265.459 C 236.607 264.362,236.800 263.978,236.800 262.474 C 236.800 260.281,237.259 259.438,238.804 258.798 L 240.039 258.287 239.950 254.568 C 239.854 250.526,240.053 250.006,242.013 249.195 C 243.096 248.746,243.200 248.534,243.200 246.784 C 243.200 244.306,243.458 243.694,244.795 243.003 C 245.746 242.511,245.929 242.115,246.162 240.051 C 246.327 238.596,246.749 237.264,247.245 236.634 C 248.221 235.392,247.849 235.400,250.481 236.564 M101.208 269.790 C 100.804 270.277,100.802 270.521,101.200 271.000 C 101.478 271.335,101.521 271.600,101.298 271.600 C 100.288 271.600,99.876 270.400,100.609 269.590 C 101.432 268.681,101.977 268.864,101.208 269.790 M187.339 270.985 C 187.745 271.293,188.307 271.457,188.587 271.350 C 188.867 271.242,189.191 271.400,189.306 271.700 C 189.611 272.494,185.774 271.946,184.898 271.070 C 184.013 270.185,186.183 270.109,187.339 270.985 " stroke="none" fill="#132b30" fill-rule="evenodd"></path><path id="path4" d="M178.800 94.400 C 178.020 95.180,178.002 95.667,178.096 113.700 L 178.192 132.200 178.300 113.836 C 178.416 94.161,178.358 94.670,180.550 94.034 L 181.800 93.672 180.700 93.636 C 180.093 93.616,179.241 93.959,178.800 94.400 M166.229 135.167 C 165.461 136.017,165.297 135.751,168.224 138.400 C 169.309 139.381,169.320 139.383,168.840 138.480 C 168.571 137.974,167.922 137.365,167.397 137.126 C 164.415 135.767,166.168 134.848,172.025 134.699 L 177.000 134.573 171.962 134.486 C 167.439 134.409,166.853 134.478,166.229 135.167 M213.100 134.696 C 214.475 134.774,216.725 134.774,218.100 134.696 C 219.475 134.618,218.350 134.554,215.600 134.554 C 212.850 134.554,211.725 134.618,213.100 134.696 M226.400 143.200 C 226.400 144.549,226.965 144.720,228.311 143.777 C 229.679 142.819,229.444 142.000,227.800 142.000 C 226.511 142.000,226.400 142.095,226.400 143.200 M231.200 142.186 C 231.200 142.288,231.560 142.565,232.000 142.800 C 232.639 143.142,232.800 143.104,232.800 142.614 C 232.800 142.267,232.453 142.000,232.000 142.000 C 231.560 142.000,231.200 142.084,231.200 142.186 M223.459 145.074 C 222.941 145.592,223.199 147.200,223.800 147.200 C 224.367 147.200,226.218 145.658,225.933 145.423 C 225.559 145.113,223.684 144.849,223.459 145.074 M210.441 148.614 C 209.759 149.392,209.200 150.208,209.200 150.429 C 209.200 150.649,208.382 151.678,207.383 152.715 C 204.473 155.734,203.013 157.330,202.179 158.400 C 201.751 158.950,203.155 157.607,205.300 155.415 C 207.445 153.224,209.200 151.306,209.200 151.153 C 209.200 151.000,209.830 150.122,210.600 149.200 C 211.370 148.278,212.000 147.451,212.000 147.362 C 212.000 146.972,211.603 147.291,210.441 148.614 M168.521 151.517 C 167.895 151.915,168.368 152.620,169.500 152.973 C 170.273 153.214,170.400 153.108,170.400 152.227 C 170.400 151.180,169.554 150.860,168.521 151.517 M171.600 155.056 C 171.600 155.680,172.661 156.760,173.300 156.787 C 173.465 156.794,173.600 156.260,173.600 155.600 C 173.600 154.587,173.444 154.400,172.600 154.400 C 171.940 154.400,171.600 154.623,171.600 155.056 M217.200 156.971 C 217.200 157.745,217.405 158.000,218.028 158.000 C 218.657 158.000,218.825 157.785,218.728 157.104 C 218.538 155.775,217.200 155.658,217.200 156.971 M220.249 159.815 C 219.821 160.931,219.967 161.200,221.000 161.200 C 222.192 161.200,222.271 160.769,221.249 159.845 C 220.562 159.223,220.478 159.220,220.249 159.815 M243.400 160.800 C 243.256 161.033,243.663 161.200,244.376 161.200 C 245.049 161.200,245.600 161.020,245.600 160.800 C 245.600 160.580,245.161 160.400,244.624 160.400 C 244.087 160.400,243.536 160.580,243.400 160.800 M191.152 163.100 C 191.701 164.138,193.504 165.430,193.879 165.054 C 194.019 164.914,193.906 164.800,193.627 164.800 C 193.349 164.800,192.571 164.215,191.898 163.500 C 191.045 162.592,190.820 162.472,191.152 163.100 M241.600 163.400 C 241.192 163.891,241.220 164.000,241.751 164.000 C 242.108 164.000,242.400 163.730,242.400 163.400 C 242.400 163.070,242.332 162.800,242.249 162.800 C 242.166 162.800,241.874 163.070,241.600 163.400 M151.417 167.172 C 151.317 167.335,151.372 167.983,151.540 168.612 L 151.846 169.756 152.523 168.789 C 152.895 168.257,153.200 167.703,153.200 167.558 C 153.200 167.166,151.631 166.826,151.417 167.172 M156.790 173.013 C 156.369 173.519,156.413 173.723,157.041 174.194 C 158.011 174.922,159.111 173.857,158.344 172.933 C 157.771 172.242,157.414 172.261,156.790 173.013 M241.744 176.601 C 241.355 177.616,241.961 179.266,242.672 179.127 C 243.798 178.905,245.099 176.833,244.392 176.387 C 243.482 175.811,242.001 175.931,241.744 176.601 M163.026 182.358 C 162.904 182.555,163.074 182.819,163.402 182.946 C 163.765 183.085,164.000 182.944,164.000 182.587 C 164.000 181.940,163.375 181.793,163.026 182.358 M253.200 183.200 C 253.983 183.706,254.800 183.706,254.800 183.200 C 254.800 182.980,254.305 182.803,253.700 182.806 C 252.843 182.811,252.732 182.898,253.200 183.200 M154.634 187.057 C 154.033 188.621,154.360 189.200,155.843 189.200 C 156.994 189.200,157.237 189.072,157.043 188.567 C 156.909 188.219,156.800 187.798,156.800 187.631 C 156.800 186.937,154.876 186.426,154.634 187.057 M143.600 189.524 C 143.600 190.546,144.590 191.777,145.139 191.438 C 146.105 190.841,145.688 188.800,144.600 188.800 C 143.902 188.800,143.600 189.018,143.600 189.524 M254.000 192.190 C 254.000 192.552,256.364 193.600,257.180 193.600 C 257.733 193.600,258.000 193.340,258.000 192.800 C 258.000 192.107,257.733 192.000,256.000 192.000 C 254.900 192.000,254.000 192.085,254.000 192.190 M135.697 194.393 C 135.420 194.837,134.790 195.212,134.297 195.226 C 133.516 195.248,133.565 195.334,134.682 195.890 C 136.540 196.815,137.814 195.793,136.700 194.270 C 136.234 193.633,136.165 193.642,135.697 194.393 M241.995 196.500 C 241.992 196.775,241.877 197.417,241.741 197.927 C 241.509 198.794,241.593 198.846,243.046 198.727 C 244.431 198.614,244.588 198.493,244.490 197.617 C 244.332 196.206,242.009 195.166,241.995 196.500 M129.600 199.000 C 129.600 199.673,129.673 199.700,130.567 199.357 C 131.461 199.014,131.354 198.400,130.400 198.400 C 129.956 198.400,129.600 198.667,129.600 199.000 M126.400 202.563 C 126.400 203.735,126.513 203.895,127.213 203.713 C 129.012 203.242,129.145 201.200,127.376 201.200 C 126.532 201.200,126.400 201.385,126.400 202.563 M245.200 206.730 C 245.200 207.818,245.343 208.000,246.200 208.000 C 246.750 208.000,247.200 207.851,247.200 207.670 C 247.200 207.488,246.750 206.917,246.200 206.400 L 245.200 205.461 245.200 206.730 M134.449 207.036 C 133.319 207.511,133.183 207.698,133.601 208.201 C 134.207 208.931,136.393 208.986,137.338 208.295 C 138.613 207.362,136.187 206.305,134.449 207.036 M259.900 210.301 C 258.967 210.511,259.009 211.470,259.974 211.986 C 261.010 212.541,261.075 212.523,261.312 211.615 C 261.553 210.693,260.891 210.077,259.900 210.301 M123.228 213.768 C 122.631 214.490,123.205 216.400,124.018 216.400 C 124.950 216.400,126.000 215.349,126.000 214.417 C 126.000 213.574,123.811 213.062,123.228 213.768 M248.295 219.438 C 248.076 220.580,248.261 220.800,249.443 220.800 C 251.175 220.800,251.005 219.156,249.224 218.691 C 248.677 218.547,248.427 218.749,248.295 219.438 M120.075 227.269 C 120.239 228.937,120.933 229.103,122.247 227.789 C 123.457 226.579,123.088 226.017,121.075 226.006 C 120.050 226.001,119.961 226.113,120.075 227.269 M138.578 235.635 C 138.431 235.874,138.510 236.270,138.755 236.515 C 139.082 236.842,139.200 236.726,139.200 236.080 C 139.200 235.114,138.992 234.965,138.578 235.635 M116.925 239.052 C 116.592 239.918,116.982 240.986,117.680 241.120 C 118.351 241.249,120.000 239.916,120.000 239.244 C 120.000 238.660,117.143 238.482,116.925 239.052 M252.800 242.320 C 252.800 242.818,253.704 243.600,254.280 243.600 C 254.566 243.600,254.800 243.240,254.800 242.800 C 254.800 242.213,254.533 242.000,253.800 242.000 C 253.250 242.000,252.800 242.144,252.800 242.320 M117.073 251.060 C 116.647 251.486,116.752 252.800,117.213 252.800 C 117.804 252.800,118.176 251.616,117.726 251.166 C 117.518 250.958,117.224 250.910,117.073 251.060 M241.821 251.166 C 241.102 252.330,242.028 254.050,243.306 253.923 C 244.454 253.808,245.721 251.988,245.091 251.358 C 244.626 250.892,242.082 250.743,241.821 251.166 M114.006 255.300 C 114.011 256.028,114.086 256.085,114.400 255.600 C 114.901 254.824,114.901 254.400,114.400 254.400 C 114.180 254.400,114.003 254.805,114.006 255.300 M132.007 266.192 C 131.603 266.678,131.586 266.946,131.937 267.297 C 132.613 267.973,133.404 267.094,132.911 266.213 C 132.571 265.605,132.495 265.603,132.007 266.192 M120.243 272.633 C 119.885 273.566,119.911 273.600,121.000 273.600 C 122.092 273.600,122.266 273.226,121.520 272.480 C 120.875 271.835,120.533 271.876,120.243 272.633 M232.396 282.008 C 231.763 283.190,232.390 283.754,233.956 283.410 C 235.954 282.971,235.939 281.901,233.929 281.397 C 233.085 281.185,232.769 281.311,232.396 282.008 " stroke="none" fill="#5c8c9c" fill-rule="evenodd"></path></g></svg>