<svg id="svg" version="1.1" xmlns="http://www.w3.org/2000/svg" xmlns:xlink="http://www.w3.org/1999/xlink" width="400" height="400" viewBox="0, 0, 400,400"><g id="svgg"><path id="path0" d="M197.717 121.905 L 182.433 122.009 181.372 123.401 C 180.720 124.255,179.748 124.949,178.855 125.197 C 176.375 125.884,176.150 126.163,177.026 127.466 C 177.469 128.125,177.875 129.605,177.994 130.999 C 178.187 133.242,178.297 133.460,179.700 134.366 L 181.200 135.334 181.200 138.899 L 181.200 142.464 183.533 144.797 C 186.041 147.305,186.256 147.326,187.683 145.208 L 188.606 143.839 198.177 143.748 C 208.244 143.652,208.982 143.758,210.450 145.515 C 212.193 147.600,215.279 146.835,215.775 144.195 C 215.914 143.451,216.652 142.095,217.414 141.183 C 218.580 139.787,218.800 139.214,218.800 137.567 C 218.800 135.719,218.889 135.554,220.400 134.600 L 222.000 133.590 222.000 130.014 C 222.000 126.615,221.948 126.402,220.962 125.719 C 219.579 124.761,218.725 123.959,218.000 122.936 C 217.208 121.819,216.380 121.777,197.717 121.905 M165.600 129.600 C 164.446 131.057,164.166 131.200,162.466 131.200 C 160.696 131.200,160.494 131.318,158.599 133.477 C 157.500 134.729,156.150 136.183,155.600 136.710 C 154.384 137.873,150.501 141.705,149.400 142.830 C 148.960 143.279,147.520 144.671,146.200 145.923 C 144.880 147.176,143.457 148.875,143.037 149.700 C 142.617 150.525,142.139 151.200,141.975 151.200 C 141.019 151.200,140.439 154.841,141.286 155.519 C 141.754 155.894,142.479 156.560,142.898 157.000 C 143.317 157.440,144.725 158.925,146.027 160.300 C 148.192 162.586,148.537 162.800,150.058 162.800 C 151.781 162.800,151.915 162.909,157.064 168.476 C 157.847 169.322,158.960 168.745,159.620 167.151 C 159.865 166.561,160.497 165.672,161.026 165.176 C 161.555 164.679,162.092 163.626,162.219 162.836 C 162.568 160.675,163.064 159.697,163.956 159.414 C 164.398 159.274,165.138 158.547,165.600 157.800 C 166.062 157.053,166.793 156.329,167.224 156.192 C 167.656 156.055,168.289 155.402,168.631 154.740 C 168.996 154.034,169.862 153.286,170.727 152.930 C 171.537 152.596,172.560 151.998,173.000 151.600 C 173.440 151.202,174.496 150.688,175.347 150.458 C 178.630 149.568,178.995 148.551,176.800 146.400 C 175.214 144.845,175.200 144.806,175.200 141.817 C 175.200 138.919,175.145 138.741,173.763 137.212 C 172.510 135.825,172.302 135.300,172.139 133.111 C 171.863 129.411,171.720 128.983,170.591 128.469 C 168.500 127.516,166.977 127.861,165.600 129.600 M228.800 128.800 C 228.227 129.373,228.000 130.133,228.000 131.481 C 228.000 133.040,227.789 133.580,226.769 134.632 C 225.429 136.014,224.824 137.946,224.810 140.890 C 224.801 142.554,224.665 142.849,223.671 143.363 C 221.326 144.576,220.902 147.924,222.889 149.529 C 223.346 149.898,223.984 150.495,224.306 150.855 C 225.300 151.967,226.937 153.546,228.400 154.806 C 232.579 158.406,233.999 159.832,234.425 160.861 C 234.685 161.487,235.054 162.000,235.245 162.000 C 235.436 162.000,236.355 162.810,237.286 163.800 L 238.980 165.600 242.456 165.600 L 245.933 165.600 247.200 164.000 C 247.897 163.120,248.688 162.400,248.959 162.400 C 249.229 162.400,249.959 161.869,250.580 161.221 C 251.296 160.474,252.387 159.897,253.555 159.649 C 254.604 159.425,255.573 158.946,255.800 158.537 C 256.020 158.141,256.875 157.179,257.700 156.400 C 259.547 154.654,259.556 154.366,257.800 153.027 C 256.536 152.063,256.400 151.769,256.400 149.998 C 256.400 148.339,256.240 147.927,255.362 147.319 C 254.791 146.923,254.066 146.330,253.751 146.000 C 253.260 145.486,248.813 140.992,247.616 139.800 C 247.395 139.580,246.146 138.265,244.841 136.877 C 243.315 135.255,241.977 134.219,241.092 133.974 C 240.335 133.765,239.285 133.220,238.758 132.762 C 238.231 132.304,237.229 131.690,236.531 131.398 C 235.833 131.106,234.937 130.357,234.540 129.733 C 233.255 127.715,230.357 127.243,228.800 128.800 M220.400 132.400 C 220.400 133.282,220.352 133.310,219.423 132.953 C 218.925 132.762,218.883 132.582,219.239 132.153 C 219.895 131.363,220.400 131.470,220.400 132.400 M258.720 164.500 C 257.554 165.668,256.273 167.125,255.874 167.738 C 255.212 168.752,254.964 168.841,253.100 168.726 C 251.149 168.606,251.007 168.666,250.111 170.000 C 249.415 171.035,248.576 171.609,246.895 172.200 C 243.150 173.517,242.173 180.795,245.003 186.280 C 246.176 188.552,246.449 189.577,246.662 192.500 C 246.803 194.425,247.120 196.167,247.366 196.372 C 248.080 196.964,267.444 197.028,268.152 196.440 C 269.646 195.200,269.218 183.303,267.601 181.115 C 266.045 179.011,265.600 176.965,265.600 171.918 L 265.600 167.136 263.220 164.756 L 260.841 162.377 258.720 164.500 M135.023 165.689 C 134.574 166.330,134.400 167.560,134.400 170.102 C 134.400 173.741,134.142 174.642,132.198 177.800 C 131.238 179.360,131.213 179.603,131.207 187.424 C 131.198 198.076,129.996 197.029,142.061 196.878 C 154.255 196.725,153.200 197.441,153.200 189.318 C 153.200 183.014,153.467 181.672,154.971 180.424 C 156.706 178.984,156.595 176.124,154.762 175.041 C 154.094 174.647,153.342 173.872,153.091 173.320 C 152.827 172.740,151.782 171.901,150.617 171.333 C 146.474 169.313,144.968 168.353,143.800 166.988 C 142.710 165.714,142.324 165.550,139.600 165.205 C 135.580 164.695,135.730 164.680,135.023 165.689 M267.172 189.500 C 267.147 190.460,267.103 190.498,266.822 189.800 C 266.645 189.360,266.578 188.865,266.674 188.700 C 267.012 188.114,267.200 188.415,267.172 189.500 M250.810 203.103 C 246.138 203.315,246.400 202.572,246.400 215.600 C 246.400 229.544,245.357 228.155,255.961 228.329 C 266.725 228.505,265.661 229.902,265.640 215.619 C 265.626 206.924,265.502 204.139,265.111 203.775 C 264.562 203.263,256.069 202.864,250.810 203.103 M134.990 205.762 C 134.195 207.664,134.116 226.878,134.900 227.497 C 135.848 228.245,151.287 228.495,152.309 227.778 C 153.190 227.162,153.200 227.039,153.200 217.200 C 153.200 204.655,153.468 205.199,147.188 204.973 C 144.885 204.889,141.330 204.715,139.290 204.586 L 135.580 204.350 134.990 205.762 M125.402 208.402 C 126.218 209.304,126.545 209.242,126.167 208.257 C 126.028 207.896,125.636 207.600,125.295 207.600 C 124.772 207.600,124.788 207.724,125.402 208.402 M193.681 215.303 C 193.442 215.591,193.060 216.315,192.833 216.913 C 192.444 217.936,192.272 218.000,189.910 218.001 C 187.976 218.003,187.091 218.209,186.054 218.901 C 185.313 219.396,183.873 220.262,182.854 220.826 C 181.834 221.390,180.795 222.262,180.545 222.763 C 180.294 223.264,179.523 224.019,178.831 224.440 C 178.139 224.860,177.464 225.519,177.332 225.902 C 177.199 226.286,176.477 227.140,175.728 227.800 C 174.412 228.959,174.357 229.124,174.139 232.600 C 173.929 235.938,173.828 236.273,172.759 237.200 C 170.113 239.493,170.035 251.722,172.648 254.450 C 173.552 255.394,173.764 256.072,174.033 258.882 C 174.207 260.707,174.361 262.254,174.375 262.320 C 174.389 262.387,175.027 262.703,175.793 263.023 C 176.696 263.400,177.275 263.961,177.440 264.616 C 177.579 265.173,178.210 265.895,178.840 266.221 C 179.471 266.547,180.263 267.348,180.601 268.001 C 180.938 268.654,181.668 269.302,182.221 269.441 C 182.775 269.580,183.500 270.220,183.833 270.864 C 184.166 271.508,184.859 272.226,185.374 272.461 C 186.389 272.923,186.788 274.379,186.796 277.646 C 186.805 281.548,191.008 283.268,193.525 280.400 C 194.642 279.127,196.000 278.798,196.000 279.800 C 196.000 282.525,202.465 282.981,203.825 280.352 C 204.578 278.895,205.024 278.900,205.785 280.372 C 206.854 282.438,208.758 282.414,209.840 280.322 C 210.176 279.672,210.955 278.965,211.571 278.750 C 213.066 278.229,213.599 276.902,213.606 273.681 C 213.614 270.357,213.733 270.179,216.200 269.818 C 218.427 269.492,219.118 269.068,219.634 267.709 C 219.828 267.201,220.430 266.617,220.974 266.410 C 221.517 266.203,222.243 265.490,222.588 264.824 C 222.932 264.158,223.728 263.348,224.356 263.023 C 225.764 262.295,225.986 261.508,226.000 257.200 C 226.012 253.814,226.105 253.498,227.899 250.768 C 228.671 249.592,228.797 248.865,228.798 245.600 C 228.799 241.709,228.558 240.885,226.648 238.227 C 226.103 237.470,225.910 236.558,225.947 234.931 C 226.014 232.010,225.386 229.750,224.168 228.532 C 223.632 227.995,222.933 226.935,222.616 226.175 C 222.298 225.416,221.606 224.631,221.078 224.430 C 220.549 224.229,219.758 223.457,219.320 222.714 C 218.753 221.753,218.044 221.220,216.862 220.866 C 215.948 220.592,215.200 220.192,215.200 219.978 C 215.200 219.028,212.572 218.003,210.133 218.001 C 207.680 218.000,207.662 217.992,206.933 216.500 L 206.200 215.000 200.157 214.890 C 195.560 214.806,194.011 214.905,193.681 215.303 M206.448 216.800 C 207.595 218.228,207.923 218.400,209.487 218.400 C 211.300 218.400,213.087 219.100,213.961 220.153 C 214.238 220.486,215.125 220.974,215.932 221.236 C 217.614 221.782,221.518 225.509,222.600 227.601 C 222.998 228.370,223.695 229.502,224.149 230.116 C 224.731 230.903,225.052 232.139,225.239 234.316 C 225.487 237.197,225.976 238.751,227.405 241.200 C 228.506 243.088,228.193 248.017,226.801 250.694 C 225.783 252.651,225.562 253.625,225.339 257.130 L 225.076 261.259 221.238 265.180 C 217.718 268.775,217.243 269.123,215.513 269.373 C 213.319 269.689,212.806 270.732,212.802 274.881 C 212.800 276.903,212.679 277.244,211.736 277.881 C 211.151 278.277,210.104 279.185,209.408 279.900 C 207.819 281.533,207.681 281.525,206.104 279.700 L 204.809 278.200 203.304 279.906 C 201.030 282.486,198.343 282.405,196.453 279.700 C 195.370 278.149,195.296 278.139,193.531 279.337 C 189.670 281.957,187.736 280.899,187.259 275.907 C 186.982 273.006,186.949 272.938,184.882 270.983 C 175.519 262.128,174.800 261.327,174.790 259.731 C 174.774 257.264,174.056 254.820,172.902 253.307 C 170.783 250.529,171.103 240.434,173.393 237.769 C 174.107 236.938,174.416 235.982,174.600 234.026 C 174.985 229.954,175.200 229.218,176.194 228.567 C 176.703 228.234,177.343 227.421,177.616 226.762 C 177.889 226.102,178.617 225.302,179.233 224.983 C 179.848 224.665,180.669 223.868,181.056 223.214 C 181.455 222.537,182.436 221.753,183.327 221.396 C 184.189 221.051,185.521 220.291,186.286 219.707 C 187.321 218.918,188.276 218.602,190.009 218.477 C 192.151 218.322,192.441 218.182,193.589 216.754 L 194.838 215.200 200.000 215.200 L 205.162 215.200 206.448 216.800 M135.004 234.795 C 133.934 235.977,134.051 257.801,135.133 258.900 C 136.329 260.114,137.600 258.848,137.600 256.443 C 137.600 254.758,137.778 254.359,139.100 253.081 C 139.925 252.283,140.915 251.263,141.300 250.815 C 142.308 249.641,147.924 249.632,150.104 250.800 C 150.925 251.240,151.697 251.600,151.819 251.600 C 153.267 251.600,153.969 236.312,152.590 234.789 C 151.487 233.570,136.108 233.576,135.004 234.795 M247.227 234.688 C 246.261 235.479,246.255 235.532,246.345 242.043 C 246.458 250.217,246.304 250.000,251.994 250.000 C 257.697 250.000,258.354 250.196,259.227 252.160 C 259.629 253.062,260.417 254.420,260.978 255.178 C 261.540 255.935,262.000 256.799,262.000 257.096 C 262.000 258.412,263.986 259.737,264.823 258.979 C 265.848 258.052,266.047 235.669,265.038 234.832 C 263.891 233.880,248.367 233.755,247.227 234.688 M151.600 236.651 L 151.600 237.702 144.900 237.472 C 137.567 237.221,136.000 236.989,136.000 236.153 C 136.000 235.701,137.425 235.600,143.800 235.600 L 151.600 235.600 151.600 236.651 M184.492 241.178 C 182.237 241.545,182.147 241.674,181.530 245.400 C 180.120 253.908,182.311 259.100,187.220 258.886 C 195.404 258.530,196.503 243.027,188.476 241.162 C 186.850 240.784,186.914 240.784,184.492 241.178 M209.209 241.356 C 207.503 241.811,207.387 241.937,206.768 243.991 C 206.410 245.178,205.666 246.611,205.114 247.175 C 203.519 248.804,203.359 251.416,204.772 252.751 C 205.383 253.328,206.285 254.536,206.778 255.435 C 209.035 259.553,213.103 260.121,216.485 256.792 L 218.400 254.907 218.400 249.854 L 218.400 244.801 216.859 243.213 C 214.488 240.770,212.874 240.379,209.209 241.356 M189.400 241.906 C 189.620 242.068,189.992 242.548,190.227 242.973 C 190.461 243.399,191.001 243.939,191.427 244.173 C 193.755 245.458,193.858 254.232,191.559 255.421 C 190.929 255.747,190.136 256.550,189.796 257.207 C 188.740 259.251,185.825 258.967,183.651 256.609 L 182.000 254.818 182.030 250.309 C 182.072 243.839,182.361 242.301,183.600 241.957 C 184.963 241.579,188.907 241.544,189.400 241.906 M215.420 242.900 C 216.122 243.615,216.995 244.437,217.360 244.727 C 217.925 245.176,218.008 245.975,217.912 250.095 L 217.800 254.936 216.600 255.597 C 215.940 255.960,215.165 256.739,214.878 257.328 C 213.581 259.993,208.544 257.958,206.941 254.121 C 206.631 253.379,205.933 252.570,205.389 252.322 C 203.943 251.663,203.932 248.596,205.373 247.940 C 206.364 247.488,206.899 246.500,207.509 244.000 C 208.185 241.226,213.105 240.542,215.420 242.900 M144.526 255.583 C 143.159 256.165,142.800 257.284,142.800 260.963 C 142.800 264.350,142.790 264.385,141.607 264.996 C 140.950 265.336,140.147 266.129,139.821 266.760 C 139.495 267.390,138.786 268.017,138.245 268.153 C 135.724 268.786,135.992 274.515,138.600 275.769 C 139.480 276.192,140.343 276.775,140.517 277.064 C 141.322 278.399,142.327 278.445,143.596 277.204 L 144.828 276.000 149.975 276.000 L 155.122 276.000 155.541 277.202 C 156.038 278.627,157.306 279.200,159.964 279.200 C 161.396 279.200,162.066 279.410,162.634 280.037 C 163.873 281.407,164.852 281.778,167.790 281.995 C 170.129 282.167,170.649 282.339,171.006 283.057 C 171.915 284.889,172.441 285.200,174.635 285.200 C 176.476 285.200,176.977 285.380,178.252 286.500 C 180.208 288.218,186.042 288.700,187.353 287.252 C 188.228 286.285,187.966 284.510,186.888 284.110 C 186.045 283.797,182.462 280.205,181.491 278.700 C 181.101 278.095,180.530 277.600,180.223 277.600 C 179.916 277.600,179.076 276.976,178.356 276.213 C 176.969 274.742,173.629 273.683,172.003 274.199 C 170.736 274.601,169.702 274.068,169.253 272.781 C 168.776 271.411,167.487 270.800,165.073 270.800 C 163.800 270.800,162.924 270.464,161.428 269.400 C 159.740 268.199,159.139 268.000,157.210 268.000 C 154.443 268.000,154.000 267.588,154.000 265.017 C 154.000 262.175,153.406 260.425,152.006 259.147 C 151.343 258.541,150.800 257.793,150.800 257.485 C 150.800 255.975,146.597 254.701,144.526 255.583 M250.300 255.990 C 249.695 256.467,249.200 257.085,249.200 257.362 C 249.200 257.639,248.525 258.302,247.700 258.834 C 246.311 259.731,246.191 259.962,246.078 261.947 C 245.901 265.038,243.067 268.000,240.287 268.000 C 238.645 268.000,238.345 268.155,237.213 269.583 C 236.038 271.067,235.838 271.162,234.041 271.083 C 231.966 270.993,230.953 271.545,230.368 273.084 C 230.074 273.858,229.724 274.003,228.110 274.017 C 224.539 274.050,222.783 274.607,221.363 276.157 C 220.636 276.951,219.849 277.600,219.614 277.600 C 219.379 277.600,218.897 278.207,218.543 278.950 C 218.178 279.717,217.332 280.571,216.584 280.927 C 215.860 281.272,215.155 281.912,215.016 282.348 C 214.878 282.785,214.143 283.509,213.382 283.957 C 212.022 284.760,211.597 285.978,212.306 287.040 C 213.448 288.750,218.035 288.483,220.009 286.591 C 221.006 285.636,221.605 285.428,223.700 285.306 C 227.425 285.090,227.843 284.932,228.745 283.403 C 229.531 282.071,229.684 282.000,231.758 282.000 C 234.031 282.000,234.920 281.511,235.401 279.998 C 235.651 279.208,237.015 278.958,240.000 279.152 C 242.288 279.301,243.642 278.774,244.438 277.426 L 245.221 276.098 250.111 275.917 C 255.118 275.732,256.205 275.956,256.620 277.262 C 256.995 278.446,258.128 278.531,259.062 277.446 C 259.537 276.894,260.574 276.171,261.365 275.840 C 264.803 274.404,264.406 268.753,260.794 267.701 C 257.581 266.766,257.476 266.580,257.224 261.413 C 256.959 255.992,256.695 255.556,253.520 255.295 C 251.782 255.153,251.202 255.278,250.300 255.990 M149.584 256.875 C 150.033 257.357,150.400 257.961,150.400 258.217 C 150.400 258.473,150.864 259.183,151.430 259.795 C 152.738 261.206,153.086 262.141,153.429 265.172 C 153.749 268.002,153.832 268.080,156.931 268.445 C 158.443 268.624,159.571 269.009,160.137 269.541 C 161.428 270.753,163.737 271.600,165.754 271.600 C 167.351 271.600,167.662 271.763,168.800 273.200 C 170.016 274.735,170.161 274.800,172.374 274.800 C 174.190 274.800,174.971 275.009,176.041 275.784 C 176.788 276.325,178.060 277.131,178.866 277.575 C 179.673 278.019,180.730 278.940,181.215 279.622 C 181.701 280.303,183.270 282.016,184.701 283.426 C 187.646 286.328,187.639 286.921,184.655 287.330 C 182.516 287.624,180.591 287.121,178.806 285.804 C 177.755 285.029,176.960 284.800,175.322 284.800 C 173.163 284.800,172.863 284.633,171.104 282.460 C 170.564 281.793,169.971 281.600,168.460 281.600 C 167.011 281.600,166.113 281.328,164.956 280.541 C 162.678 278.990,161.050 278.400,159.046 278.400 C 157.442 278.400,157.140 278.239,155.969 276.761 L 154.672 275.123 149.569 275.261 C 145.122 275.382,144.318 275.509,143.316 276.251 C 142.186 277.086,142.149 277.088,141.239 276.351 C 140.729 275.938,140.086 275.600,139.810 275.600 C 137.578 275.600,136.140 270.922,137.900 269.391 C 138.285 269.056,139.641 267.806,140.913 266.613 L 143.225 264.445 143.317 261.059 C 143.432 256.806,143.995 256.000,146.846 256.000 C 148.309 256.000,148.964 256.209,149.584 256.875 M255.669 256.662 C 256.263 257.200,256.400 257.934,256.400 260.591 C 256.400 265.723,257.112 267.300,259.810 268.151 C 263.710 269.380,264.027 275.600,260.190 275.600 C 259.914 275.600,259.277 275.933,258.774 276.340 C 257.878 277.066,257.832 277.062,256.430 276.110 C 255.075 275.190,254.740 275.146,250.055 275.270 L 245.110 275.400 243.951 276.790 C 242.839 278.123,242.653 278.190,239.365 278.446 C 236.079 278.701,235.882 278.772,234.615 280.156 C 233.443 281.436,233.070 281.600,231.346 281.600 C 229.599 281.600,229.275 281.749,228.181 283.052 C 227.016 284.439,226.815 284.517,223.703 284.791 C 220.826 285.044,220.277 285.225,219.009 286.339 C 217.344 287.800,214.793 288.079,213.531 286.938 C 212.438 285.948,212.442 285.942,217.467 280.959 C 223.196 275.277,223.292 275.214,226.853 274.767 C 229.426 274.444,229.879 274.252,231.023 273.002 C 232.136 271.788,232.555 271.600,234.153 271.600 C 235.689 271.600,236.249 271.373,237.505 270.239 C 238.568 269.278,239.566 268.794,240.897 268.595 C 243.808 268.158,246.400 265.418,246.400 262.778 C 246.400 258.483,252.924 254.178,255.669 256.662 M197.680 257.280 C 197.416 257.544,197.200 258.638,197.200 259.711 C 197.200 261.347,197.006 261.856,195.995 262.867 L 194.790 264.072 195.695 265.211 C 196.193 265.837,196.923 266.811,197.319 267.375 C 197.918 268.230,198.352 268.400,199.939 268.400 C 202.554 268.400,202.800 268.025,202.800 264.040 L 202.800 260.641 200.755 258.720 C 198.531 256.633,198.392 256.568,197.680 257.280 M199.388 258.378 C 199.723 259.025,200.493 259.792,201.099 260.082 C 202.354 260.682,202.993 266.203,201.952 267.458 C 200.933 268.686,198.291 267.990,197.490 266.283 C 197.098 265.449,196.509 264.663,196.180 264.537 C 195.701 264.353,195.783 264.122,196.591 263.373 C 197.631 262.410,197.726 262.049,197.609 259.510 C 197.492 256.979,198.375 256.417,199.388 258.378 M203.552 287.203 C 203.196 287.411,202.679 288.125,202.404 288.791 C 201.739 290.396,198.898 290.533,196.733 289.065 C 195.368 288.138,195.342 288.136,193.984 288.865 C 192.984 289.401,191.689 289.611,189.206 289.640 C 185.104 289.688,184.437 289.865,182.778 291.350 C 181.706 292.310,181.056 292.530,178.847 292.681 C 175.654 292.898,174.107 293.434,173.790 294.431 C 173.501 295.342,171.319 295.995,168.554 295.998 C 166.446 296.000,164.400 297.072,164.400 298.175 C 164.400 298.986,158.413 299.597,157.360 298.894 C 157.118 298.732,156.711 298.203,156.455 297.718 C 155.509 295.921,148.359 295.241,146.800 296.800 C 145.241 298.359,145.921 305.509,147.718 306.455 C 149.073 307.169,149.187 307.543,149.194 311.300 C 149.201 315.558,149.770 316.428,152.500 316.354 L 154.200 316.308 152.625 316.005 C 150.171 315.532,149.600 314.506,149.600 310.570 C 149.600 307.406,149.534 307.153,148.365 305.822 C 146.845 304.090,145.942 299.924,146.718 298.221 C 147.824 295.792,153.009 295.896,155.866 298.404 C 158.066 300.336,163.461 300.130,165.159 298.050 C 166.205 296.768,166.434 296.685,169.739 296.384 C 172.872 296.098,173.326 295.950,174.316 294.890 C 175.251 293.889,175.834 293.669,178.208 293.417 C 181.124 293.107,183.600 292.305,183.600 291.669 C 183.600 291.011,185.713 290.468,189.266 290.213 C 191.172 290.076,193.292 289.803,193.976 289.607 C 194.856 289.355,195.626 289.419,196.598 289.825 C 199.384 290.989,201.591 290.616,203.250 288.700 L 204.722 287.000 206.299 288.700 L 207.877 290.400 211.318 290.400 L 214.759 290.400 215.796 291.759 C 216.799 293.075,216.946 293.127,220.416 293.401 C 223.951 293.681,224.016 293.705,225.187 295.184 L 226.375 296.683 229.687 296.602 L 233.000 296.521 234.409 298.061 C 235.817 299.599,235.819 299.600,239.000 299.600 L 242.182 299.600 243.644 298.001 C 245.758 295.688,248.048 295.975,251.100 298.935 C 253.623 301.383,253.651 301.664,251.588 303.761 C 247.344 308.077,247.518 307.828,247.617 309.457 C 247.927 314.521,247.028 316.000,243.637 316.000 C 241.444 316.000,241.530 316.073,239.011 312.069 C 238.274 310.896,237.551 309.456,237.404 308.869 C 236.934 306.983,236.075 306.400,233.769 306.400 C 232.111 306.400,231.411 306.189,230.486 305.411 C 228.883 304.062,227.514 303.600,225.121 303.600 C 223.310 303.600,222.949 303.446,221.729 302.152 C 220.424 300.769,220.212 300.693,216.939 300.438 C 214.185 300.224,213.405 300.018,212.950 299.386 C 211.390 297.217,211.352 297.200,207.880 297.200 C 204.357 297.200,203.833 296.989,202.663 295.100 C 201.583 293.357,198.740 293.506,196.792 295.408 C 195.494 296.675,195.072 296.838,192.575 297.034 C 188.571 297.348,188.022 297.515,187.542 298.567 C 186.930 299.911,185.564 300.400,182.417 300.400 C 179.829 300.400,179.610 300.472,178.613 301.658 C 177.476 303.009,175.708 303.551,172.336 303.583 C 170.757 303.597,170.313 303.788,169.439 304.827 C 168.419 306.039,166.666 306.800,164.894 306.800 C 163.089 306.800,159.600 310.825,159.600 312.908 C 159.600 315.028,159.022 315.642,156.665 316.028 L 155.000 316.300 156.871 316.350 C 159.319 316.415,160.400 315.201,160.400 312.385 C 160.400 310.635,160.497 310.445,161.574 310.069 C 162.228 309.841,163.031 309.114,163.385 308.430 C 163.959 307.318,164.204 307.200,165.921 307.200 C 167.907 307.200,169.600 306.368,169.600 305.391 C 169.600 304.446,171.010 304.000,174.000 304.000 C 177.272 304.000,178.148 303.648,179.006 301.988 C 179.617 300.806,179.640 300.800,183.161 300.800 C 186.875 300.800,187.199 300.662,188.194 298.657 C 188.575 297.890,189.037 297.779,192.578 297.600 C 195.144 297.470,196.591 297.231,196.694 296.920 C 197.521 294.424,201.209 293.445,202.206 295.457 C 203.184 297.429,203.513 297.567,207.527 297.686 C 211.005 297.789,211.420 297.883,211.805 298.657 C 212.718 300.494,213.128 300.683,216.679 300.904 C 220.185 301.123,220.304 301.176,221.433 303.049 C 221.764 303.598,222.588 303.827,224.922 304.018 C 227.497 304.228,228.141 304.432,229.023 305.314 C 230.378 306.669,232.493 307.351,234.394 307.047 C 236.212 306.757,236.591 307.133,236.961 309.600 C 237.128 310.716,237.609 311.780,238.225 312.400 C 238.772 312.950,239.630 314.030,240.131 314.800 C 241.320 316.627,245.868 316.945,247.204 315.294 C 247.956 314.365,248.671 309.878,248.295 308.442 C 248.157 307.916,248.394 307.549,249.069 307.241 C 249.604 306.998,250.290 306.203,250.594 305.475 C 250.898 304.748,251.612 303.941,252.179 303.682 C 254.395 302.673,254.289 299.726,252.011 299.003 C 251.565 298.862,251.200 298.570,251.200 298.355 C 251.200 295.392,243.880 295.073,242.863 297.992 L 242.442 299.200 239.000 299.200 L 235.558 299.200 235.137 297.992 C 234.532 296.256,233.579 295.919,229.665 296.055 L 226.200 296.176 225.576 294.858 C 224.699 293.008,224.222 292.813,220.540 292.806 L 217.279 292.800 216.453 291.400 C 215.548 289.866,215.480 289.847,211.339 289.984 C 208.298 290.084,208.498 290.181,206.200 287.500 C 205.540 286.730,204.551 286.619,203.552 287.203 " stroke="none" fill="#637b8c" fill-rule="evenodd"></path><path id="path1" d="M194.892 216.900 C 194.669 217.175,194.420 217.755,194.340 218.190 C 194.136 219.287,192.554 219.987,190.263 219.994 C 188.652 219.999,188.289 220.137,188.112 220.816 C 187.834 221.878,186.016 222.800,184.199 222.800 C 182.940 222.800,182.688 222.971,182.192 224.156 C 181.826 225.032,181.210 225.658,180.452 225.922 C 179.603 226.218,179.202 226.679,179.002 227.590 C 178.850 228.282,178.183 229.404,177.520 230.082 C 176.508 231.117,176.285 231.710,176.137 233.758 C 175.821 238.112,175.604 238.822,174.140 240.286 L 172.732 241.695 172.866 245.965 L 173.000 250.235 174.388 251.474 L 175.777 252.713 175.933 256.933 L 176.089 261.153 177.275 261.566 C 178.025 261.828,178.629 262.422,178.915 263.180 C 179.196 263.924,179.804 264.532,180.515 264.780 C 181.221 265.026,181.834 265.636,182.110 266.366 C 182.386 267.099,182.941 267.649,183.558 267.804 C 185.766 268.358,188.378 271.596,188.395 273.800 C 188.426 277.738,188.334 277.663,192.953 277.523 L 197.000 277.400 197.600 278.691 C 198.146 279.866,198.362 279.983,200.000 279.983 C 201.638 279.983,201.854 279.866,202.400 278.691 C 203.420 276.496,207.585 276.872,207.606 279.162 C 207.610 279.560,207.802 279.424,208.116 278.800 C 208.402 278.234,209.224 277.604,210.010 277.349 L 211.400 276.898 211.600 272.867 C 211.835 268.130,211.954 267.959,215.262 267.641 C 217.518 267.424,217.789 267.301,217.994 266.400 C 218.134 265.784,218.706 265.185,219.483 264.840 C 220.223 264.511,220.844 263.881,220.986 263.313 C 221.120 262.781,221.752 262.046,222.392 261.678 C 223.859 260.837,223.988 260.323,223.995 255.287 C 223.998 252.547,224.200 250.695,224.600 249.738 C 224.946 248.910,225.200 247.075,225.200 245.400 C 225.200 243.725,224.946 241.890,224.600 241.062 C 224.219 240.150,224.000 238.325,224.000 236.060 L 224.000 232.495 222.631 231.451 C 221.509 230.595,221.202 230.031,220.930 228.321 C 220.649 226.553,220.446 226.200,219.599 226.002 C 218.958 225.852,218.348 225.235,217.897 224.284 C 217.287 222.997,217.011 222.800,215.823 222.800 C 213.842 222.800,212.457 222.162,211.931 221.008 C 211.538 220.145,211.207 219.999,209.636 219.994 C 207.438 219.987,205.861 219.271,205.660 218.190 C 205.357 216.552,204.876 216.400,200.000 216.400 C 196.722 216.400,195.175 216.551,194.892 216.900 M190.790 239.995 C 192.685 241.009,194.800 243.725,194.800 245.143 C 194.800 245.581,195.250 246.473,195.800 247.127 C 197.098 248.669,197.201 251.513,195.998 252.602 C 195.557 253.001,195.007 254.032,194.775 254.894 C 194.448 256.107,194.053 256.586,193.023 257.016 C 192.183 257.367,191.601 257.941,191.442 258.574 C 191.048 260.146,189.884 260.511,185.883 260.320 C 181.411 260.106,180.649 259.465,180.192 255.532 C 180.031 254.144,179.562 252.380,179.150 251.611 C 178.161 249.766,178.203 248.461,179.288 247.306 C 179.986 246.564,180.210 245.763,180.334 243.571 C 180.544 239.858,180.919 239.600,186.115 239.600 C 188.281 239.600,190.385 239.778,190.790 239.995 M216.806 240.345 C 219.240 241.647,219.618 242.792,219.747 249.265 C 219.876 255.764,219.717 256.512,218.017 257.391 C 217.348 257.737,216.800 258.282,216.800 258.601 C 216.800 259.895,214.970 260.489,211.436 260.341 C 207.332 260.170,206.161 259.472,205.211 256.632 C 204.779 255.340,204.218 254.527,203.501 254.152 C 201.582 253.146,201.415 247.721,203.260 246.316 C 203.777 245.922,204.425 245.413,204.700 245.184 C 204.975 244.956,205.200 244.134,205.200 243.358 C 205.200 240.256,206.221 239.661,211.606 239.625 C 214.589 239.605,215.714 239.761,216.806 240.345 M200.618 256.182 C 201.158 256.722,201.600 257.309,201.600 257.487 C 201.600 257.665,202.002 257.988,202.493 258.205 C 204.488 259.087,205.256 267.316,203.506 269.065 C 202.061 270.511,195.600 269.925,195.600 268.349 C 195.600 268.078,194.970 267.280,194.200 266.574 C 192.120 264.670,192.290 263.080,194.706 261.843 C 195.958 261.201,196.008 261.085,195.921 259.012 C 195.771 255.438,198.332 253.895,200.618 256.182 M145.097 257.436 C 144.934 257.600,144.800 259.413,144.800 261.467 C 144.800 265.327,144.203 266.800,142.639 266.800 C 142.331 266.800,141.888 267.347,141.655 268.015 C 141.380 268.803,140.817 269.375,140.055 269.641 C 138.863 270.056,138.025 272.840,138.820 273.740 C 138.985 273.927,142.963 274.107,147.660 274.140 L 156.200 274.200 156.933 275.700 L 157.666 277.200 161.051 277.200 C 164.409 277.200,166.400 278.066,166.400 279.527 C 166.400 279.727,167.572 279.985,169.004 280.099 C 171.823 280.326,172.683 280.777,172.876 282.129 C 172.989 282.922,173.234 283.000,175.600 283.000 L 178.200 283.000 178.319 281.389 C 178.433 279.833,178.375 279.747,176.606 278.888 C 175.598 278.398,174.658 277.683,174.516 277.299 C 174.118 276.220,173.579 276.013,171.162 276.006 C 168.835 276.000,167.600 275.271,167.600 273.904 C 167.600 273.397,166.908 273.217,164.100 272.995 C 160.456 272.707,159.029 272.151,158.618 270.858 C 158.424 270.245,157.894 270.060,155.929 269.917 C 152.858 269.695,152.000 268.833,152.000 265.969 C 152.000 264.359,151.799 263.822,150.821 262.821 C 149.772 261.748,148.808 259.495,148.802 258.100 C 148.801 257.825,148.553 257.600,148.250 257.600 C 147.947 257.600,147.181 257.496,146.547 257.369 C 145.913 257.243,145.261 257.273,145.097 257.436 M251.002 258.533 C 250.620 259.448,250.017 260.055,249.213 260.336 C 248.055 260.739,248.000 260.862,248.000 263.019 C 248.000 267.076,246.117 269.325,242.282 269.851 C 240.930 270.036,240.122 270.449,239.151 271.450 C 237.947 272.693,237.649 272.800,235.402 272.800 C 232.888 272.800,232.000 273.232,232.000 274.456 C 232.000 275.458,231.330 275.750,228.399 276.022 C 226.228 276.224,225.599 276.461,224.599 277.449 C 223.939 278.101,222.992 278.916,222.494 279.259 C 221.701 279.806,221.628 280.077,221.910 281.442 L 222.233 283.000 224.422 283.117 C 226.535 283.230,226.628 283.192,227.070 282.021 C 227.603 280.608,228.910 280.000,231.418 280.000 C 232.974 280.000,233.215 279.879,233.438 278.989 C 233.777 277.642,234.720 277.201,237.274 277.196 C 241.026 277.188,242.419 276.802,242.857 275.651 C 243.474 274.028,243.720 273.987,252.519 274.057 C 261.753 274.130,261.711 274.142,261.526 271.554 L 261.400 269.800 259.145 269.681 C 255.696 269.500,255.443 269.050,255.200 262.660 L 255.000 257.400 253.289 257.276 C 251.673 257.160,251.547 257.229,251.002 258.533 M185.089 292.771 C 184.486 294.367,183.314 294.800,179.591 294.800 C 176.488 294.800,176.408 294.825,175.813 295.975 C 174.948 297.648,174.629 297.768,170.417 297.995 C 166.786 298.192,166.624 298.240,166.399 299.197 C 165.748 301.971,155.996 302.035,153.249 299.283 C 152.114 298.146,148.588 297.371,148.105 298.153 C 147.496 299.139,148.041 302.201,148.969 303.000 C 150.382 304.218,150.800 305.327,150.803 307.874 C 150.805 309.153,150.921 311.152,151.061 312.315 L 151.315 314.429 154.757 314.315 L 158.200 314.200 158.305 312.400 C 158.486 309.327,158.706 308.847,160.105 308.486 C 160.997 308.257,161.440 307.881,161.527 307.280 C 161.723 305.940,163.130 305.200,165.481 305.200 C 167.397 305.200,167.607 305.110,167.838 304.191 C 168.271 302.466,169.428 302.000,173.281 302.000 C 176.669 302.000,176.793 301.968,177.032 301.016 C 177.445 299.368,178.300 299.012,182.345 298.800 C 186.018 298.608,186.176 298.561,186.401 297.603 C 186.724 296.224,188.162 295.613,191.103 295.606 C 193.321 295.601,193.707 295.478,194.503 294.531 C 194.996 293.944,195.696 293.152,196.058 292.773 C 196.952 291.837,195.714 291.600,189.915 291.600 L 185.531 291.600 185.089 292.771 M211.779 292.823 C 211.130 293.541,210.621 293.635,207.817 293.559 C 204.607 293.472,204.600 293.474,204.473 294.536 L 204.347 295.600 208.000 295.600 C 212.145 295.600,212.943 295.887,213.537 297.592 L 213.958 298.800 217.205 298.800 C 220.851 298.800,221.732 299.122,222.580 300.762 C 223.151 301.865,223.284 301.906,226.847 302.077 C 230.514 302.252,230.529 302.257,231.763 303.726 C 232.873 305.049,233.197 305.200,234.926 305.200 C 237.379 305.200,238.234 305.669,238.536 307.182 C 238.669 307.847,239.328 308.889,240.000 309.496 C 240.857 310.271,241.310 311.137,241.520 312.400 L 241.818 314.200 243.696 314.321 C 245.910 314.465,245.942 314.400,246.099 309.400 C 246.199 306.227,246.211 306.195,247.483 305.600 C 248.340 305.199,248.852 304.618,249.026 303.849 C 249.201 303.072,249.661 302.556,250.443 302.261 C 251.863 301.725,251.910 301.364,250.602 301.036 C 249.962 300.876,249.397 300.288,249.023 299.393 C 248.243 297.526,245.004 297.247,244.562 299.009 C 243.760 302.206,234.240 302.206,233.438 299.009 C 233.189 298.016,233.123 298.000,229.254 298.000 C 225.084 298.000,224.277 297.666,223.937 295.800 C 223.806 295.084,223.434 294.989,220.396 294.900 C 215.799 294.764,215.225 294.590,214.735 293.186 C 214.236 291.755,212.895 291.590,211.779 292.823 " stroke="none" fill="#eedec4" fill-rule="evenodd"></path><path id="path2" d="M184.601 111.096 C 183.255 111.294,182.815 111.785,182.806 113.100 C 182.800 113.990,182.738 114.000,177.233 114.000 C 170.616 114.000,170.400 114.058,170.400 115.843 L 170.400 117.200 167.200 117.200 L 164.000 117.200 164.000 118.800 L 164.000 120.400 161.000 120.400 L 158.000 120.400 158.000 122.000 L 158.000 123.600 156.400 123.600 C 155.204 123.600,154.800 123.761,154.800 124.236 C 154.800 125.245,153.127 126.372,151.600 126.392 C 148.984 126.427,148.400 126.761,148.400 128.223 C 148.400 129.470,148.307 129.559,146.900 129.676 C 145.481 129.793,145.393 129.881,145.276 131.300 C 145.159 132.710,145.072 132.800,143.811 132.800 C 142.559 132.800,142.453 132.905,142.200 134.400 C 141.946 135.901,141.845 136.000,140.565 136.000 C 139.243 136.000,139.200 136.049,139.200 137.576 C 139.200 139.108,139.158 139.155,137.700 139.276 L 136.200 139.400 136.083 142.277 L 135.966 145.154 134.483 145.277 C 133.053 145.396,132.996 145.459,132.879 147.062 C 132.777 148.456,132.596 148.765,131.753 148.976 C 130.446 149.304,129.600 151.326,129.600 154.117 C 129.600 156.243,128.567 158.000,127.317 158.000 C 126.592 158.000,126.400 159.097,126.400 163.233 C 126.400 167.078,126.372 167.200,125.500 167.206 C 123.471 167.220,123.538 166.401,123.697 189.039 C 123.826 207.450,123.933 210.501,124.523 212.520 C 125.029 214.253,125.200 216.389,125.200 220.971 C 125.200 225.933,125.314 227.197,125.800 227.600 C 126.762 228.398,126.546 230.212,125.400 230.963 C 124.707 231.417,124.400 231.981,124.400 232.800 C 124.400 233.619,124.707 234.183,125.400 234.637 C 126.546 235.388,126.762 237.202,125.800 238.000 C 125.036 238.634,125.036 239.366,125.800 240.000 C 126.663 240.716,126.663 247.013,125.800 247.345 C 125.023 247.643,125.023 249.157,125.800 249.455 C 127.586 250.141,126.147 258.000,124.236 258.000 C 123.670 258.000,123.600 259.196,123.600 268.800 L 123.600 279.600 128.200 279.600 L 132.800 279.600 132.800 281.200 L 132.800 282.800 134.400 282.800 L 136.000 282.800 136.000 284.400 L 136.000 286.000 146.958 286.000 L 157.916 286.000 158.069 287.600 L 158.221 289.200 150.355 289.200 L 142.489 289.200 142.229 290.585 C 142.006 291.775,141.775 292.006,140.585 292.229 L 139.200 292.489 139.200 301.645 L 139.200 310.800 140.600 310.800 L 142.000 310.800 142.004 314.100 C 142.012 319.581,142.252 320.400,143.852 320.400 C 145.118 320.400,145.200 320.483,145.200 321.757 C 145.200 323.191,145.696 323.600,147.433 323.600 C 148.272 323.600,148.400 323.786,148.400 325.000 L 148.400 326.400 154.600 326.400 L 160.800 326.400 160.800 325.024 C 160.800 323.723,160.881 323.642,162.300 323.524 C 163.719 323.407,163.807 323.319,163.924 321.900 C 164.045 320.442,164.092 320.400,165.624 320.400 L 167.200 320.400 167.200 318.643 C 167.200 317.091,167.320 316.857,168.226 316.629 C 168.883 316.464,169.400 315.946,169.665 315.186 C 170.076 314.006,170.095 314.000,173.239 314.000 L 176.400 314.000 176.400 312.400 L 176.400 310.800 180.957 310.800 C 185.752 310.800,186.000 310.703,186.000 308.830 C 186.000 308.221,186.607 308.077,190.500 307.763 L 195.000 307.400 195.125 306.100 L 195.251 304.800 200.025 304.800 L 204.800 304.800 204.800 306.161 L 204.800 307.521 209.400 307.808 L 214.000 308.096 214.000 309.448 L 214.000 310.800 218.800 310.800 L 223.600 310.800 223.600 312.400 L 223.600 314.000 226.576 314.000 L 229.552 314.000 229.676 315.500 C 229.793 316.919,229.881 317.007,231.300 317.124 L 232.800 317.248 232.800 320.267 C 232.800 322.757,232.903 323.246,233.387 323.060 C 233.710 322.936,234.081 323.007,234.211 323.217 C 234.341 323.428,234.906 323.600,235.466 323.600 C 236.076 323.600,236.800 324.001,237.271 324.600 C 237.704 325.150,238.315 325.600,238.629 325.600 C 238.943 325.600,239.200 325.785,239.200 326.010 C 239.200 326.278,241.325 326.382,245.300 326.310 L 251.400 326.200 251.525 324.900 C 251.628 323.837,251.822 323.600,252.593 323.600 C 254.299 323.600,254.800 323.185,254.800 321.769 C 254.800 320.586,254.957 320.382,256.100 320.088 L 257.400 319.754 257.754 315.277 C 258.092 311.011,258.151 310.800,259.005 310.800 C 260.713 310.800,260.822 310.183,260.708 301.149 L 260.600 292.600 259.100 292.476 C 257.642 292.355,257.600 292.308,257.600 290.776 L 257.600 289.200 249.300 289.168 C 244.735 289.151,241.225 289.046,241.500 288.935 C 241.775 288.824,242.000 288.118,242.000 287.367 L 242.000 286.000 253.000 286.000 L 264.000 286.000 264.000 284.400 L 264.000 282.800 265.600 282.800 C 267.194 282.800,267.200 282.794,267.200 281.236 L 267.200 279.673 271.415 279.536 C 276.764 279.363,276.387 280.231,276.394 268.100 L 276.400 258.000 275.000 258.000 L 273.600 258.000 273.600 232.800 C 273.600 210.667,273.673 207.600,274.200 207.600 C 276.384 207.600,276.400 207.462,276.400 188.200 L 276.400 170.400 275.000 170.400 L 273.600 170.400 273.597 166.300 C 273.590 159.142,273.338 158.000,271.761 158.000 L 270.434 158.000 270.317 154.900 L 270.200 151.800 268.716 151.677 L 267.233 151.554 267.116 148.477 L 267.000 145.400 265.500 145.276 C 264.109 145.161,263.999 145.059,263.989 143.876 C 263.980 142.828,263.698 142.427,262.407 141.631 C 260.916 140.711,260.830 140.548,260.718 138.431 L 260.600 136.200 259.123 136.077 C 257.735 135.962,257.638 135.865,257.523 134.477 C 257.411 133.133,257.283 132.989,256.100 132.875 C 255.108 132.779,254.800 132.560,254.800 131.948 C 254.800 130.493,254.039 129.600,252.797 129.600 C 251.808 129.600,251.570 129.396,251.288 128.300 C 250.962 127.033,250.882 126.991,248.077 126.645 L 245.200 126.289 245.200 124.945 C 245.200 123.646,245.146 123.600,243.624 123.600 C 242.092 123.600,242.045 123.558,241.924 122.100 L 241.800 120.600 238.923 120.483 L 236.046 120.366 235.923 118.883 L 235.800 117.400 232.357 117.285 C 229.175 117.179,228.882 117.099,228.482 116.220 C 228.244 115.697,227.678 115.152,227.224 115.008 C 226.771 114.864,226.400 114.578,226.400 114.373 C 226.400 114.162,224.231 114.000,221.414 114.000 C 216.915 114.000,216.388 113.925,216.019 113.236 C 214.765 110.893,214.080 110.795,199.353 110.860 C 191.899 110.893,185.261 110.999,184.601 111.096 M218.000 122.936 C 218.725 123.959,219.579 124.761,220.962 125.719 C 221.948 126.402,222.000 126.615,222.000 130.014 L 222.000 133.590 220.400 134.600 C 218.889 135.554,218.800 135.719,218.800 137.567 C 218.800 139.214,218.580 139.787,217.414 141.183 C 216.652 142.095,215.914 143.451,215.775 144.195 C 215.279 146.835,212.193 147.600,210.450 145.515 C 208.982 143.758,208.244 143.652,198.177 143.748 L 188.606 143.839 187.683 145.208 C 186.256 147.326,186.041 147.305,183.533 144.797 L 181.200 142.464 181.200 138.899 L 181.200 135.334 179.700 134.366 C 178.297 133.460,178.187 133.242,177.994 130.999 C 177.875 129.605,177.469 128.125,177.026 127.466 C 176.150 126.163,176.375 125.884,178.855 125.197 C 179.748 124.949,180.720 124.255,181.372 123.401 L 182.433 122.009 197.717 121.905 C 216.380 121.777,217.208 121.819,218.000 122.936 M170.591 128.469 C 171.720 128.983,171.863 129.411,172.139 133.111 C 172.302 135.300,172.510 135.825,173.763 137.212 C 175.145 138.741,175.200 138.919,175.200 141.817 C 175.200 144.806,175.214 144.845,176.800 146.400 C 178.995 148.551,178.630 149.568,175.347 150.458 C 174.496 150.688,173.440 151.202,173.000 151.600 C 172.560 151.998,171.537 152.596,170.727 152.930 C 169.862 153.286,168.996 154.034,168.631 154.740 C 168.289 155.402,167.656 156.055,167.224 156.192 C 166.793 156.329,166.062 157.053,165.600 157.800 C 165.138 158.547,164.398 159.274,163.956 159.414 C 163.064 159.697,162.568 160.675,162.219 162.836 C 162.092 163.626,161.555 164.679,161.026 165.176 C 160.497 165.672,159.865 166.561,159.620 167.151 C 158.960 168.745,157.847 169.322,157.064 168.476 C 151.915 162.909,151.781 162.800,150.058 162.800 C 148.537 162.800,148.192 162.586,146.027 160.300 C 144.725 158.925,143.317 157.440,142.898 157.000 C 142.479 156.560,141.754 155.894,141.286 155.519 C 140.439 154.841,141.019 151.200,141.975 151.200 C 142.139 151.200,142.617 150.525,143.037 149.700 C 143.457 148.875,144.880 147.176,146.200 145.923 C 147.520 144.671,148.960 143.279,149.400 142.830 C 150.501 141.705,154.384 137.873,155.600 136.710 C 156.150 136.183,157.500 134.729,158.599 133.477 C 160.494 131.318,160.696 131.200,162.466 131.200 C 164.166 131.200,164.446 131.057,165.600 129.600 C 166.977 127.861,168.500 127.516,170.591 128.469 M233.409 128.306 C 233.634 128.468,234.143 129.110,234.540 129.733 C 234.937 130.357,235.833 131.106,236.531 131.398 C 237.229 131.690,238.231 132.304,238.758 132.762 C 239.285 133.220,240.335 133.765,241.092 133.974 C 241.977 134.219,243.315 135.255,244.841 136.877 C 246.146 138.265,247.395 139.580,247.616 139.800 C 248.813 140.992,253.260 145.486,253.751 146.000 C 254.066 146.330,254.791 146.923,255.362 147.319 C 256.240 147.927,256.400 148.339,256.400 149.998 C 256.400 151.769,256.536 152.063,257.800 153.027 C 259.556 154.366,259.547 154.654,257.700 156.400 C 256.875 157.179,256.020 158.141,255.800 158.537 C 255.573 158.946,254.604 159.425,253.555 159.649 C 252.387 159.897,251.296 160.474,250.580 161.221 C 249.959 161.869,249.229 162.400,248.959 162.400 C 248.688 162.400,247.897 163.120,247.200 164.000 L 245.933 165.600 242.456 165.600 L 238.980 165.600 237.286 163.800 C 236.355 162.810,235.436 162.000,235.245 162.000 C 235.054 162.000,234.685 161.487,234.425 160.861 C 233.999 159.832,232.579 158.406,228.400 154.806 C 226.937 153.546,225.300 151.967,224.306 150.855 C 223.984 150.495,223.346 149.898,222.889 149.529 C 220.902 147.924,221.326 144.576,223.671 143.363 C 224.665 142.849,224.801 142.554,224.810 140.890 C 224.824 137.946,225.429 136.014,226.769 134.632 C 227.789 133.580,228.000 133.040,228.000 131.481 C 228.000 128.624,231.220 126.734,233.409 128.306 M265.600 171.918 C 265.600 176.965,266.045 179.011,267.601 181.115 C 269.218 183.303,269.646 195.200,268.152 196.440 C 267.444 197.028,248.080 196.964,247.366 196.372 C 247.120 196.167,246.803 194.425,246.662 192.500 C 246.449 189.577,246.176 188.552,245.003 186.280 C 242.173 180.795,243.150 173.517,246.895 172.200 C 248.576 171.609,249.415 171.035,250.111 170.000 C 251.007 168.666,251.149 168.606,253.100 168.726 C 254.964 168.841,255.212 168.752,255.874 167.738 C 256.273 167.125,257.554 165.668,258.720 164.500 L 260.841 162.377 263.220 164.756 L 265.600 167.136 265.600 171.918 M139.600 165.205 C 142.324 165.550,142.710 165.714,143.800 166.988 C 144.968 168.353,146.474 169.313,150.617 171.333 C 151.782 171.901,152.827 172.740,153.091 173.320 C 153.342 173.872,154.094 174.647,154.762 175.041 C 156.595 176.124,156.706 178.984,154.971 180.424 C 153.467 181.672,153.200 183.014,153.200 189.318 C 153.200 197.441,154.255 196.725,142.061 196.878 C 129.996 197.029,131.198 198.076,131.207 187.424 C 131.213 179.603,131.238 179.360,132.198 177.800 C 134.142 174.642,134.400 173.741,134.400 170.102 C 134.400 167.560,134.574 166.330,135.023 165.689 C 135.730 164.680,135.580 164.695,139.600 165.205 M265.111 203.775 C 266.181 204.771,265.846 226.833,264.748 227.722 C 263.368 228.840,248.522 228.599,247.241 227.438 C 246.036 226.346,245.917 204.961,247.110 203.881 C 248.299 202.805,263.971 202.712,265.111 203.775 M147.188 204.973 C 153.468 205.199,153.200 204.655,153.200 217.200 C 153.200 227.039,153.190 227.162,152.309 227.778 C 151.287 228.495,135.848 228.245,134.900 227.497 C 134.116 226.878,134.195 207.664,134.990 205.762 L 135.580 204.350 139.290 204.586 C 141.330 204.715,144.885 204.889,147.188 204.973 M126.167 208.257 C 126.545 209.242,126.218 209.304,125.402 208.402 C 124.788 207.724,124.772 207.600,125.295 207.600 C 125.636 207.600,126.028 207.896,126.167 208.257 M206.933 216.500 C 207.662 217.992,207.680 218.000,210.133 218.001 C 212.572 218.003,215.200 219.028,215.200 219.978 C 215.200 220.192,215.948 220.592,216.862 220.866 C 218.044 221.220,218.753 221.753,219.320 222.714 C 219.758 223.457,220.549 224.229,221.078 224.430 C 221.606 224.631,222.298 225.416,222.616 226.175 C 222.933 226.935,223.632 227.995,224.168 228.532 C 225.386 229.750,226.014 232.010,225.947 234.931 C 225.910 236.558,226.103 237.470,226.648 238.227 C 228.558 240.885,228.799 241.709,228.798 245.600 C 228.797 248.865,228.671 249.592,227.899 250.768 C 226.105 253.498,226.012 253.814,226.000 257.200 C 225.986 261.508,225.764 262.295,224.356 263.023 C 223.728 263.348,222.932 264.158,222.588 264.824 C 222.243 265.490,221.517 266.203,220.974 266.410 C 220.430 266.617,219.828 267.201,219.634 267.709 C 219.118 269.068,218.427 269.492,216.200 269.818 C 213.733 270.179,213.614 270.357,213.606 273.681 C 213.599 276.902,213.066 278.229,211.571 278.750 C 210.955 278.965,210.176 279.672,209.840 280.322 C 208.758 282.414,206.854 282.438,205.785 280.372 C 205.024 278.900,204.578 278.895,203.825 280.352 C 202.465 282.981,196.000 282.525,196.000 279.800 C 196.000 278.798,194.642 279.127,193.525 280.400 C 191.008 283.268,186.805 281.548,186.796 277.646 C 186.788 274.379,186.389 272.923,185.374 272.461 C 184.859 272.226,184.166 271.508,183.833 270.864 C 183.500 270.220,182.775 269.580,182.221 269.441 C 181.668 269.302,180.938 268.654,180.601 268.001 C 180.263 267.348,179.471 266.547,178.840 266.221 C 178.210 265.895,177.579 265.173,177.440 264.616 C 177.275 263.961,176.696 263.400,175.793 263.023 C 175.027 262.703,174.389 262.387,174.375 262.320 C 174.361 262.254,174.207 260.707,174.033 258.882 C 173.764 256.072,173.552 255.394,172.648 254.450 C 170.035 251.722,170.113 239.493,172.759 237.200 C 173.828 236.273,173.929 235.938,174.139 232.600 C 174.357 229.124,174.412 228.959,175.728 227.800 C 176.477 227.140,177.199 226.286,177.332 225.902 C 177.464 225.519,178.139 224.860,178.831 224.440 C 179.523 224.019,180.294 223.264,180.545 222.763 C 180.795 222.262,181.834 221.390,182.854 220.826 C 183.873 220.262,185.313 219.396,186.054 218.901 C 187.091 218.209,187.976 218.003,189.910 218.001 C 192.272 218.000,192.444 217.936,192.833 216.913 C 193.644 214.781,193.678 214.772,200.157 214.890 L 206.200 215.000 206.933 216.500 M152.590 234.789 C 153.969 236.312,153.267 251.600,151.819 251.600 C 151.697 251.600,150.925 251.240,150.104 250.800 C 147.924 249.632,142.308 249.641,141.300 250.815 C 140.915 251.263,139.925 252.283,139.100 253.081 C 137.778 254.359,137.600 254.758,137.600 256.443 C 137.600 258.848,136.329 260.114,135.133 258.900 C 134.051 257.801,133.934 235.977,135.004 234.795 C 136.108 233.576,151.487 233.570,152.590 234.789 M265.038 234.832 C 266.047 235.669,265.848 258.052,264.823 258.979 C 263.986 259.737,262.000 258.412,262.000 257.096 C 262.000 256.799,261.540 255.935,260.978 255.178 C 260.417 254.420,259.629 253.062,259.227 252.160 C 258.354 250.196,257.697 250.000,251.994 250.000 C 246.304 250.000,246.458 250.217,246.345 242.043 C 246.223 233.236,245.496 233.813,256.338 234.128 C 261.616 234.282,264.674 234.529,265.038 234.832 M183.600 241.957 C 182.361 242.301,182.072 243.839,182.030 250.309 L 182.000 254.818 183.651 256.609 C 185.825 258.967,188.740 259.251,189.796 257.207 C 190.136 256.550,190.929 255.747,191.559 255.421 C 193.858 254.232,193.755 245.458,191.427 244.173 C 191.001 243.939,190.461 243.399,190.227 242.973 C 189.461 241.586,186.546 241.139,183.600 241.957 M208.825 242.106 C 208.223 242.411,207.720 243.135,207.509 244.000 C 206.899 246.500,206.364 247.488,205.373 247.940 C 203.932 248.596,203.943 251.663,205.389 252.322 C 205.933 252.570,206.631 253.379,206.941 254.121 C 208.544 257.958,213.581 259.993,214.878 257.328 C 215.165 256.739,215.940 255.960,216.600 255.597 L 217.800 254.936 217.912 250.095 C 218.008 245.975,217.925 245.176,217.360 244.727 C 216.995 244.437,216.122 243.615,215.420 242.900 C 214.004 241.458,210.852 241.079,208.825 242.106 M150.098 256.289 C 150.484 256.638,150.800 257.176,150.800 257.485 C 150.800 257.793,151.343 258.541,152.006 259.147 C 153.406 260.425,154.000 262.175,154.000 265.017 C 154.000 267.588,154.443 268.000,157.210 268.000 C 159.139 268.000,159.740 268.199,161.428 269.400 C 162.924 270.464,163.800 270.800,165.073 270.800 C 167.487 270.800,168.776 271.411,169.253 272.781 C 169.702 274.068,170.736 274.601,172.003 274.199 C 173.629 273.683,176.969 274.742,178.356 276.213 C 179.076 276.976,179.916 277.600,180.223 277.600 C 180.530 277.600,181.101 278.095,181.491 278.700 C 182.462 280.205,186.045 283.797,186.888 284.110 C 187.966 284.510,188.228 286.285,187.353 287.252 C 186.042 288.700,180.208 288.218,178.252 286.500 C 176.977 285.380,176.476 285.200,174.635 285.200 C 172.441 285.200,171.915 284.889,171.006 283.057 C 170.649 282.339,170.129 282.167,167.790 281.995 C 164.852 281.778,163.873 281.407,162.634 280.037 C 162.066 279.410,161.396 279.200,159.964 279.200 C 157.306 279.200,156.038 278.627,155.541 277.202 L 155.122 276.000 149.975 276.000 L 144.828 276.000 143.596 277.204 C 142.327 278.445,141.322 278.399,140.517 277.064 C 140.343 276.775,139.480 276.192,138.600 275.769 C 135.992 274.515,135.724 268.786,138.245 268.153 C 138.786 268.017,139.495 267.390,139.821 266.760 C 140.147 266.129,140.950 265.336,141.607 264.996 C 142.790 264.385,142.800 264.350,142.800 260.963 C 142.800 257.284,143.159 256.165,144.526 255.583 C 145.729 255.071,149.244 255.516,150.098 256.289 M256.320 256.148 C 256.850 256.677,257.050 257.842,257.224 261.413 C 257.476 266.580,257.581 266.766,260.794 267.701 C 264.406 268.753,264.803 274.404,261.365 275.840 C 260.574 276.171,259.537 276.894,259.062 277.446 C 258.128 278.531,256.995 278.446,256.620 277.262 C 256.205 275.956,255.118 275.732,250.111 275.917 L 245.221 276.098 244.438 277.426 C 243.642 278.774,242.288 279.301,240.000 279.152 C 237.015 278.958,235.651 279.208,235.401 279.998 C 234.920 281.511,234.031 282.000,231.758 282.000 C 229.684 282.000,229.531 282.071,228.745 283.403 C 227.843 284.932,227.425 285.090,223.700 285.306 C 221.605 285.428,221.006 285.636,220.009 286.591 C 218.035 288.483,213.448 288.750,212.306 287.040 C 211.597 285.978,212.022 284.760,213.382 283.957 C 214.143 283.509,214.878 282.785,215.016 282.348 C 215.155 281.912,215.860 281.272,216.584 280.927 C 217.332 280.571,218.178 279.717,218.543 278.950 C 218.897 278.207,219.379 277.600,219.614 277.600 C 219.849 277.600,220.636 276.951,221.363 276.157 C 222.783 274.607,224.539 274.050,228.110 274.017 C 229.724 274.003,230.074 273.858,230.368 273.084 C 230.953 271.545,231.966 270.993,234.041 271.083 C 235.838 271.162,236.038 271.067,237.213 269.583 C 238.345 268.155,238.645 268.000,240.287 268.000 C 243.067 268.000,245.901 265.038,246.078 261.947 C 246.191 259.962,246.311 259.731,247.700 258.834 C 248.525 258.302,249.200 257.639,249.200 257.362 C 249.200 255.392,254.636 254.465,256.320 256.148 M197.794 257.610 C 197.654 257.836,197.571 258.691,197.609 259.510 C 197.726 262.049,197.631 262.410,196.591 263.373 C 195.783 264.122,195.701 264.353,196.180 264.537 C 196.509 264.663,197.098 265.449,197.490 266.283 C 198.291 267.990,200.933 268.686,201.952 267.458 C 202.993 266.203,202.354 260.682,201.099 260.082 C 200.493 259.792,199.723 259.025,199.388 258.378 C 198.757 257.157,198.230 256.904,197.794 257.610 M206.200 287.500 C 208.498 290.181,208.298 290.084,211.339 289.984 C 215.480 289.847,215.548 289.866,216.453 291.400 L 217.279 292.800 220.540 292.806 C 224.222 292.813,224.699 293.008,225.576 294.858 L 226.200 296.176 229.665 296.055 C 233.579 295.919,234.532 296.256,235.137 297.992 L 235.558 299.200 239.000 299.200 L 242.442 299.200 242.863 297.992 C 243.880 295.073,251.200 295.392,251.200 298.355 C 251.200 298.570,251.565 298.862,252.011 299.003 C 254.289 299.726,254.395 302.673,252.179 303.682 C 251.612 303.941,250.898 304.748,250.594 305.475 C 250.290 306.203,249.604 306.998,249.069 307.241 C 248.394 307.549,248.157 307.916,248.295 308.442 C 248.671 309.878,247.956 314.365,247.204 315.294 C 245.868 316.945,241.320 316.627,240.131 314.800 C 239.630 314.030,238.772 312.950,238.225 312.400 C 237.609 311.780,237.128 310.716,236.961 309.600 C 236.591 307.133,236.212 306.757,234.394 307.047 C 232.493 307.351,230.378 306.669,229.023 305.314 C 228.141 304.432,227.497 304.228,224.922 304.018 C 222.588 303.827,221.764 303.598,221.433 303.049 C 220.304 301.176,220.185 301.123,216.679 300.904 C 213.128 300.683,212.718 300.494,211.805 298.657 C 211.420 297.883,211.005 297.789,207.527 297.686 C 203.513 297.567,203.184 297.429,202.206 295.457 C 201.209 293.445,197.521 294.424,196.694 296.920 C 196.591 297.231,195.144 297.470,192.578 297.600 C 189.037 297.779,188.575 297.890,188.194 298.657 C 187.199 300.662,186.875 300.800,183.161 300.800 C 179.640 300.800,179.617 300.806,179.006 301.988 C 178.148 303.648,177.272 304.000,174.000 304.000 C 171.010 304.000,169.600 304.446,169.600 305.391 C 169.600 306.368,167.907 307.200,165.921 307.200 C 164.204 307.200,163.959 307.318,163.385 308.430 C 163.031 309.114,162.228 309.841,161.574 310.069 C 160.497 310.445,160.400 310.635,160.400 312.385 C 160.400 315.770,159.581 316.342,154.755 316.330 C 149.426 316.318,149.202 316.116,149.194 311.300 C 149.187 307.543,149.073 307.169,147.718 306.455 C 145.921 305.509,145.241 298.359,146.800 296.800 C 148.359 295.241,155.509 295.921,156.455 297.718 C 156.711 298.203,157.118 298.732,157.360 298.894 C 158.413 299.597,164.400 298.986,164.400 298.175 C 164.400 297.072,166.446 296.000,168.554 295.998 C 171.319 295.995,173.501 295.342,173.790 294.431 C 174.107 293.434,175.654 292.898,178.847 292.681 C 181.056 292.530,181.706 292.310,182.778 291.350 C 184.437 289.865,185.104 289.688,189.206 289.640 C 191.689 289.611,192.984 289.401,193.984 288.865 C 195.342 288.136,195.368 288.138,196.733 289.065 C 198.898 290.533,201.739 290.396,202.404 288.791 C 203.223 286.813,205.072 286.184,206.200 287.500 M168.198 314.802 C 167.402 315.682,166.966 315.588,167.338 314.617 C 167.468 314.278,167.878 314.000,168.249 314.000 C 168.865 314.000,168.860 314.070,168.198 314.802 " stroke="none" fill="#142d32" fill-rule="evenodd"></path><path id="path3" d="M219.239 132.153 C 218.883 132.582,218.925 132.762,219.423 132.953 C 220.352 133.310,220.400 133.282,220.400 132.400 C 220.400 131.470,219.895 131.363,219.239 132.153 M266.674 188.700 C 266.578 188.865,266.645 189.360,266.822 189.800 C 267.103 190.498,267.147 190.460,267.172 189.500 C 267.200 188.415,267.012 188.114,266.674 188.700 M193.589 216.754 C 192.441 218.182,192.151 218.322,190.009 218.477 C 188.276 218.602,187.321 218.918,186.286 219.707 C 185.521 220.291,184.189 221.051,183.327 221.396 C 182.436 221.753,181.455 222.537,181.056 223.214 C 180.669 223.868,179.848 224.665,179.233 224.983 C 178.617 225.302,177.889 226.102,177.616 226.762 C 177.343 227.421,176.703 228.234,176.194 228.567 C 175.200 229.218,174.985 229.954,174.600 234.026 C 174.416 235.982,174.107 236.938,173.393 237.769 C 171.103 240.434,170.783 250.529,172.902 253.307 C 174.056 254.820,174.774 257.264,174.790 259.731 C 174.800 261.327,175.519 262.128,184.882 270.983 C 186.949 272.938,186.982 273.006,187.259 275.907 C 187.736 280.899,189.670 281.957,193.531 279.337 C 195.296 278.139,195.370 278.149,196.453 279.700 C 198.343 282.405,201.030 282.486,203.304 279.906 L 204.809 278.200 206.104 279.700 C 207.681 281.525,207.819 281.533,209.408 279.900 C 210.104 279.185,211.151 278.277,211.736 277.881 C 212.679 277.244,212.800 276.903,212.802 274.881 C 212.806 270.732,213.319 269.689,215.513 269.373 C 217.243 269.123,217.718 268.775,221.238 265.180 L 225.076 261.259 225.339 257.130 C 225.562 253.625,225.783 252.651,226.801 250.694 C 228.193 248.017,228.506 243.088,227.405 241.200 C 225.976 238.751,225.487 237.197,225.239 234.316 C 225.052 232.139,224.731 230.903,224.149 230.116 C 223.695 229.502,222.998 228.370,222.600 227.601 C 221.518 225.509,217.614 221.782,215.932 221.236 C 215.125 220.974,214.238 220.486,213.961 220.153 C 213.087 219.100,211.300 218.400,209.487 218.400 C 207.923 218.400,207.595 218.228,206.448 216.800 L 205.162 215.200 200.000 215.200 L 194.838 215.200 193.589 216.754 M206.352 217.600 C 207.538 219.075,207.791 219.200,209.605 219.200 C 211.203 219.200,211.819 219.417,212.886 220.354 C 213.609 220.988,214.860 221.689,215.666 221.912 C 217.265 222.353,221.600 226.298,221.600 227.312 C 221.600 227.641,222.264 228.875,223.077 230.055 C 224.406 231.986,224.578 232.539,224.806 235.600 C 225.038 238.718,225.819 241.194,226.753 241.771 C 227.627 242.311,227.174 248.143,226.134 249.744 C 225.274 251.067,225.082 251.977,224.792 256.120 C 224.463 260.801,224.414 260.990,223.210 262.176 C 222.527 262.849,220.933 264.496,219.669 265.836 C 217.726 267.895,217.105 268.307,215.654 268.502 C 212.945 268.865,212.497 269.529,212.174 273.652 C 211.933 276.736,211.778 277.288,211.047 277.662 C 210.581 277.901,209.648 278.618,208.973 279.256 L 207.746 280.415 206.670 279.208 C 205.109 277.456,204.024 277.590,202.682 279.700 C 201.551 281.476,198.487 281.314,197.027 279.400 C 195.862 277.872,194.414 277.564,192.989 278.541 C 189.931 280.638,188.493 279.749,187.999 275.454 C 187.696 272.825,184.618 268.400,183.092 268.400 C 182.816 268.400,180.193 265.785,177.476 262.800 C 177.176 262.470,176.588 262.002,176.171 261.760 C 175.551 261.401,175.370 260.687,175.183 257.858 C 175.000 255.115,174.770 254.167,174.073 253.298 C 172.516 251.356,172.257 250.302,172.228 245.800 C 172.199 241.221,172.364 240.577,174.210 238.041 C 174.917 237.070,175.203 236.156,175.210 234.841 C 175.224 232.071,175.788 230.164,177.057 228.597 C 179.530 225.542,183.140 222.000,183.779 222.000 C 184.631 222.000,185.884 221.344,187.331 220.141 C 188.155 219.455,188.968 219.197,190.331 219.187 C 192.351 219.174,193.027 218.801,194.115 217.100 L 194.818 216.000 199.942 216.000 L 205.066 216.000 206.352 217.600 M136.000 236.153 C 136.000 236.989,137.567 237.221,144.900 237.472 L 151.600 237.702 151.600 236.651 L 151.600 235.600 143.800 235.600 C 137.425 235.600,136.000 235.701,136.000 236.153 M182.044 241.156 C 181.594 241.606,181.177 242.784,181.016 244.056 C 180.867 245.235,180.569 246.767,180.355 247.459 C 179.362 250.665,181.384 257.792,183.600 258.899 C 189.024 261.610,195.901 255.590,194.802 249.093 C 193.974 244.200,194.024 244.303,191.299 241.900 C 189.225 240.071,183.582 239.618,182.044 241.156 M207.940 240.851 C 206.895 241.235,206.315 242.252,205.804 244.600 C 205.660 245.260,205.044 246.259,204.435 246.819 C 202.453 248.643,202.461 251.913,204.452 253.583 C 204.857 253.923,205.602 254.996,206.109 255.968 C 207.470 258.579,208.727 259.348,211.913 259.520 L 214.600 259.665 216.134 258.033 C 216.977 257.135,217.803 256.400,217.970 256.400 C 219.146 256.400,219.786 246.245,218.733 244.274 C 216.939 240.913,212.025 239.355,207.940 240.851 M188.476 241.162 C 196.503 243.027,195.404 258.530,187.220 258.886 C 182.311 259.100,180.120 253.908,181.530 245.400 C 182.147 241.674,182.237 241.545,184.492 241.178 C 186.914 240.784,186.850 240.784,188.476 241.162 M214.233 241.213 C 214.830 241.439,216.011 242.340,216.859 243.213 L 218.400 244.801 218.400 249.854 L 218.400 254.907 216.485 256.792 C 213.103 260.121,209.035 259.553,206.778 255.435 C 206.285 254.536,205.383 253.328,204.772 252.751 C 203.359 251.416,203.519 248.804,205.114 247.175 C 205.666 246.611,206.410 245.178,206.768 243.991 C 207.587 241.274,211.027 239.994,214.233 241.213 M144.166 256.837 C 143.568 257.498,143.390 258.386,143.317 261.059 L 143.225 264.445 140.913 266.613 C 139.641 267.806,138.285 269.056,137.900 269.391 C 136.140 270.922,137.578 275.600,139.810 275.600 C 140.086 275.600,140.729 275.938,141.239 276.351 C 142.149 277.088,142.186 277.086,143.316 276.251 C 144.318 275.509,145.122 275.382,149.569 275.261 L 154.672 275.123 155.969 276.761 C 157.140 278.239,157.442 278.400,159.046 278.400 C 161.050 278.400,162.678 278.990,164.956 280.541 C 166.113 281.328,167.011 281.600,168.460 281.600 C 169.971 281.600,170.564 281.793,171.104 282.460 C 172.863 284.633,173.163 284.800,175.322 284.800 C 176.960 284.800,177.755 285.029,178.806 285.804 C 180.591 287.121,182.516 287.624,184.655 287.330 C 187.639 286.921,187.646 286.328,184.701 283.426 C 183.270 282.016,181.701 280.303,181.215 279.622 C 180.730 278.940,179.673 278.019,178.866 277.575 C 178.060 277.131,176.788 276.325,176.041 275.784 C 174.971 275.009,174.190 274.800,172.374 274.800 C 170.161 274.800,170.016 274.735,168.800 273.200 C 167.662 271.763,167.351 271.600,165.754 271.600 C 163.737 271.600,161.428 270.753,160.137 269.541 C 159.571 269.009,158.443 268.624,156.931 268.445 C 153.832 268.080,153.749 268.002,153.429 265.172 C 153.086 262.141,152.738 261.206,151.430 259.795 C 150.864 259.183,150.400 258.473,150.400 258.217 C 150.400 256.147,145.727 255.113,144.166 256.837 M197.216 256.875 C 196.639 257.495,196.400 258.292,196.400 259.601 C 196.400 261.134,196.195 261.647,195.200 262.600 C 194.540 263.232,194.000 263.980,194.000 264.261 C 194.000 264.542,194.540 265.325,195.200 266.000 C 195.860 266.675,196.400 267.397,196.400 267.604 C 196.400 267.810,196.931 268.254,197.580 268.590 C 203.677 271.743,206.358 263.039,200.895 257.827 C 198.732 255.762,198.346 255.663,197.216 256.875 M248.700 258.442 C 246.556 260.696,246.400 260.991,246.400 262.778 C 246.400 265.418,243.808 268.158,240.897 268.595 C 239.566 268.794,238.568 269.278,237.505 270.239 C 236.249 271.373,235.689 271.600,234.153 271.600 C 232.555 271.600,232.136 271.788,231.023 273.002 C 229.879 274.252,229.426 274.444,226.853 274.767 C 223.292 275.214,223.196 275.277,217.467 280.959 C 212.442 285.942,212.438 285.948,213.531 286.938 C 214.793 288.079,217.344 287.800,219.009 286.339 C 220.277 285.225,220.826 285.044,223.703 284.791 C 226.815 284.517,227.016 284.439,228.181 283.052 C 229.275 281.749,229.599 281.600,231.346 281.600 C 233.070 281.600,233.443 281.436,234.615 280.156 C 235.882 278.772,236.079 278.701,239.365 278.446 C 242.653 278.190,242.839 278.123,243.951 276.790 L 245.110 275.400 250.055 275.270 C 254.740 275.146,255.075 275.190,256.430 276.110 C 257.832 277.062,257.878 277.066,258.774 276.340 C 259.277 275.933,259.914 275.600,260.190 275.600 C 264.027 275.600,263.710 269.380,259.810 268.151 C 257.112 267.300,256.400 265.723,256.400 260.591 C 256.400 254.962,252.930 253.993,248.700 258.442 M255.269 257.062 C 255.881 257.617,256.000 258.353,256.000 261.602 C 256.000 267.339,256.777 268.800,259.826 268.800 C 262.795 268.800,263.400 274.748,260.438 274.814 C 260.087 274.822,259.359 275.073,258.820 275.371 C 258.009 275.820,257.699 275.823,257.020 275.389 C 255.984 274.727,255.645 274.698,249.680 274.754 L 244.759 274.800 243.480 276.164 C 242.280 277.443,241.988 277.547,238.823 277.813 C 235.644 278.080,235.376 278.176,234.249 279.448 C 233.225 280.606,232.791 280.802,231.226 280.813 C 229.240 280.827,228.571 281.203,227.465 282.931 C 226.749 284.049,226.705 284.060,223.228 283.934 C 219.651 283.804,218.400 284.193,218.400 285.435 C 218.400 286.236,217.176 286.740,215.599 286.587 C 214.829 286.512,214.065 286.440,213.900 286.426 C 213.194 286.365,213.692 285.573,214.794 285.003 C 215.451 284.663,216.094 283.966,216.223 283.453 C 216.357 282.916,216.997 282.282,217.728 281.960 C 218.428 281.652,219.225 280.926,219.500 280.346 C 219.774 279.767,220.494 278.973,221.100 278.582 C 221.705 278.191,222.583 277.464,223.051 276.968 C 224.040 275.918,226.301 275.205,228.653 275.202 C 230.070 275.200,230.457 275.001,231.373 273.800 C 232.279 272.611,232.682 272.400,234.040 272.400 C 235.869 272.400,237.793 271.535,238.373 270.451 C 238.634 269.963,239.578 269.551,241.141 269.244 C 244.580 268.567,247.200 265.795,247.200 262.833 C 247.200 261.483,247.408 260.664,247.838 260.316 C 248.560 259.732,249.993 258.279,250.955 257.155 C 251.770 256.202,254.259 256.148,255.269 257.062 M149.739 258.600 C 150.146 259.480,150.797 260.560,151.185 261.000 C 152.123 262.065,152.800 264.174,152.800 266.031 C 152.800 268.037,154.209 269.200,156.640 269.200 C 157.989 269.200,158.670 269.462,159.720 270.383 C 161.121 271.613,163.533 272.373,166.091 272.390 C 167.275 272.398,167.725 272.626,168.282 273.500 C 169.252 275.025,169.561 275.187,171.516 275.194 C 173.167 275.200,176.072 276.346,176.600 277.200 C 176.740 277.426,177.553 277.968,178.407 278.404 C 179.365 278.892,180.213 279.728,180.619 280.583 C 180.981 281.346,181.622 282.080,182.043 282.214 C 182.464 282.347,183.088 282.997,183.430 283.658 C 183.772 284.319,184.580 285.044,185.225 285.269 C 186.943 285.867,186.268 286.400,183.792 286.400 C 182.137 286.400,181.454 286.210,180.876 285.589 C 179.924 284.567,177.973 284.000,175.411 284.000 C 173.596 284.000,173.287 283.857,171.955 282.400 C 170.616 280.935,170.321 280.800,168.460 280.800 C 166.743 280.800,166.201 280.601,164.966 279.517 C 163.670 278.378,163.162 278.209,160.459 278.017 C 157.559 277.810,157.374 277.738,156.606 276.513 C 156.163 275.805,155.490 275.119,155.110 274.989 C 153.885 274.569,144.636 274.710,143.462 275.166 C 142.300 275.618,139.637 275.143,138.500 274.281 C 136.921 273.084,137.891 270.428,141.000 267.438 L 144.000 264.553 144.000 261.156 C 144.000 257.090,144.258 256.722,146.996 256.882 C 148.901 256.994,149.034 257.078,149.739 258.600 M200.755 258.720 L 202.800 260.641 202.800 264.040 C 202.800 268.025,202.554 268.400,199.939 268.400 C 198.352 268.400,197.918 268.230,197.319 267.375 C 196.923 266.811,196.193 265.837,195.695 265.211 L 194.790 264.072 195.995 262.867 C 197.006 261.856,197.200 261.347,197.200 259.711 C 197.200 257.952,197.689 256.800,198.435 256.800 C 198.586 256.800,199.630 257.664,200.755 258.720 M203.154 288.797 C 201.696 290.612,199.359 290.978,196.598 289.825 C 195.626 289.419,194.856 289.355,193.976 289.607 C 193.292 289.803,191.172 290.076,189.266 290.213 C 185.713 290.468,183.600 291.011,183.600 291.669 C 183.600 292.305,181.124 293.107,178.208 293.417 C 175.834 293.669,175.251 293.889,174.316 294.890 C 173.326 295.950,172.872 296.098,169.739 296.384 C 166.434 296.685,166.205 296.768,165.159 298.050 C 163.461 300.130,158.066 300.336,155.866 298.404 C 153.009 295.896,147.824 295.792,146.718 298.221 C 145.942 299.924,146.845 304.090,148.365 305.822 C 149.538 307.157,149.600 307.399,149.600 310.632 C 149.600 315.330,150.235 316.000,154.693 316.000 C 158.747 316.000,159.600 315.467,159.600 312.934 C 159.600 310.826,163.074 306.800,164.894 306.800 C 166.666 306.800,168.419 306.039,169.439 304.827 C 170.313 303.788,170.757 303.597,172.336 303.583 C 175.708 303.551,177.476 303.009,178.613 301.658 C 179.610 300.472,179.829 300.400,182.417 300.400 C 185.564 300.400,186.930 299.911,187.542 298.567 C 188.022 297.515,188.571 297.348,192.575 297.034 C 195.072 296.838,195.494 296.675,196.792 295.408 C 198.740 293.506,201.583 293.357,202.663 295.100 C 203.833 296.989,204.357 297.200,207.880 297.200 C 211.352 297.200,211.390 297.217,212.950 299.386 C 213.405 300.018,214.185 300.224,216.939 300.438 C 220.212 300.693,220.424 300.769,221.729 302.152 C 222.949 303.446,223.310 303.600,225.121 303.600 C 227.514 303.600,228.883 304.062,230.486 305.411 C 231.411 306.189,232.111 306.400,233.769 306.400 C 236.075 306.400,236.934 306.983,237.404 308.869 C 237.551 309.456,238.274 310.896,239.011 312.069 C 241.530 316.073,241.444 316.000,243.637 316.000 C 247.028 316.000,247.927 314.521,247.617 309.457 C 247.518 307.828,247.344 308.077,251.588 303.761 C 253.651 301.664,253.623 301.383,251.100 298.935 C 248.048 295.975,245.758 295.688,243.644 298.001 L 242.182 299.600 239.000 299.600 C 235.819 299.600,235.817 299.599,234.409 298.061 L 233.000 296.521 229.687 296.602 L 226.375 296.683 225.187 295.184 C 224.016 293.705,223.951 293.681,220.416 293.401 C 216.946 293.127,216.799 293.075,215.796 291.759 L 214.759 290.400 211.207 290.400 C 207.716 290.400,207.640 290.379,206.799 289.199 C 205.272 287.054,204.613 286.981,203.154 288.797 M206.101 289.761 C 206.861 291.355,208.191 291.726,211.815 291.354 C 214.276 291.102,214.298 291.109,215.609 292.550 C 216.924 293.995,216.941 294.000,220.255 294.000 C 223.452 294.000,223.608 294.043,224.263 295.100 C 225.443 297.005,225.944 297.200,229.667 297.200 C 233.069 297.200,233.203 297.235,233.863 298.300 C 235.028 300.182,235.562 300.400,239.000 300.400 C 242.438 300.400,242.972 300.182,244.137 298.300 C 245.345 296.349,247.814 296.705,250.359 299.198 C 252.760 301.549,252.732 301.419,251.195 302.978 C 246.682 307.558,246.800 307.350,246.800 310.684 C 246.800 314.518,246.307 315.200,243.533 315.200 L 241.590 315.200 240.571 313.100 C 237.422 306.613,237.123 306.208,235.400 306.093 C 232.819 305.921,232.095 305.659,230.610 304.355 C 229.379 303.275,228.806 303.087,226.003 302.846 C 222.987 302.587,222.734 302.491,221.653 301.196 C 220.550 299.875,220.381 299.815,217.353 299.674 C 214.275 299.531,214.165 299.490,212.746 297.964 L 211.292 296.400 207.873 296.400 L 204.453 296.400 203.314 294.700 C 201.572 292.098,197.567 292.156,196.199 294.803 C 195.564 296.030,194.337 296.400,190.904 296.400 C 188.852 296.400,188.611 296.505,187.245 298.000 L 185.782 299.600 182.645 299.600 L 179.508 299.600 178.045 301.200 L 176.582 302.800 173.325 302.800 L 170.067 302.800 168.800 304.400 C 167.631 305.875,167.381 306.000,165.578 306.000 C 163.868 306.000,163.513 306.151,162.730 307.209 C 162.239 307.873,161.243 308.767,160.518 309.195 C 159.324 309.900,159.200 310.150,159.200 311.855 C 159.200 314.729,158.555 315.200,154.618 315.200 C 150.496 315.200,150.400 315.100,150.400 310.779 C 150.400 307.721,150.284 307.160,149.403 305.959 C 144.078 298.698,148.725 294.110,156.000 299.448 C 158.366 301.184,164.045 300.731,165.695 298.674 C 166.807 297.288,167.013 297.200,169.141 297.200 C 172.193 297.200,173.989 296.627,175.032 295.319 C 175.821 294.330,176.227 294.204,179.437 293.954 C 182.533 293.713,183.073 293.556,183.786 292.691 C 184.234 292.147,184.970 291.512,185.422 291.279 C 186.572 290.686,195.925 290.582,197.326 291.147 C 200.023 292.233,203.600 291.283,203.600 289.480 C 203.600 287.702,205.205 287.882,206.101 289.761 " stroke="none" fill="#788488" fill-rule="evenodd"></path><path id="path4" d="M194.115 217.100 C 193.027 218.801,192.351 219.174,190.331 219.187 C 188.968 219.197,188.155 219.455,187.331 220.141 C 185.884 221.344,184.631 222.000,183.779 222.000 C 183.140 222.000,179.530 225.542,177.057 228.597 C 175.788 230.164,175.224 232.071,175.210 234.841 C 175.203 236.156,174.917 237.070,174.210 238.041 C 172.364 240.577,172.199 241.221,172.228 245.800 C 172.257 250.302,172.516 251.356,174.073 253.298 C 174.770 254.167,175.000 255.115,175.183 257.858 C 175.370 260.687,175.551 261.401,176.171 261.760 C 176.588 262.002,177.176 262.470,177.476 262.800 C 180.193 265.785,182.816 268.400,183.092 268.400 C 184.618 268.400,187.696 272.825,187.999 275.454 C 188.493 279.749,189.931 280.638,192.989 278.541 C 194.414 277.564,195.862 277.872,197.027 279.400 C 198.487 281.314,201.551 281.476,202.682 279.700 C 204.024 277.590,205.109 277.456,206.670 279.208 L 207.746 280.415 208.973 279.256 C 209.648 278.618,210.581 277.901,211.047 277.662 C 211.778 277.288,211.933 276.736,212.174 273.652 C 212.497 269.529,212.945 268.865,215.654 268.502 C 217.105 268.307,217.726 267.895,219.669 265.836 C 220.933 264.496,222.527 262.849,223.210 262.176 C 224.414 260.990,224.463 260.801,224.792 256.120 C 225.082 251.977,225.274 251.067,226.134 249.744 C 227.174 248.143,227.627 242.311,226.753 241.771 C 225.819 241.194,225.038 238.718,224.806 235.600 C 224.578 232.539,224.406 231.986,223.077 230.055 C 222.264 228.875,221.600 227.641,221.600 227.312 C 221.600 226.298,217.265 222.353,215.666 221.912 C 214.860 221.689,213.609 220.988,212.886 220.354 C 211.819 219.417,211.203 219.200,209.605 219.200 C 207.791 219.200,207.538 219.075,206.352 217.600 L 205.066 216.000 199.942 216.000 L 194.818 216.000 194.115 217.100 M205.108 216.900 C 205.331 217.175,205.580 217.755,205.660 218.190 C 205.861 219.271,207.438 219.987,209.636 219.994 C 211.207 219.999,211.538 220.145,211.931 221.008 C 212.457 222.162,213.842 222.800,215.823 222.800 C 217.011 222.800,217.287 222.997,217.897 224.284 C 218.348 225.235,218.958 225.852,219.599 226.002 C 220.446 226.200,220.649 226.553,220.930 228.321 C 221.202 230.031,221.509 230.595,222.631 231.451 L 224.000 232.495 224.000 236.060 C 224.000 238.325,224.219 240.150,224.600 241.062 C 224.946 241.890,225.200 243.725,225.200 245.400 C 225.200 247.075,224.946 248.910,224.600 249.738 C 224.200 250.695,223.998 252.547,223.995 255.287 C 223.988 260.323,223.859 260.837,222.392 261.678 C 221.752 262.046,221.120 262.781,220.986 263.313 C 220.844 263.881,220.223 264.511,219.483 264.840 C 218.706 265.185,218.134 265.784,217.994 266.400 C 217.789 267.301,217.518 267.424,215.262 267.641 C 211.954 267.959,211.835 268.130,211.600 272.867 L 211.400 276.898 210.010 277.349 C 209.224 277.604,208.402 278.234,208.116 278.800 C 207.802 279.424,207.610 279.560,207.606 279.162 C 207.585 276.872,203.420 276.496,202.400 278.691 C 201.854 279.866,201.638 279.983,200.000 279.983 C 198.362 279.983,198.146 279.866,197.600 278.691 L 197.000 277.400 192.953 277.523 C 188.334 277.663,188.426 277.738,188.395 273.800 C 188.378 271.596,185.766 268.358,183.558 267.804 C 182.941 267.649,182.386 267.099,182.110 266.366 C 181.834 265.636,181.221 265.026,180.515 264.780 C 179.804 264.532,179.196 263.924,178.915 263.180 C 178.629 262.422,178.025 261.828,177.275 261.566 L 176.089 261.153 175.933 256.933 L 175.777 252.713 174.388 251.474 L 173.000 250.235 172.866 245.965 L 172.732 241.695 174.140 240.286 C 175.604 238.822,175.821 238.112,176.137 233.758 C 176.285 231.710,176.508 231.117,177.520 230.082 C 178.183 229.404,178.850 228.282,179.002 227.590 C 179.202 226.679,179.603 226.218,180.452 225.922 C 181.210 225.658,181.826 225.032,182.192 224.156 C 182.688 222.971,182.940 222.800,184.199 222.800 C 186.016 222.800,187.834 221.878,188.112 220.816 C 188.289 220.137,188.652 219.999,190.263 219.994 C 192.554 219.987,194.136 219.287,194.340 218.190 C 194.643 216.552,195.124 216.400,200.000 216.400 C 203.278 216.400,204.825 216.551,205.108 216.900 M181.335 240.191 C 180.646 240.673,180.462 241.294,180.334 243.571 C 180.210 245.763,179.986 246.564,179.288 247.306 C 178.203 248.461,178.161 249.766,179.150 251.611 C 179.562 252.380,180.031 254.144,180.192 255.532 C 180.649 259.465,181.411 260.106,185.883 260.320 C 189.884 260.511,191.048 260.146,191.442 258.574 C 191.601 257.941,192.183 257.367,193.023 257.016 C 194.053 256.586,194.448 256.107,194.775 254.894 C 195.007 254.032,195.557 253.001,195.998 252.602 C 197.201 251.513,197.098 248.669,195.800 247.127 C 195.250 246.473,194.800 245.581,194.800 245.143 C 194.800 243.725,192.685 241.009,190.790 239.995 C 189.582 239.348,182.323 239.499,181.335 240.191 M206.926 240.003 C 205.789 240.461,205.200 241.605,205.200 243.358 C 205.200 244.134,204.975 244.956,204.700 245.184 C 204.425 245.413,203.777 245.922,203.260 246.316 C 201.415 247.721,201.582 253.146,203.501 254.152 C 204.218 254.527,204.779 255.340,205.211 256.632 C 206.161 259.472,207.332 260.170,211.436 260.341 C 214.970 260.489,216.800 259.895,216.800 258.601 C 216.800 258.282,217.348 257.737,218.017 257.391 C 219.717 256.512,219.876 255.764,219.747 249.265 C 219.618 242.792,219.240 241.647,216.806 240.345 C 215.289 239.534,208.660 239.304,206.926 240.003 M191.299 241.900 C 194.024 244.303,193.974 244.200,194.802 249.093 C 195.901 255.590,189.024 261.610,183.600 258.899 C 181.384 257.792,179.362 250.665,180.355 247.459 C 180.569 246.767,180.867 245.235,181.016 244.056 C 181.420 240.859,182.072 240.400,186.199 240.400 C 189.557 240.400,189.618 240.418,191.299 241.900 M215.163 240.780 C 216.228 241.350,218.205 243.284,218.733 244.274 C 219.786 246.245,219.146 256.400,217.970 256.400 C 217.803 256.400,216.977 257.135,216.134 258.033 L 214.600 259.665 211.913 259.520 C 208.727 259.348,207.470 258.579,206.109 255.968 C 205.602 254.996,204.857 253.923,204.452 253.583 C 202.461 251.913,202.453 248.643,204.435 246.819 C 205.044 246.259,205.660 245.260,205.804 244.600 C 206.315 242.252,206.895 241.235,207.940 240.851 C 209.328 240.343,214.255 240.294,215.163 240.780 M196.577 256.025 C 196.011 256.651,195.852 257.373,195.921 259.012 C 196.008 261.085,195.958 261.201,194.706 261.843 C 192.290 263.080,192.120 264.670,194.200 266.574 C 194.970 267.280,195.600 268.078,195.600 268.349 C 195.600 269.925,202.061 270.511,203.506 269.065 C 205.256 267.316,204.488 259.087,202.493 258.205 C 202.002 257.988,201.600 257.665,201.600 257.487 C 201.600 255.680,197.872 254.595,196.577 256.025 M200.895 257.827 C 205.171 261.906,204.724 269.200,200.198 269.200 C 198.683 269.200,196.400 268.241,196.400 267.604 C 196.400 267.397,195.860 266.675,195.200 266.000 C 194.540 265.325,194.000 264.542,194.000 264.261 C 194.000 263.980,194.540 263.232,195.200 262.600 C 196.195 261.647,196.400 261.134,196.400 259.601 C 196.400 255.873,198.132 255.190,200.895 257.827 M250.955 257.155 C 249.993 258.279,248.560 259.732,247.838 260.316 C 247.408 260.664,247.200 261.483,247.200 262.833 C 247.200 265.795,244.580 268.567,241.141 269.244 C 239.578 269.551,238.634 269.963,238.373 270.451 C 237.793 271.535,235.869 272.400,234.040 272.400 C 232.682 272.400,232.279 272.611,231.373 273.800 C 230.457 275.001,230.070 275.200,228.653 275.202 C 226.301 275.205,224.040 275.918,223.051 276.968 C 222.583 277.464,221.705 278.191,221.100 278.582 C 220.494 278.973,219.774 279.767,219.500 280.346 C 219.225 280.926,218.428 281.652,217.728 281.960 C 216.997 282.282,216.357 282.916,216.223 283.453 C 216.094 283.966,215.451 284.663,214.794 285.003 C 213.692 285.573,213.194 286.365,213.900 286.426 C 214.065 286.440,214.829 286.512,215.599 286.587 C 217.176 286.740,218.400 286.236,218.400 285.435 C 218.400 284.193,219.651 283.804,223.228 283.934 C 226.705 284.060,226.749 284.049,227.465 282.931 C 228.571 281.203,229.240 280.827,231.226 280.813 C 232.791 280.802,233.225 280.606,234.249 279.448 C 235.376 278.176,235.644 278.080,238.823 277.813 C 241.988 277.547,242.280 277.443,243.480 276.164 L 244.759 274.800 249.680 274.754 C 255.645 274.698,255.984 274.727,257.020 275.389 C 257.699 275.823,258.009 275.820,258.820 275.371 C 259.359 275.073,260.087 274.822,260.438 274.814 C 263.400 274.748,262.795 268.800,259.826 268.800 C 256.777 268.800,256.000 267.339,256.000 261.602 C 256.000 258.353,255.881 257.617,255.269 257.062 C 254.259 256.148,251.770 256.202,250.955 257.155 M144.498 257.262 C 144.179 257.581,144.000 258.982,144.000 261.156 L 144.000 264.553 141.000 267.438 C 137.891 270.428,136.921 273.084,138.500 274.281 C 139.637 275.143,142.300 275.618,143.462 275.166 C 144.636 274.710,153.885 274.569,155.110 274.989 C 155.490 275.119,156.163 275.805,156.606 276.513 C 157.374 277.738,157.559 277.810,160.459 278.017 C 163.162 278.209,163.670 278.378,164.966 279.517 C 166.201 280.601,166.743 280.800,168.460 280.800 C 170.321 280.800,170.616 280.935,171.955 282.400 C 173.287 283.857,173.596 284.000,175.411 284.000 C 177.973 284.000,179.924 284.567,180.876 285.589 C 181.454 286.210,182.137 286.400,183.792 286.400 C 186.268 286.400,186.943 285.867,185.225 285.269 C 184.580 285.044,183.772 284.319,183.430 283.658 C 183.088 282.997,182.464 282.347,182.043 282.214 C 181.622 282.080,180.981 281.346,180.619 280.583 C 180.213 279.728,179.365 278.892,178.407 278.404 C 177.553 277.968,176.740 277.426,176.600 277.200 C 176.072 276.346,173.167 275.200,171.516 275.194 C 169.561 275.187,169.252 275.025,168.282 273.500 C 167.725 272.626,167.275 272.398,166.091 272.390 C 163.533 272.373,161.121 271.613,159.720 270.383 C 158.670 269.462,157.989 269.200,156.640 269.200 C 154.209 269.200,152.800 268.037,152.800 266.031 C 152.800 264.174,152.123 262.065,151.185 261.000 C 150.797 260.560,150.146 259.480,149.739 258.600 C 148.935 256.865,145.716 256.044,144.498 257.262 M148.250 257.600 C 148.553 257.600,148.801 257.825,148.802 258.100 C 148.808 259.495,149.772 261.748,150.821 262.821 C 151.799 263.822,152.000 264.359,152.000 265.969 C 152.000 268.833,152.858 269.695,155.929 269.917 C 157.894 270.060,158.424 270.245,158.618 270.858 C 159.029 272.151,160.456 272.707,164.100 272.995 C 166.908 273.217,167.600 273.397,167.600 273.904 C 167.600 275.271,168.835 276.000,171.162 276.006 C 173.579 276.013,174.118 276.220,174.516 277.299 C 174.658 277.683,175.598 278.398,176.606 278.888 C 178.375 279.747,178.433 279.833,178.319 281.389 L 178.200 283.000 175.600 283.000 C 173.234 283.000,172.989 282.922,172.876 282.129 C 172.683 280.777,171.823 280.326,169.004 280.099 C 167.572 279.985,166.400 279.727,166.400 279.527 C 166.400 278.066,164.409 277.200,161.051 277.200 L 157.666 277.200 156.933 275.700 L 156.200 274.200 147.660 274.140 C 142.963 274.107,138.985 273.927,138.820 273.740 C 138.025 272.840,138.863 270.056,140.055 269.641 C 140.817 269.375,141.380 268.803,141.655 268.015 C 141.888 267.347,142.331 266.800,142.639 266.800 C 144.203 266.800,144.800 265.327,144.800 261.467 C 144.800 257.299,144.910 257.042,146.547 257.369 C 147.181 257.496,147.947 257.600,148.250 257.600 M255.200 262.660 C 255.443 269.050,255.696 269.500,259.145 269.681 L 261.400 269.800 261.526 271.554 C 261.711 274.142,261.753 274.130,252.519 274.057 C 243.720 273.987,243.474 274.028,242.857 275.651 C 242.419 276.802,241.026 277.188,237.274 277.196 C 234.720 277.201,233.777 277.642,233.438 278.989 C 233.215 279.879,232.974 280.000,231.418 280.000 C 228.910 280.000,227.603 280.608,227.070 282.021 C 226.628 283.192,226.535 283.230,224.422 283.117 L 222.233 283.000 221.910 281.442 C 221.628 280.077,221.701 279.806,222.494 279.259 C 222.992 278.916,223.939 278.101,224.599 277.449 C 225.599 276.461,226.228 276.224,228.399 276.022 C 231.330 275.750,232.000 275.458,232.000 274.456 C 232.000 273.232,232.888 272.800,235.402 272.800 C 237.649 272.800,237.947 272.693,239.151 271.450 C 240.122 270.449,240.930 270.036,242.282 269.851 C 246.117 269.325,248.000 267.076,248.000 263.019 C 248.000 260.862,248.055 260.739,249.213 260.336 C 250.017 260.055,250.620 259.448,251.002 258.533 C 251.547 257.229,251.673 257.160,253.289 257.276 L 255.000 257.400 255.200 262.660 M204.049 288.511 C 203.802 288.758,203.600 289.194,203.600 289.480 C 203.600 291.283,200.023 292.233,197.326 291.147 C 195.925 290.582,186.572 290.686,185.422 291.279 C 184.970 291.512,184.234 292.147,183.786 292.691 C 183.073 293.556,182.533 293.713,179.437 293.954 C 176.227 294.204,175.821 294.330,175.032 295.319 C 173.989 296.627,172.193 297.200,169.141 297.200 C 167.013 297.200,166.807 297.288,165.695 298.674 C 164.045 300.731,158.366 301.184,156.000 299.448 C 148.725 294.110,144.078 298.698,149.403 305.959 C 150.284 307.160,150.400 307.721,150.400 310.779 C 150.400 315.100,150.496 315.200,154.618 315.200 C 158.555 315.200,159.200 314.729,159.200 311.855 C 159.200 310.150,159.324 309.900,160.518 309.195 C 161.243 308.767,162.239 307.873,162.730 307.209 C 163.513 306.151,163.868 306.000,165.578 306.000 C 167.381 306.000,167.631 305.875,168.800 304.400 L 170.067 302.800 173.325 302.800 L 176.582 302.800 178.045 301.200 L 179.508 299.600 182.645 299.600 L 185.782 299.600 187.245 298.000 C 188.611 296.505,188.852 296.400,190.904 296.400 C 194.337 296.400,195.564 296.030,196.199 294.803 C 197.567 292.156,201.572 292.098,203.314 294.700 L 204.453 296.400 207.873 296.400 L 211.292 296.400 212.746 297.964 C 214.165 299.490,214.275 299.531,217.353 299.674 C 220.381 299.815,220.550 299.875,221.653 301.196 C 222.734 302.491,222.987 302.587,226.003 302.846 C 228.806 303.087,229.379 303.275,230.610 304.355 C 232.095 305.659,232.819 305.921,235.400 306.093 C 237.123 306.208,237.422 306.613,240.571 313.100 L 241.590 315.200 243.533 315.200 C 246.307 315.200,246.800 314.518,246.800 310.684 C 246.800 307.350,246.682 307.558,251.195 302.978 C 252.732 301.419,252.760 301.549,250.359 299.198 C 247.814 296.705,245.345 296.349,244.137 298.300 C 242.972 300.182,242.438 300.400,239.000 300.400 C 235.562 300.400,235.028 300.182,233.863 298.300 C 233.203 297.235,233.069 297.200,229.667 297.200 C 225.944 297.200,225.443 297.005,224.263 295.100 C 223.608 294.043,223.452 294.000,220.255 294.000 C 216.941 294.000,216.924 293.995,215.609 292.550 C 214.298 291.109,214.276 291.102,211.815 291.354 C 208.191 291.726,206.861 291.355,206.101 289.761 C 205.387 288.265,204.709 287.851,204.049 288.511 M195.508 291.842 C 196.639 292.068,196.674 292.128,196.058 292.773 C 195.696 293.152,194.996 293.944,194.503 294.531 C 193.707 295.478,193.321 295.601,191.103 295.606 C 188.162 295.613,186.724 296.224,186.401 297.603 C 186.176 298.561,186.018 298.608,182.345 298.800 C 178.300 299.012,177.445 299.368,177.032 301.016 C 176.793 301.968,176.669 302.000,173.281 302.000 C 169.428 302.000,168.271 302.466,167.838 304.191 C 167.607 305.110,167.397 305.200,165.481 305.200 C 163.130 305.200,161.723 305.940,161.527 307.280 C 161.440 307.881,160.997 308.257,160.105 308.486 C 158.706 308.847,158.486 309.327,158.305 312.400 L 158.200 314.200 154.757 314.315 L 151.315 314.429 151.061 312.315 C 150.921 311.152,150.805 309.153,150.803 307.874 C 150.800 305.327,150.382 304.218,148.969 303.000 C 148.041 302.201,147.496 299.139,148.105 298.153 C 148.588 297.371,152.114 298.146,153.249 299.283 C 155.996 302.035,165.748 301.971,166.399 299.197 C 166.624 298.240,166.786 298.192,170.417 297.995 C 174.629 297.768,174.948 297.648,175.813 295.975 C 176.408 294.825,176.488 294.800,179.591 294.800 C 183.314 294.800,184.486 294.367,185.089 292.771 L 185.531 291.600 189.915 291.600 C 192.327 291.600,194.844 291.709,195.508 291.842 M214.735 293.186 C 215.225 294.590,215.799 294.764,220.396 294.900 C 223.434 294.989,223.806 295.084,223.937 295.800 C 224.277 297.666,225.084 298.000,229.254 298.000 C 233.123 298.000,233.189 298.016,233.438 299.009 C 234.240 302.206,243.760 302.206,244.562 299.009 C 245.004 297.247,248.243 297.526,249.023 299.393 C 249.397 300.288,249.962 300.876,250.602 301.036 C 251.910 301.364,251.863 301.725,250.443 302.261 C 249.661 302.556,249.201 303.072,249.026 303.849 C 248.852 304.618,248.340 305.199,247.483 305.600 C 246.211 306.195,246.199 306.227,246.099 309.400 C 245.942 314.400,245.910 314.465,243.696 314.321 L 241.818 314.200 241.520 312.400 C 241.310 311.137,240.857 310.271,240.000 309.496 C 239.328 308.889,238.669 307.847,238.536 307.182 C 238.234 305.669,237.379 305.200,234.926 305.200 C 233.197 305.200,232.873 305.049,231.763 303.726 C 230.529 302.257,230.514 302.252,226.847 302.077 C 223.284 301.906,223.151 301.865,222.580 300.762 C 221.732 299.122,220.851 298.800,217.205 298.800 L 213.958 298.800 213.537 297.592 C 212.943 295.887,212.145 295.600,208.000 295.600 L 204.347 295.600 204.473 294.536 C 204.600 293.474,204.607 293.472,207.817 293.559 C 210.621 293.635,211.130 293.541,211.779 292.823 C 212.895 291.590,214.236 291.755,214.735 293.186 " stroke="none" fill="#c4ac94" fill-rule="evenodd"></path></g></svg>