<svg id="svg" version="1.1" xmlns="http://www.w3.org/2000/svg" xmlns:xlink="http://www.w3.org/1999/xlink" width="400" height="400" viewBox="0, 0, 400,400"><g id="svgg"><path id="path0" d="M241.162 88.765 C 240.664 89.440,239.973 90.082,239.628 90.192 C 238.738 90.475,231.939 98.262,230.801 100.300 C 230.280 101.235,229.703 102.000,229.521 102.000 C 229.339 102.000,228.808 102.785,228.342 103.745 C 227.875 104.705,226.978 105.795,226.347 106.168 C 225.716 106.540,225.200 107.021,225.200 107.235 C 225.200 107.449,224.291 108.564,223.179 109.712 C 222.068 110.861,220.730 112.250,220.206 112.800 C 219.682 113.350,219.039 114.659,218.777 115.708 C 218.462 116.971,217.941 117.872,217.236 118.374 C 216.650 118.791,215.922 119.598,215.618 120.167 C 215.313 120.736,214.465 121.555,213.732 121.987 C 210.160 124.094,212.367 125.120,220.802 125.273 L 227.800 125.400 230.400 126.783 L 233.000 128.167 239.800 128.246 C 243.540 128.290,248.571 128.223,250.981 128.097 L 255.361 127.869 256.642 126.470 C 257.872 125.128,258.056 125.065,261.262 124.888 C 263.098 124.786,264.803 124.541,265.050 124.344 C 266.387 123.277,265.672 117.110,264.144 116.523 C 263.828 116.402,263.289 115.760,262.946 115.095 C 262.602 114.431,261.001 112.541,259.388 110.896 C 257.004 108.465,256.403 107.596,256.178 106.253 C 255.989 105.121,255.445 104.137,254.451 103.132 C 253.653 102.324,252.708 101.356,252.352 100.980 C 251.995 100.604,250.555 99.148,249.152 97.745 C 245.099 93.694,244.055 92.287,243.768 90.487 C 243.355 87.905,242.309 87.214,241.162 88.765 M161.600 122.290 C 161.270 122.415,160.409 123.031,159.686 123.659 C 158.487 124.701,158.104 124.800,155.286 124.803 C 150.091 124.809,148.209 125.172,146.826 126.435 C 145.361 127.774,144.596 127.918,137.893 128.122 C 132.810 128.277,132.778 128.284,131.143 129.598 C 129.532 130.893,129.403 130.923,124.450 131.170 C 119.628 131.411,119.292 131.485,117.000 132.811 C 114.649 134.170,114.494 134.202,109.400 134.339 C 102.919 134.514,101.546 135.448,104.441 137.713 C 105.365 138.436,105.773 139.175,106.040 140.603 C 106.317 142.083,106.764 142.859,107.999 143.999 C 108.880 144.812,109.600 145.660,109.600 145.884 C 109.600 146.107,110.135 146.964,110.790 147.787 C 111.444 148.611,112.094 149.896,112.235 150.644 C 112.407 151.561,112.982 152.393,114.000 153.200 C 115.018 154.007,115.593 154.839,115.765 155.756 C 115.906 156.504,116.549 157.780,117.194 158.593 C 117.840 159.405,118.469 160.387,118.592 160.774 C 118.715 161.162,119.507 162.034,120.351 162.713 C 121.580 163.700,121.934 164.292,122.119 165.671 C 122.273 166.821,122.674 167.663,123.324 168.198 C 123.859 168.639,124.525 169.450,124.803 170.000 C 125.082 170.550,125.899 171.495,126.620 172.100 C 127.545 172.877,128.011 173.681,128.206 174.833 C 128.383 175.885,128.882 176.824,129.607 177.470 C 130.226 178.021,130.953 179.005,131.223 179.655 C 131.492 180.306,132.214 181.097,132.826 181.414 C 133.668 181.849,134.098 182.533,134.587 184.214 C 134.942 185.437,135.483 186.534,135.787 186.651 C 136.092 186.767,136.696 187.614,137.129 188.532 C 137.563 189.449,138.451 190.592,139.104 191.072 C 139.889 191.648,140.439 192.531,140.728 193.680 C 141.066 195.022,141.662 195.846,143.343 197.298 C 145.734 199.362,145.933 199.327,146.782 196.692 C 147.120 195.641,148.652 193.796,151.834 190.609 C 154.345 188.093,156.400 185.853,156.400 185.631 C 156.400 185.409,156.941 184.612,157.601 183.860 C 158.262 183.107,159.087 181.812,159.434 180.981 C 159.781 180.151,160.605 178.915,161.267 178.236 C 161.928 177.556,164.928 174.453,167.934 171.341 L 173.400 165.682 178.268 165.541 C 182.558 165.417,183.246 165.299,184.068 164.550 C 185.573 163.178,186.552 162.828,189.662 162.552 C 194.086 162.159,194.635 161.309,192.100 158.781 C 189.664 156.353,188.560 154.729,187.826 152.500 C 187.447 151.345,186.984 150.400,186.799 150.400 C 186.485 150.400,182.620 146.586,179.752 143.447 C 179.044 142.672,178.384 141.415,178.227 140.541 C 178.070 139.667,177.448 138.481,176.790 137.800 C 176.152 137.140,174.724 135.610,173.617 134.400 C 172.510 133.190,171.094 131.660,170.470 131.000 C 169.846 130.340,169.092 129.170,168.795 128.400 C 168.498 127.630,167.792 126.442,167.227 125.759 C 166.662 125.077,165.893 123.952,165.519 123.259 C 164.834 121.995,163.349 121.628,161.600 122.290 M312.200 144.219 C 311.540 144.543,310.388 145.256,309.641 145.804 C 308.424 146.695,307.894 146.800,304.588 146.800 C 300.990 146.800,300.864 146.832,299.690 148.033 C 298.218 149.538,296.463 149.978,291.880 149.990 L 288.359 150.000 287.022 151.460 L 285.685 152.920 280.607 153.115 C 276.028 153.292,275.421 153.402,274.421 154.244 C 272.748 155.651,271.467 155.998,267.874 156.017 C 263.298 156.042,261.473 156.477,259.804 157.943 C 258.430 159.149,258.229 159.200,254.848 159.200 C 251.942 159.200,251.208 159.328,250.662 159.931 C 249.731 160.961,249.812 161.243,251.439 162.608 C 252.624 163.603,252.916 164.155,253.094 165.737 C 253.267 167.269,253.550 167.834,254.495 168.529 C 255.147 169.008,256.030 170.084,256.458 170.919 C 256.886 171.755,257.497 172.539,257.815 172.661 C 258.133 172.783,258.666 173.809,258.999 174.942 C 259.384 176.251,260.039 177.364,260.801 178.000 C 261.998 179.000,263.027 180.662,265.013 184.800 C 265.620 186.067,266.589 187.339,267.297 187.800 C 268.208 188.393,268.654 189.107,269.016 190.558 C 269.285 191.634,269.798 192.679,270.156 192.879 C 270.513 193.079,271.184 193.998,271.647 194.921 C 272.110 195.845,273.009 197.018,273.644 197.529 C 274.517 198.231,274.800 198.797,274.800 199.843 C 274.800 201.237,275.470 202.144,279.539 206.265 C 280.497 207.234,280.938 208.103,281.088 209.310 C 281.243 210.568,281.668 211.363,282.748 212.417 C 283.547 213.196,284.513 214.231,284.896 214.717 C 286.146 216.302,292.124 216.025,293.900 214.300 C 295.163 213.074,295.485 212.975,299.592 212.565 C 303.615 212.163,304.056 212.034,305.387 210.865 C 306.554 209.840,307.186 209.595,308.714 209.576 C 312.425 209.529,314.284 209.009,315.538 207.667 C 316.682 206.441,316.830 206.400,320.060 206.393 C 322.902 206.388,323.638 206.240,325.000 205.402 C 327.840 203.653,329.133 203.200,331.287 203.198 C 333.346 203.196,333.781 203.018,336.583 201.032 C 337.334 200.500,338.687 200.184,341.000 200.000 C 343.318 199.816,344.662 199.501,345.410 198.968 C 346.001 198.545,347.123 197.837,347.903 197.394 C 350.097 196.146,350.359 195.459,349.313 193.696 C 348.826 192.873,347.986 191.300,347.447 190.200 C 346.908 189.100,345.822 187.697,345.034 187.083 C 344.063 186.326,343.600 185.640,343.600 184.957 C 343.600 183.779,342.916 182.337,342.139 181.879 C 341.839 181.702,341.254 180.892,340.837 180.079 C 340.421 179.265,339.547 178.208,338.895 177.729 C 337.959 177.041,337.666 176.466,337.500 174.991 C 337.328 173.460,337.029 172.909,335.845 171.933 C 335.050 171.278,334.400 170.491,334.400 170.185 C 334.400 169.878,333.878 169.034,333.241 168.307 C 332.603 167.581,331.877 166.230,331.628 165.304 C 331.324 164.177,330.724 163.278,329.808 162.579 C 329.056 162.006,328.245 160.942,328.005 160.217 C 327.766 159.491,327.215 158.576,326.781 158.183 C 326.348 157.791,325.780 156.760,325.521 155.893 C 325.227 154.914,324.491 153.868,323.581 153.137 C 322.677 152.410,321.935 151.359,321.646 150.397 C 321.389 149.538,320.733 148.307,320.189 147.660 C 319.645 147.014,319.200 146.310,319.200 146.096 C 319.200 143.932,315.054 142.821,312.200 144.219 M207.047 167.926 C 206.524 168.450,205.333 168.651,201.687 168.830 C 196.864 169.066,195.811 169.344,193.873 170.895 C 192.910 171.666,192.123 171.827,188.473 172.002 C 183.875 172.223,182.581 172.672,181.981 174.250 C 181.277 176.102,181.588 176.761,184.600 179.813 C 187.432 182.682,187.600 182.952,187.600 184.640 C 187.600 186.249,187.736 186.507,188.964 187.232 C 189.829 187.742,190.566 188.632,190.979 189.665 C 191.338 190.561,192.074 191.875,192.616 192.585 C 193.157 193.295,193.600 194.100,193.600 194.373 C 193.600 194.647,194.410 195.659,195.400 196.621 C 196.871 198.050,197.200 198.632,197.200 199.798 C 197.200 200.891,197.521 201.548,198.567 202.593 C 199.318 203.345,200.045 204.312,200.182 204.743 C 200.699 206.371,201.638 206.089,203.953 203.610 C 207.687 199.612,208.686 198.265,209.003 196.800 C 209.321 195.331,212.585 191.387,214.210 190.508 C 214.734 190.225,215.383 189.241,215.743 188.186 C 216.086 187.179,216.824 185.811,217.383 185.147 C 218.753 183.519,218.664 182.642,217.000 181.373 C 215.758 180.425,215.599 180.096,215.594 178.453 C 215.587 176.326,215.460 176.082,213.730 174.875 C 212.700 174.156,212.397 173.598,212.130 171.937 C 211.903 170.527,211.550 169.748,211.000 169.444 C 210.560 169.201,209.642 168.608,208.960 168.127 C 207.797 167.305,207.679 167.293,207.047 167.926 " stroke="none" fill="#db4b38" fill-rule="evenodd"></path><path id="path1" d="M234.200 135.889 C 233.760 135.998,233.199 136.249,232.953 136.448 C 232.364 136.925,230.631 136.963,223.306 136.663 L 217.212 136.413 216.906 137.506 C 216.738 138.108,216.600 144.355,216.600 151.388 L 216.600 164.176 217.534 164.642 C 219.093 165.419,219.385 165.939,219.597 168.313 C 219.777 170.333,219.930 170.655,220.937 171.136 C 221.584 171.445,222.328 172.287,222.664 173.092 C 223.289 174.587,223.670 174.516,224.554 172.742 C 224.808 172.232,225.440 171.604,225.958 171.346 C 226.477 171.087,227.165 170.331,227.488 169.664 C 227.815 168.989,228.578 168.277,229.210 168.056 C 230.044 167.766,230.455 167.265,230.756 166.174 C 230.982 165.356,231.576 164.252,232.076 163.719 C 232.576 163.187,233.263 161.998,233.604 161.076 C 234.007 159.983,234.613 159.213,235.345 158.862 C 235.963 158.566,236.646 157.814,236.863 157.191 C 237.104 156.499,237.699 155.904,238.391 155.663 C 239.014 155.446,239.767 154.760,240.065 154.138 C 240.363 153.516,241.101 152.771,241.704 152.482 L 242.800 151.956 242.800 146.628 C 242.800 139.835,242.607 138.800,241.337 138.800 C 239.809 138.800,237.824 137.801,237.073 136.655 C 236.400 135.629,235.853 135.483,234.200 135.889 M257.600 136.400 C 257.600 137.264,258.243 137.422,259.200 136.794 C 259.733 136.444,259.733 136.356,259.200 136.006 C 258.243 135.378,257.600 135.536,257.600 136.400 M251.247 139.900 C 251.273 140.505,251.414 141.540,251.560 142.200 L 251.826 143.400 252.913 141.565 C 254.333 139.168,254.291 138.800,252.600 138.800 C 251.328 138.800,251.204 138.901,251.247 139.900 M96.629 149.829 C 96.283 150.174,96.000 150.697,96.000 150.989 C 96.000 151.282,95.390 151.881,94.644 152.321 C 93.773 152.835,93.118 153.635,92.813 154.561 C 92.552 155.352,92.082 156.000,91.769 156.000 C 90.579 156.000,89.600 157.539,89.600 159.410 C 89.600 160.982,89.466 161.271,88.581 161.607 C 87.999 161.828,87.317 162.579,86.994 163.354 C 86.618 164.251,86.012 164.857,85.207 165.138 C 84.537 165.371,83.842 165.957,83.664 166.438 C 83.486 166.920,82.732 167.603,81.987 167.957 C 80.942 168.454,80.540 168.967,80.217 170.215 C 79.988 171.104,79.379 172.414,78.865 173.127 C 78.350 173.840,77.758 175.041,77.550 175.797 C 77.307 176.676,76.781 177.357,76.089 177.689 C 75.494 177.974,74.779 178.684,74.500 179.266 C 74.221 179.848,73.466 180.508,72.822 180.732 C 72.178 180.957,71.383 181.659,71.056 182.292 C 70.728 182.926,70.007 183.650,69.454 183.903 C 68.463 184.354,67.607 186.352,67.602 188.225 C 67.601 188.678,67.073 189.439,66.429 189.915 C 65.785 190.391,65.200 191.190,65.129 191.689 C 65.047 192.269,64.492 192.836,63.591 193.259 C 60.367 194.773,60.422 194.304,60.335 221.256 C 60.253 246.817,60.192 246.000,62.198 246.000 C 64.098 246.000,65.657 246.672,66.662 247.925 C 67.435 248.890,79.532 249.981,80.090 249.136 C 80.139 249.061,80.274 240.810,80.390 230.800 L 80.600 212.600 82.100 211.867 C 82.925 211.464,83.600 210.892,83.600 210.596 C 83.600 208.756,85.438 208.331,92.811 208.469 L 99.835 208.600 101.417 209.843 C 102.288 210.527,103.681 211.308,104.514 211.579 C 106.103 212.096,106.969 213.081,107.409 214.871 C 107.554 215.459,108.036 216.269,108.482 216.671 C 109.905 217.952,109.986 218.927,110.009 235.064 C 110.032 250.368,110.295 254.441,111.301 255.062 C 112.137 255.579,129.581 255.505,130.015 254.982 C 130.264 254.682,130.374 250.889,130.307 244.950 L 130.200 235.400 128.400 235.295 C 125.278 235.112,124.961 234.937,124.222 233.002 C 123.842 232.006,123.186 231.007,122.765 230.781 C 121.823 230.277,121.784 229.476,122.665 228.749 C 123.031 228.447,123.662 227.452,124.067 226.539 C 124.575 225.393,125.168 224.750,125.978 224.468 C 126.924 224.138,127.201 223.760,127.399 222.529 C 127.883 219.531,128.034 219.168,128.968 218.742 C 129.488 218.505,130.186 217.619,130.518 216.773 C 130.942 215.694,131.436 215.156,132.175 214.970 C 132.868 214.797,133.423 214.242,133.795 213.351 C 134.106 212.605,134.793 211.831,135.321 211.630 C 136.114 211.328,136.325 210.895,136.537 209.133 C 136.996 205.312,136.902 204.853,135.378 203.456 C 134.256 202.429,133.896 201.736,133.673 200.180 C 133.442 198.561,133.194 198.112,132.294 197.681 C 131.691 197.392,130.907 196.580,130.553 195.878 C 130.198 195.175,129.389 194.182,128.754 193.671 C 127.817 192.917,127.599 192.428,127.594 191.071 C 127.586 189.055,127.318 188.577,125.885 188.032 C 125.280 187.802,124.627 187.196,124.432 186.685 C 124.238 186.173,123.431 185.261,122.639 184.657 C 121.330 183.658,121.200 183.382,121.200 181.585 C 121.200 179.723,121.110 179.553,119.636 178.622 C 118.603 177.971,117.984 177.237,117.814 176.466 C 117.673 175.823,117.030 174.705,116.385 173.983 C 115.740 173.260,115.096 172.051,114.954 171.296 C 114.758 170.252,114.419 169.826,113.540 169.519 C 112.191 169.049,111.795 168.417,111.416 166.126 C 111.232 165.014,110.825 164.246,110.205 163.840 C 109.691 163.504,109.068 162.611,108.818 161.855 C 108.520 160.953,107.972 160.320,107.217 160.007 C 106.062 159.529,105.463 158.481,105.000 156.129 C 104.861 155.425,104.320 154.577,103.786 154.227 C 103.255 153.880,102.674 153.024,102.493 152.325 C 102.226 151.298,101.841 150.947,100.482 150.494 C 99.557 150.186,98.800 149.768,98.800 149.567 C 98.800 148.969,97.308 149.149,96.629 149.829 M82.800 161.449 C 82.800 161.980,82.909 162.008,83.400 161.600 C 83.730 161.326,84.000 161.034,84.000 160.951 C 84.000 160.868,83.730 160.800,83.400 160.800 C 83.070 160.800,82.800 161.092,82.800 161.449 M99.954 172.233 C 100.401 172.801,100.885 173.656,101.029 174.133 C 101.174 174.610,101.676 175.420,102.146 175.933 C 103.403 177.306,103.445 187.579,102.200 189.418 C 101.760 190.068,101.125 191.320,100.789 192.200 C 100.378 193.277,99.768 193.996,98.923 194.400 C 98.233 194.730,97.212 195.495,96.653 196.100 C 95.376 197.484,95.177 197.475,93.835 195.968 C 93.231 195.291,92.219 194.556,91.585 194.335 C 89.942 193.762,89.853 193.177,89.930 183.481 C 90.021 171.975,90.397 171.249,96.271 171.216 C 98.891 171.201,99.213 171.290,99.954 172.233 M244.166 174.706 C 243.927 174.868,243.537 175.360,243.298 175.800 C 243.060 176.240,242.181 176.960,241.344 177.400 C 240.057 178.077,239.769 178.476,239.469 179.996 C 239.268 181.015,238.615 182.361,237.958 183.109 C 237.321 183.835,236.800 184.788,236.800 185.227 C 236.800 185.717,236.257 186.347,235.397 186.855 C 234.626 187.310,233.885 188.120,233.750 188.655 C 233.602 189.248,233.004 189.838,232.222 190.165 C 231.386 190.514,230.752 191.173,230.405 192.051 C 230.112 192.793,229.467 193.850,228.972 194.400 C 228.476 194.950,227.917 196.210,227.729 197.200 C 227.447 198.683,227.166 199.098,226.132 199.555 C 225.442 199.861,224.684 200.537,224.446 201.058 C 224.209 201.580,223.381 202.308,222.607 202.677 C 221.833 203.046,221.200 203.560,221.200 203.818 C 221.200 204.077,220.719 204.988,220.130 205.844 C 219.542 206.700,218.858 208.300,218.611 209.400 C 218.223 211.122,217.955 211.502,216.677 212.135 C 215.783 212.577,214.796 213.547,214.193 214.575 L 213.194 216.281 213.297 240.441 L 213.400 264.600 216.412 264.845 C 220.193 265.153,221.133 265.440,222.476 266.697 C 223.758 267.896,228.704 268.510,229.795 267.604 C 230.319 267.169,230.400 264.601,230.400 248.325 C 230.400 236.841,230.552 229.263,230.792 228.816 C 232.161 226.258,246.459 226.564,249.480 229.217 C 250.222 229.868,251.072 230.400,251.370 230.400 C 251.668 230.400,252.336 230.744,252.856 231.164 L 253.800 231.929 254.000 251.264 L 254.200 270.600 255.600 270.705 C 259.236 270.977,262.310 271.717,263.760 272.668 C 265.606 273.878,270.302 274.656,272.432 274.104 L 273.800 273.749 273.903 243.916 L 274.005 214.082 272.603 213.254 C 271.831 212.799,271.200 212.144,271.200 211.798 C 271.200 211.452,270.480 210.463,269.600 209.600 C 268.252 208.279,268.000 207.775,268.000 206.402 C 268.000 204.968,267.834 204.675,266.618 203.957 C 265.857 203.509,265.119 202.750,264.978 202.271 C 264.836 201.792,264.108 200.824,263.360 200.120 C 262.300 199.123,262.000 198.522,262.000 197.394 C 262.000 195.536,261.460 194.552,260.279 194.256 C 259.367 194.027,258.400 192.555,258.400 191.395 C 258.400 191.083,257.846 190.197,257.168 189.425 C 256.491 188.654,255.803 187.522,255.641 186.911 C 255.478 186.300,254.971 185.613,254.515 185.384 C 252.704 184.477,252.400 183.952,252.400 181.738 C 252.400 179.693,252.323 179.528,251.018 178.757 C 250.257 178.309,249.525 177.594,249.390 177.170 C 249.256 176.745,248.195 175.948,247.034 175.399 C 244.671 174.281,244.762 174.303,244.166 174.706 M232.800 183.449 C 232.800 183.980,232.909 184.008,233.400 183.600 C 233.730 183.326,234.000 183.034,234.000 182.951 C 234.000 182.868,233.730 182.800,233.400 182.800 C 233.070 182.800,232.800 183.092,232.800 183.449 M174.000 186.000 C 173.325 186.660,172.589 187.200,172.366 187.200 C 172.142 187.200,171.677 187.875,171.333 188.700 C 170.988 189.525,170.196 190.781,169.573 191.491 C 168.950 192.202,168.319 193.423,168.173 194.206 C 167.981 195.228,167.576 195.798,166.735 196.233 C 166.092 196.566,165.365 197.279,165.119 197.817 C 164.874 198.355,164.069 199.152,163.331 199.588 C 162.592 200.024,161.814 200.837,161.602 201.395 C 161.390 201.953,160.763 202.616,160.209 202.869 C 159.206 203.326,158.407 205.192,158.402 207.090 C 158.401 207.672,157.987 208.193,157.206 208.597 C 156.533 208.945,155.898 209.667,155.752 210.250 C 155.584 210.917,155.021 211.483,154.170 211.838 C 153.443 212.142,152.612 212.880,152.324 213.478 C 152.036 214.077,151.351 214.672,150.803 214.800 C 149.545 215.096,148.813 216.520,148.806 218.690 C 148.801 220.145,148.640 220.462,147.647 220.976 C 147.008 221.306,146.377 222.036,146.233 222.612 C 146.066 223.278,145.505 223.848,144.677 224.194 C 141.838 225.380,141.800 225.694,141.800 248.000 L 141.800 267.800 146.695 268.030 C 151.295 268.247,151.740 268.343,154.095 269.624 L 156.600 270.987 165.556 271.063 L 174.513 271.138 176.956 272.342 C 180.579 274.127,180.665 274.139,190.400 274.197 C 195.350 274.227,200.030 274.388,200.800 274.554 C 203.817 275.207,203.691 275.992,203.818 255.767 C 203.880 245.885,204.123 236.056,204.360 233.925 L 204.789 230.050 203.651 228.913 C 202.778 228.039,202.447 227.240,202.226 225.466 C 201.981 223.509,201.786 223.099,200.949 222.781 C 200.406 222.574,199.716 221.819,199.416 221.103 C 199.116 220.386,198.315 219.390,197.636 218.888 C 196.623 218.141,196.400 217.695,196.400 216.421 C 196.400 214.330,196.073 213.608,194.929 213.173 C 194.400 212.972,193.659 212.233,193.283 211.531 C 192.908 210.829,192.202 209.869,191.716 209.397 C 190.692 208.401,190.000 206.772,190.000 205.354 C 190.000 204.601,189.670 204.221,188.644 203.792 C 187.206 203.192,186.400 201.668,186.400 199.551 C 186.400 198.701,186.104 198.267,185.206 197.803 C 184.548 197.463,183.898 196.733,183.759 196.179 C 183.615 195.607,182.965 194.895,182.253 194.530 C 180.578 193.672,180.413 193.350,180.406 190.910 C 180.401 188.996,180.299 188.768,179.201 188.201 C 178.530 187.854,177.747 186.969,177.422 186.190 C 176.690 184.440,175.655 184.382,174.000 186.000 M246.111 193.166 C 246.641 193.368,247.309 194.096,247.594 194.785 C 247.879 195.474,248.625 196.303,249.251 196.626 C 250.788 197.421,250.949 198.361,250.697 205.093 L 250.480 210.879 249.218 212.181 C 248.524 212.897,247.651 214.094,247.278 214.842 C 245.956 217.489,240.996 217.000,239.785 214.103 C 239.472 213.354,238.814 212.416,238.323 212.018 C 237.325 211.210,236.882 208.083,236.828 201.484 L 236.800 197.968 238.300 196.379 C 239.125 195.504,240.199 194.342,240.686 193.795 C 241.642 192.721,244.170 192.428,246.111 193.166 M148.157 211.433 C 148.291 211.781,148.400 212.237,148.400 212.447 C 148.400 213.010,149.860 212.141,150.140 211.411 C 150.319 210.945,150.084 210.800,149.145 210.800 C 148.187 210.800,147.968 210.940,148.157 211.433 M323.200 214.600 C 323.200 214.930,323.358 215.200,323.551 215.200 C 323.744 215.200,324.126 214.930,324.400 214.600 C 324.816 214.099,324.758 214.000,324.049 214.000 C 323.561 214.000,323.200 214.255,323.200 214.600 M301.600 221.062 C 301.600 222.103,301.616 222.109,302.409 221.391 C 303.028 220.832,303.099 220.583,302.709 220.336 C 301.851 219.791,301.600 219.955,301.600 221.062 M282.651 227.012 C 282.336 227.832,282.316 270.983,282.631 271.297 C 282.757 271.424,283.367 271.237,283.986 270.882 L 285.112 270.236 285.108 250.481 C 285.103 228.256,285.013 226.659,283.751 226.479 C 283.250 226.407,282.799 226.626,282.651 227.012 M177.765 228.044 C 178.757 228.824,178.800 229.028,178.803 232.929 C 178.805 235.168,179.011 238.620,179.261 240.600 C 180.634 251.480,179.217 254.000,171.729 254.000 C 165.974 254.000,165.385 253.787,164.782 251.493 C 164.537 250.562,163.909 248.900,163.387 247.800 C 162.555 246.047,162.403 244.981,162.165 239.181 L 161.892 232.562 163.104 231.542 C 163.771 230.981,164.605 229.964,164.958 229.281 C 165.890 227.478,166.342 227.346,171.790 227.285 C 176.202 227.235,176.840 227.316,177.765 228.044 M325.600 257.200 C 325.237 257.878,325.296 258.000,325.986 258.000 C 326.533 258.000,326.800 257.738,326.800 257.200 C 326.800 256.760,326.626 256.400,326.414 256.400 C 326.202 256.400,325.835 256.760,325.600 257.200 M307.046 263.149 C 306.405 263.857,306.413 263.910,307.184 264.112 C 307.838 264.283,308.000 264.134,308.000 263.363 C 308.000 262.204,307.918 262.186,307.046 263.149 M106.400 298.786 C 106.400 298.998,106.760 299.365,107.200 299.600 C 108.081 300.072,108.275 299.635,107.520 298.880 C 106.942 298.302,106.400 298.256,106.400 298.786 M194.200 311.600 C 194.598 312.040,195.104 312.400,195.324 312.400 C 195.544 312.400,195.398 312.040,195.000 311.600 C 194.602 311.160,194.096 310.800,193.876 310.800 C 193.656 310.800,193.802 311.160,194.200 311.600 " stroke="none" fill="#91bbd4" fill-rule="evenodd"></path><path id="path2" d="M354.668 233.100 C 353.669 234.769,353.200 239.095,353.200 246.632 C 353.200 255.557,353.414 254.626,350.845 256.855 C 350.430 257.215,349.915 257.823,349.701 258.206 C 349.452 258.650,348.530 259.023,347.156 259.236 C 345.422 259.505,344.765 259.839,343.800 260.940 C 342.650 262.252,342.458 262.319,339.210 262.523 C 335.902 262.731,335.791 262.772,334.671 264.168 C 333.622 265.476,333.344 265.600,331.461 265.602 C 328.880 265.605,326.426 266.267,326.129 267.040 C 325.743 268.048,323.736 268.800,321.434 268.800 C 319.559 268.800,319.025 268.978,317.877 269.986 C 316.047 271.593,314.597 272.079,312.548 271.771 C 310.925 271.528,310.729 271.608,309.149 273.157 C 307.489 274.784,307.444 274.800,304.490 274.800 C 301.543 274.800,301.490 274.818,300.054 276.351 C 298.642 277.858,298.504 277.909,295.231 278.144 C 291.983 278.377,291.820 278.436,290.702 279.793 C 289.544 281.197,289.535 281.200,286.204 281.200 L 282.867 281.200 281.575 282.831 L 280.283 284.463 275.360 284.331 L 270.438 284.200 269.065 282.700 L 267.692 281.200 259.447 281.200 L 251.202 281.200 249.543 279.700 L 247.883 278.200 240.041 278.000 C 232.787 277.815,232.095 277.733,230.800 276.903 C 227.638 274.877,227.263 274.809,220.007 274.922 C 211.977 275.048,212.415 274.777,212.406 279.638 C 212.397 284.567,213.212 284.259,199.878 284.365 L 188.756 284.453 187.359 282.926 L 185.962 281.400 176.081 281.195 C 165.714 280.980,165.280 280.912,163.475 279.241 L 162.349 278.200 152.244 278.000 C 142.194 277.801,142.130 277.794,140.570 276.763 C 139.706 276.193,138.069 275.418,136.931 275.041 C 134.227 274.146,131.725 271.523,131.353 269.194 C 130.834 265.952,130.545 265.826,123.063 265.600 C 116.963 265.415,116.368 265.330,115.327 264.496 C 113.180 262.775,112.456 262.644,104.552 262.548 C 96.500 262.449,96.014 262.356,92.800 260.297 C 91.466 259.442,90.980 259.397,82.486 259.334 L 73.573 259.268 71.985 257.834 C 70.189 256.211,70.649 256.272,61.105 256.394 L 54.810 256.474 52.367 254.031 L 49.924 251.588 49.979 245.445 C 50.023 240.556,49.899 238.963,49.370 237.640 L 48.705 235.979 42.774 236.023 C 36.427 236.069,35.816 236.256,36.071 238.076 C 36.195 238.961,36.066 239.008,33.000 239.200 L 29.800 239.400 29.600 240.800 C 29.424 242.032,29.247 242.215,28.119 242.324 C 26.868 242.445,26.052 243.513,26.570 244.351 C 26.876 244.846,25.999 245.496,24.800 245.662 C 22.661 245.958,23.379 257.200,25.537 257.200 C 26.418 257.200,26.800 257.935,26.800 259.633 L 26.800 260.800 29.776 260.800 L 32.752 260.800 32.876 262.300 L 33.000 263.800 38.100 263.912 C 42.175 264.001,43.200 264.138,43.200 264.589 C 43.200 265.264,44.784 266.457,45.275 266.154 C 45.465 266.036,45.570 266.179,45.510 266.470 C 45.374 267.123,45.064 267.098,53.875 267.154 L 61.149 267.200 61.275 268.484 C 61.438 270.155,62.042 270.310,68.611 270.360 L 73.821 270.400 73.669 272.000 C 73.519 273.567,73.484 273.600,71.958 273.600 C 70.781 273.600,70.400 273.760,70.400 274.256 C 70.400 274.978,69.495 275.821,68.087 276.409 C 67.202 276.778,67.177 276.932,67.287 281.295 L 67.400 285.800 68.877 285.923 C 70.265 286.038,70.362 286.135,70.477 287.523 C 70.593 288.915,70.686 289.007,72.100 289.124 C 73.169 289.213,73.613 289.442,73.646 289.924 C 73.672 290.296,73.717 290.870,73.746 291.200 C 73.789 291.674,74.554 291.827,77.400 291.929 C 81.211 292.065,82.136 292.469,82.836 294.300 C 83.165 295.161,83.378 295.200,87.790 295.200 C 92.636 295.200,92.666 295.212,92.437 297.070 C 92.405 297.328,92.591 297.671,92.851 297.832 C 93.166 298.026,93.226 297.936,93.032 297.562 C 92.872 297.253,93.009 297.329,93.337 297.731 C 93.665 298.133,94.263 298.427,94.667 298.385 C 95.070 298.342,98.235 298.329,101.700 298.354 L 108.000 298.400 108.006 299.500 C 108.013 300.728,108.485 301.678,109.037 301.574 C 109.236 301.536,112.584 301.527,116.475 301.553 L 123.549 301.600 123.675 302.898 C 123.841 304.617,124.280 304.694,134.300 304.753 L 142.400 304.800 142.400 305.751 C 142.400 307.493,142.921 307.580,154.129 307.693 C 164.012 307.792,164.794 307.852,164.797 308.506 C 164.806 310.590,166.313 310.797,181.500 310.799 C 189.795 310.799,195.600 310.951,195.600 311.167 C 195.600 311.369,195.721 311.849,195.868 312.233 C 196.070 312.758,195.995 312.851,195.568 312.609 C 195.251 312.430,195.315 312.621,195.714 313.044 C 196.393 313.762,197.403 313.806,216.016 313.911 C 237.527 314.033,238.011 313.994,238.583 312.081 L 238.965 310.800 243.683 310.800 L 248.400 310.800 248.400 306.200 L 248.400 301.600 258.500 301.553 C 264.055 301.527,268.817 301.532,269.081 301.566 C 270.157 301.701,272.423 300.391,272.793 299.419 L 273.180 298.400 282.890 298.354 C 288.231 298.329,292.926 298.342,293.324 298.383 C 294.411 298.496,295.200 297.642,295.200 296.351 L 295.200 295.200 302.300 295.153 C 306.205 295.127,309.627 295.135,309.905 295.171 C 310.183 295.208,310.524 294.941,310.663 294.579 C 311.488 292.431,312.512 292.055,317.886 291.924 L 322.984 291.800 323.072 290.654 C 323.188 289.133,322.943 289.221,327.214 289.164 C 331.958 289.100,332.800 288.806,332.800 287.210 L 332.800 286.000 336.300 285.960 C 341.082 285.906,341.770 285.676,341.925 284.084 L 342.051 282.800 345.225 282.800 L 348.400 282.800 348.400 281.217 L 348.400 279.634 351.500 279.517 L 354.600 279.400 354.724 277.900 L 354.848 276.400 357.824 276.400 L 360.800 276.400 360.800 275.000 C 360.800 274.161,361.000 273.589,361.300 273.572 C 364.058 273.420,365.905 272.647,366.469 271.408 C 366.799 270.684,367.240 270.400,368.036 270.400 C 369.393 270.400,370.400 269.461,370.400 268.197 C 370.400 267.422,370.635 267.228,371.700 267.125 C 372.837 267.016,373.025 266.831,373.200 265.651 C 373.366 264.531,373.639 264.224,374.800 263.851 L 376.200 263.400 376.313 258.900 C 376.414 254.898,376.505 254.400,377.137 254.400 C 378.525 254.400,379.309 253.415,379.309 251.672 C 379.309 249.729,378.676 248.800,377.351 248.800 C 376.429 248.800,376.400 248.703,376.400 245.600 L 376.400 242.400 375.005 242.400 C 373.686 242.400,373.595 242.312,373.354 240.800 L 373.098 239.200 370.173 239.200 L 367.248 239.200 367.124 237.700 L 367.000 236.200 363.500 236.084 C 360.699 235.992,360.000 235.848,360.000 235.366 C 360.000 235.034,359.461 234.456,358.803 234.081 C 358.144 233.707,357.604 233.265,357.603 233.100 C 357.601 232.935,356.981 232.800,356.224 232.800 C 355.467 232.800,354.766 232.935,354.668 233.100 M359.200 235.614 C 359.200 236.301,358.441 236.023,357.984 235.170 C 357.577 234.410,357.610 234.377,358.370 234.784 C 358.826 235.028,359.200 235.402,359.200 235.614 M45.146 265.020 C 45.273 265.673,45.205 265.702,44.646 265.238 C 43.882 264.604,43.786 263.862,44.500 264.100 C 44.775 264.191,45.066 264.606,45.146 265.020 " stroke="none" fill="#8cb958" fill-rule="evenodd"></path><path id="path3" d="M236.480 74.080 C 236.216 74.344,236.000 75.064,236.000 75.680 C 236.000 76.660,235.849 76.800,234.790 76.800 C 233.329 76.800,232.800 77.870,232.800 80.826 L 232.800 82.800 231.200 82.800 L 229.600 82.800 229.600 84.400 C 229.600 85.952,229.560 86.000,228.243 86.000 C 226.809 86.000,226.400 86.496,226.400 88.233 C 226.400 89.072,226.214 89.200,225.000 89.200 C 223.641 89.200,223.600 89.245,223.600 90.750 C 223.600 92.154,223.486 92.323,222.393 92.541 C 220.974 92.825,220.400 94.002,220.400 96.626 L 220.400 98.400 218.800 98.400 L 217.200 98.400 217.200 100.000 L 217.200 101.600 215.600 101.600 C 214.004 101.600,214.000 101.604,214.000 103.176 C 214.000 104.708,213.958 104.755,212.500 104.876 C 211.081 104.993,210.993 105.081,210.876 106.500 C 210.758 107.919,210.677 108.000,209.376 108.000 C 208.037 108.000,208.000 108.043,208.000 109.600 C 208.000 110.699,207.826 111.200,207.444 111.200 C 206.105 111.200,205.164 112.583,204.925 114.900 L 204.688 117.200 203.144 117.200 C 201.609 117.200,201.600 117.210,201.600 118.800 L 201.600 120.400 199.962 120.400 L 198.323 120.400 198.462 125.981 C 198.623 132.499,198.624 132.500,202.201 132.728 L 204.800 132.893 204.800 143.847 L 204.800 154.800 203.268 154.800 L 201.736 154.800 201.368 151.900 C 201.003 149.020,200.991 148.999,199.722 148.876 C 198.530 148.761,198.435 148.639,198.322 147.076 C 198.204 145.453,198.152 145.396,196.700 145.276 C 195.309 145.161,195.199 145.059,195.189 143.876 C 195.180 142.828,194.898 142.427,193.607 141.631 C 192.116 140.711,192.030 140.548,191.918 138.431 C 191.802 136.243,191.775 136.198,190.523 136.076 C 189.366 135.964,189.234 135.813,189.123 134.476 C 189.007 133.089,188.911 132.993,187.523 132.877 C 186.135 132.762,186.038 132.665,185.923 131.277 C 185.807 129.885,185.714 129.793,184.300 129.676 L 182.800 129.552 182.800 127.056 C 182.800 124.282,182.389 123.600,180.720 123.600 C 179.680 123.600,179.600 123.486,179.600 122.000 L 179.600 120.400 178.000 120.400 L 176.400 120.400 176.400 118.800 C 176.400 117.251,176.357 117.200,175.055 117.200 L 173.711 117.200 173.355 114.300 L 173.000 111.400 171.200 111.130 C 164.812 110.170,158.243 110.956,158.075 112.700 L 157.949 114.000 152.068 114.000 C 145.903 114.000,143.200 114.794,143.200 116.605 C 143.200 117.077,142.038 117.200,136.700 117.290 L 130.200 117.400 129.829 118.900 L 129.459 120.400 122.703 120.400 C 115.246 120.400,114.400 120.605,114.400 122.414 L 114.400 123.600 108.100 123.606 C 101.395 123.612,100.120 123.891,99.405 125.507 C 99.051 126.308,98.720 126.401,96.205 126.406 C 91.044 126.417,89.262 127.666,89.218 131.300 C 89.200 132.780,89.179 132.800,87.600 132.800 L 86.000 132.800 86.000 134.400 L 86.000 136.000 84.400 136.000 L 82.800 136.000 82.800 137.600 C 82.800 139.152,82.760 139.200,81.443 139.200 C 80.034 139.200,79.608 139.691,79.591 141.333 C 79.586 141.915,79.158 142.397,78.291 142.800 C 77.115 143.347,76.967 143.623,76.630 145.900 C 76.261 148.391,76.255 148.400,74.930 148.400 C 73.645 148.400,73.600 148.454,73.600 150.000 L 73.600 151.600 72.000 151.600 L 70.400 151.600 70.400 153.200 C 70.400 154.591,70.282 154.801,69.500 154.806 C 67.846 154.817,67.450 155.414,67.275 158.151 L 67.110 160.757 65.655 160.879 C 64.288 160.993,64.192 161.091,64.076 162.500 C 63.959 163.908,63.870 164.000,62.619 164.000 C 61.211 164.000,60.800 164.504,60.800 166.233 C 60.800 166.920,60.578 167.200,60.033 167.200 C 58.206 167.200,58.000 167.548,58.000 170.643 L 58.000 173.600 56.400 173.600 C 54.850 173.600,54.800 173.642,54.800 174.949 C 54.800 176.213,54.700 176.314,53.200 176.554 C 51.644 176.802,51.600 176.853,51.600 178.405 C 51.600 179.818,51.491 180.000,50.649 180.000 C 49.284 180.000,48.834 180.756,48.543 183.541 L 48.286 186.000 46.743 186.000 C 45.209 186.000,45.200 186.010,45.200 187.600 C 45.200 189.150,45.158 189.200,43.852 189.200 C 42.606 189.200,42.486 189.313,42.257 190.700 C 41.934 192.653,41.930 198.749,42.250 200.350 L 42.500 201.600 45.450 201.600 L 48.400 201.600 48.400 218.549 C 48.400 234.751,48.436 235.580,49.218 237.347 C 49.936 238.971,50.029 239.945,49.980 245.392 L 49.924 251.588 52.367 254.031 L 54.810 256.474 61.105 256.394 C 70.649 256.272,70.189 256.211,71.985 257.834 L 73.573 259.268 82.486 259.334 C 90.980 259.397,91.466 259.442,92.800 260.297 C 96.014 262.356,96.500 262.449,104.552 262.548 C 112.456 262.644,113.180 262.775,115.327 264.496 C 116.368 265.330,116.963 265.415,123.063 265.600 C 130.545 265.826,130.834 265.952,131.353 269.194 C 131.725 271.523,134.227 274.146,136.931 275.041 C 138.069 275.418,139.706 276.193,140.570 276.763 C 142.130 277.794,142.194 277.801,152.244 278.000 L 162.349 278.200 163.475 279.241 C 165.280 280.912,165.714 280.980,176.081 281.195 L 185.962 281.400 187.359 282.926 L 188.756 284.453 199.878 284.365 C 213.212 284.259,212.397 284.567,212.406 279.638 C 212.415 274.777,211.977 275.048,220.007 274.922 C 227.263 274.809,227.638 274.877,230.800 276.903 C 232.095 277.733,232.787 277.815,240.041 278.000 L 247.883 278.200 249.543 279.700 L 251.202 281.200 259.447 281.200 L 267.692 281.200 269.065 282.700 L 270.438 284.200 275.360 284.331 L 280.283 284.463 281.575 282.831 L 282.867 281.200 286.204 281.200 C 289.535 281.200,289.544 281.197,290.702 279.793 C 291.820 278.436,291.983 278.377,295.231 278.144 C 298.504 277.909,298.642 277.858,300.054 276.351 C 301.490 274.818,301.543 274.800,304.490 274.800 C 307.444 274.800,307.489 274.784,309.149 273.157 C 310.729 271.608,310.925 271.528,312.548 271.771 C 314.597 272.079,316.047 271.593,317.877 269.986 C 319.025 268.978,319.559 268.800,321.434 268.800 C 323.736 268.800,325.743 268.048,326.129 267.040 C 326.426 266.267,328.880 265.605,331.461 265.602 C 333.344 265.600,333.622 265.476,334.671 264.168 C 335.791 262.772,335.902 262.731,339.210 262.523 C 342.458 262.319,342.650 262.252,343.800 260.940 C 344.765 259.839,345.422 259.505,347.156 259.236 C 348.530 259.023,349.452 258.650,349.701 258.206 C 349.915 257.823,350.430 257.215,350.845 256.855 C 353.414 254.626,353.199 255.569,353.212 246.500 C 353.221 239.536,353.348 237.749,354.000 235.400 C 354.691 232.909,354.778 231.225,354.788 220.125 L 354.800 207.651 356.100 207.525 C 357.243 207.415,357.415 207.243,357.525 206.100 L 357.651 204.800 360.193 204.800 C 364.221 204.800,364.000 205.175,364.000 198.357 L 364.000 192.400 362.400 192.400 L 360.800 192.400 360.800 190.800 C 360.800 189.920,360.620 189.200,360.400 189.200 C 360.180 189.200,360.000 188.960,360.000 188.666 C 360.000 188.372,359.460 187.651,358.800 187.063 C 357.846 186.213,357.600 185.667,357.600 184.397 C 357.600 182.839,357.566 182.800,356.200 182.800 C 354.893 182.800,354.798 182.713,354.771 181.500 C 354.734 179.887,353.637 177.929,352.476 177.405 C 351.773 177.088,351.600 176.673,351.600 175.305 L 351.600 173.600 350.000 173.600 C 348.462 173.600,348.400 173.550,348.398 172.300 C 348.393 169.661,347.654 167.991,346.377 167.735 C 345.290 167.518,345.200 167.367,345.200 165.750 L 345.200 164.000 343.600 164.000 L 342.000 164.000 342.000 161.629 C 342.000 159.105,341.390 158.000,339.996 158.000 C 339.421 158.000,339.220 157.654,339.124 156.500 C 339.007 155.081,338.919 154.993,337.500 154.876 L 336.000 154.752 335.995 152.676 C 335.986 149.494,335.704 148.856,334.178 148.569 C 332.986 148.346,332.830 148.163,332.722 146.860 C 332.607 145.487,332.510 145.393,331.100 145.276 L 329.600 145.152 329.600 142.176 L 329.600 139.200 328.000 139.200 L 326.400 139.200 326.400 137.600 C 326.400 136.384,326.243 136.000,325.744 136.000 C 325.024 136.000,324.180 135.096,323.596 133.700 C 323.226 132.815,323.100 132.800,316.243 132.800 C 308.117 132.800,308.000 132.826,308.000 134.643 L 308.000 136.000 302.433 136.000 C 295.816 136.000,295.600 136.058,295.600 137.843 L 295.600 139.200 290.426 139.200 C 284.473 139.200,283.200 139.515,283.200 140.990 C 283.200 141.941,283.078 142.000,281.100 142.003 C 279.945 142.004,277.785 142.120,276.300 142.261 L 273.600 142.516 273.600 137.675 L 273.600 132.835 276.500 132.718 L 279.400 132.600 279.509 124.900 L 279.617 117.200 278.009 117.200 L 276.400 117.200 276.400 115.600 C 276.400 114.052,276.356 114.000,275.063 114.000 L 273.726 114.000 273.363 111.300 C 273.017 108.724,272.941 108.583,271.720 108.223 C 270.627 107.901,270.422 107.636,270.320 106.423 C 270.208 105.093,270.102 104.992,268.700 104.876 C 267.242 104.755,267.200 104.708,267.200 103.176 C 267.200 101.604,267.196 101.600,265.600 101.600 L 264.000 101.600 264.000 99.626 C 264.000 96.670,263.471 95.600,262.010 95.600 C 260.865 95.600,260.800 95.514,260.800 94.000 C 260.800 92.446,260.761 92.400,259.435 92.400 C 258.155 92.400,258.054 92.301,257.800 90.800 C 257.546 89.299,257.445 89.200,256.165 89.200 C 254.839 89.200,254.800 89.154,254.800 87.600 C 254.800 86.318,254.655 86.000,254.070 86.000 C 252.819 86.000,251.601 84.315,251.594 82.574 C 251.586 80.576,251.304 80.167,249.700 79.818 C 248.552 79.569,248.400 79.382,248.400 78.211 C 248.400 76.811,247.893 76.400,246.167 76.400 C 245.328 76.400,245.200 76.214,245.200 75.000 L 245.200 73.600 241.080 73.600 C 238.409 73.600,236.791 73.769,236.480 74.080 M243.768 90.487 C 244.055 92.287,245.099 93.694,249.152 97.745 C 250.555 99.148,251.995 100.604,252.352 100.980 C 252.708 101.356,253.653 102.324,254.451 103.132 C 255.445 104.137,255.989 105.121,256.178 106.253 C 256.403 107.596,257.004 108.465,259.388 110.896 C 261.001 112.541,262.602 114.431,262.946 115.095 C 263.289 115.760,263.828 116.402,264.144 116.523 C 265.672 117.110,266.387 123.277,265.050 124.344 C 264.803 124.541,263.098 124.786,261.262 124.888 C 258.056 125.065,257.872 125.128,256.642 126.470 L 255.361 127.869 250.981 128.097 C 248.571 128.223,243.540 128.290,239.800 128.246 L 233.000 128.167 230.400 126.783 L 227.800 125.400 220.802 125.273 C 212.367 125.120,210.160 124.094,213.732 121.987 C 214.465 121.555,215.313 120.736,215.618 120.167 C 215.922 119.598,216.650 118.791,217.236 118.374 C 217.941 117.872,218.462 116.971,218.777 115.708 C 219.039 114.659,219.682 113.350,220.206 112.800 C 220.730 112.250,222.068 110.861,223.179 109.712 C 224.291 108.564,225.200 107.449,225.200 107.235 C 225.200 107.021,225.716 106.540,226.347 106.168 C 226.978 105.795,227.875 104.705,228.342 103.745 C 228.808 102.785,229.339 102.000,229.521 102.000 C 229.703 102.000,230.280 101.235,230.801 100.300 C 231.939 98.262,238.738 90.475,239.628 90.192 C 239.973 90.082,240.664 89.440,241.162 88.765 C 242.309 87.214,243.355 87.905,243.768 90.487 M165.519 123.259 C 165.893 123.952,166.662 125.077,167.227 125.759 C 167.792 126.442,168.498 127.630,168.795 128.400 C 169.092 129.170,169.846 130.340,170.470 131.000 C 171.094 131.660,172.510 133.190,173.617 134.400 C 174.724 135.610,176.152 137.140,176.790 137.800 C 177.448 138.481,178.070 139.667,178.227 140.541 C 178.384 141.415,179.044 142.672,179.752 143.447 C 182.620 146.586,186.485 150.400,186.799 150.400 C 186.984 150.400,187.447 151.345,187.826 152.500 C 188.560 154.729,189.664 156.353,192.100 158.781 C 194.635 161.309,194.086 162.159,189.662 162.552 C 186.552 162.828,185.573 163.178,184.068 164.550 C 183.246 165.299,182.558 165.417,178.268 165.541 L 173.400 165.682 167.934 171.341 C 164.928 174.453,161.928 177.556,161.267 178.236 C 160.605 178.915,159.781 180.151,159.434 180.981 C 159.087 181.812,158.262 183.107,157.601 183.860 C 156.941 184.612,156.400 185.409,156.400 185.631 C 156.400 185.853,154.345 188.093,151.834 190.609 C 148.652 193.796,147.120 195.641,146.782 196.692 C 145.933 199.327,145.734 199.362,143.343 197.298 C 141.662 195.846,141.066 195.022,140.728 193.680 C 140.439 192.531,139.889 191.648,139.104 191.072 C 138.451 190.592,137.563 189.449,137.129 188.532 C 136.696 187.614,136.092 186.767,135.787 186.651 C 135.483 186.534,134.942 185.437,134.587 184.214 C 134.098 182.533,133.668 181.849,132.826 181.414 C 132.214 181.097,131.492 180.306,131.223 179.655 C 130.953 179.005,130.226 178.021,129.607 177.470 C 128.882 176.824,128.383 175.885,128.206 174.833 C 128.011 173.681,127.545 172.877,126.620 172.100 C 125.899 171.495,125.082 170.550,124.803 170.000 C 124.525 169.450,123.859 168.639,123.324 168.198 C 122.674 167.663,122.273 166.821,122.119 165.671 C 121.934 164.292,121.580 163.700,120.351 162.713 C 119.507 162.034,118.715 161.162,118.592 160.774 C 118.469 160.387,117.840 159.405,117.194 158.593 C 116.549 157.780,115.906 156.504,115.765 155.756 C 115.593 154.839,115.018 154.007,114.000 153.200 C 112.982 152.393,112.407 151.561,112.235 150.644 C 112.094 149.896,111.444 148.611,110.790 147.787 C 110.135 146.964,109.600 146.107,109.600 145.884 C 109.600 145.660,108.880 144.812,107.999 143.999 C 106.764 142.859,106.317 142.083,106.040 140.603 C 105.773 139.175,105.365 138.436,104.441 137.713 C 101.546 135.448,102.919 134.514,109.400 134.339 C 114.494 134.202,114.649 134.170,117.000 132.811 C 119.292 131.485,119.628 131.411,124.450 131.170 C 129.403 130.923,129.532 130.893,131.143 129.598 C 132.778 128.284,132.810 128.277,137.893 128.122 C 144.596 127.918,145.361 127.774,146.826 126.435 C 148.209 125.172,150.091 124.809,155.286 124.803 C 158.104 124.800,158.487 124.701,159.686 123.659 C 162.164 121.507,164.484 121.348,165.519 123.259 M218.674 133.662 C 219.409 133.964,223.159 134.137,229.469 134.162 C 238.887 134.199,239.168 134.224,240.269 135.106 C 240.891 135.604,241.796 136.214,242.281 136.461 C 244.483 137.586,245.611 150.964,243.645 152.645 C 242.984 153.211,242.361 153.814,240.291 155.893 C 239.791 156.395,238.795 157.407,236.535 159.711 C 235.765 160.495,235.153 161.626,234.972 162.598 C 234.797 163.537,234.229 164.612,233.596 165.203 C 233.004 165.757,232.213 166.800,231.840 167.522 C 231.467 168.244,230.729 168.999,230.200 169.200 C 229.671 169.401,228.951 170.121,228.600 170.800 C 228.249 171.479,227.525 172.233,226.992 172.476 C 226.459 172.719,225.833 173.495,225.600 174.200 C 225.367 174.905,224.754 175.880,224.237 176.366 L 223.296 177.249 222.448 176.170 C 221.982 175.577,221.600 174.809,221.600 174.462 C 221.600 174.116,220.807 173.104,219.838 172.215 C 218.142 170.657,218.084 170.528,218.286 168.734 C 218.492 166.905,218.465 166.851,216.848 165.830 L 215.200 164.790 215.201 150.295 C 215.203 133.134,215.376 132.309,218.674 133.662 M263.115 134.755 C 263.957 135.205,264.000 135.474,264.000 140.341 C 264.000 149.855,263.363 150.660,256.132 150.272 C 249.881 149.937,249.952 150.010,249.689 143.626 C 249.459 138.044,249.637 137.629,252.631 136.791 C 253.616 136.516,254.552 136.079,254.711 135.821 C 255.827 134.010,260.594 133.405,263.115 134.755 M98.946 144.429 C 99.526 144.885,100.002 145.650,100.005 146.129 C 100.017 147.930,100.524 148.841,101.815 149.381 C 102.640 149.725,103.380 150.458,103.803 151.350 C 104.174 152.131,104.793 152.871,105.178 152.993 C 106.089 153.282,106.800 154.877,106.800 156.632 C 106.800 157.802,107.026 158.160,108.200 158.853 C 108.970 159.307,109.600 159.845,109.600 160.048 C 109.600 160.252,110.308 161.186,111.173 162.124 C 112.425 163.482,112.772 164.192,112.873 165.602 C 112.982 167.118,113.202 167.508,114.400 168.305 C 115.170 168.817,116.008 169.723,116.263 170.318 C 116.517 170.913,117.182 171.795,117.741 172.278 C 118.343 172.799,118.859 173.775,119.009 174.678 C 119.390 176.967,119.502 177.182,120.506 177.564 C 121.849 178.075,122.358 178.846,122.755 180.973 C 122.983 182.193,123.422 183.080,123.995 183.481 C 124.483 183.823,125.096 184.612,125.358 185.235 C 125.620 185.858,126.439 186.780,127.178 187.284 C 128.108 187.918,128.679 188.737,129.031 189.943 C 129.312 190.901,129.897 192.071,130.332 192.543 C 130.767 193.014,131.401 194.075,131.741 194.900 C 132.081 195.725,132.625 196.400,132.951 196.400 C 133.804 196.400,135.067 198.167,135.371 199.785 C 135.514 200.551,135.956 201.407,136.352 201.689 C 138.547 203.246,138.839 210.958,136.762 212.488 C 136.082 212.990,135.317 213.793,135.062 214.274 C 134.808 214.755,133.982 215.565,133.227 216.074 C 132.458 216.593,131.720 217.506,131.548 218.152 C 131.379 218.786,130.873 219.697,130.422 220.176 C 129.972 220.656,129.319 221.883,128.971 222.902 C 128.524 224.214,127.954 224.984,127.023 225.534 C 123.557 227.578,124.645 234.260,128.363 233.767 C 131.554 233.344,131.600 233.508,131.600 245.413 C 131.600 253.321,131.483 255.607,131.047 256.203 C 130.423 257.057,111.920 257.214,110.360 256.379 C 108.663 255.470,108.608 254.929,108.400 236.871 C 108.222 221.450,108.129 219.503,107.552 219.181 C 106.811 218.766,106.171 217.267,105.813 215.105 C 105.535 213.423,104.705 212.800,102.743 212.800 C 101.795 212.800,101.043 212.422,100.017 211.431 C 98.412 209.880,97.825 209.790,90.113 209.923 C 85.694 209.999,85.617 210.016,85.068 211.064 C 84.762 211.649,83.901 212.415,83.155 212.767 L 81.800 213.407 81.600 231.536 C 81.362 253.113,82.223 250.804,74.424 250.790 C 67.996 250.779,66.452 250.480,64.648 248.896 C 63.903 248.242,62.598 247.577,61.747 247.419 C 58.570 246.830,58.794 248.841,58.851 221.438 C 58.879 207.997,59.014 195.023,59.151 192.606 L 59.400 188.213 60.687 187.406 C 61.395 186.963,62.078 186.298,62.205 185.929 C 62.332 185.560,63.056 184.892,63.815 184.444 C 64.682 183.933,65.430 183.042,65.828 182.046 C 66.177 181.175,66.711 180.366,67.014 180.250 C 67.318 180.133,67.856 179.043,68.210 177.826 C 68.672 176.235,69.158 175.434,69.939 174.972 C 70.536 174.620,71.326 173.806,71.694 173.165 C 72.062 172.524,72.821 171.791,73.381 171.536 C 73.942 171.280,74.400 170.916,74.400 170.727 C 74.400 170.537,75.104 169.618,75.964 168.685 C 76.902 167.668,77.638 166.405,77.801 165.533 C 77.959 164.691,78.580 163.599,79.277 162.939 C 79.939 162.313,80.634 161.404,80.822 160.921 C 81.010 160.437,81.651 159.723,82.245 159.334 C 85.227 157.380,87.200 154.914,87.200 153.142 C 87.200 151.661,87.428 151.207,88.900 149.749 C 89.835 148.823,90.892 147.759,91.250 147.383 C 91.608 147.007,92.238 146.390,92.650 146.010 C 93.063 145.631,93.713 144.933,94.096 144.460 C 95.027 143.309,97.503 143.294,98.946 144.429 M318.371 144.654 C 318.827 145.234,319.200 145.883,319.200 146.096 C 319.200 146.310,319.645 147.014,320.189 147.660 C 320.733 148.307,321.389 149.538,321.646 150.397 C 321.935 151.359,322.677 152.410,323.581 153.137 C 324.491 153.868,325.227 154.914,325.521 155.893 C 325.780 156.760,326.348 157.791,326.781 158.183 C 327.215 158.576,327.766 159.491,328.005 160.217 C 328.245 160.942,329.056 162.006,329.808 162.579 C 330.724 163.278,331.324 164.177,331.628 165.304 C 331.877 166.230,332.603 167.581,333.241 168.307 C 333.878 169.034,334.400 169.878,334.400 170.185 C 334.400 170.491,335.050 171.278,335.845 171.933 C 337.029 172.909,337.328 173.460,337.500 174.991 C 337.666 176.466,337.959 177.041,338.895 177.729 C 339.547 178.208,340.421 179.265,340.837 180.079 C 341.254 180.892,341.839 181.702,342.139 181.879 C 342.916 182.337,343.600 183.779,343.600 184.957 C 343.600 185.640,344.063 186.326,345.034 187.083 C 345.822 187.697,346.908 189.100,347.447 190.200 C 347.986 191.300,348.826 192.873,349.313 193.696 C 350.359 195.459,350.097 196.146,347.903 197.394 C 347.123 197.837,346.001 198.545,345.410 198.968 C 344.662 199.501,343.318 199.816,341.000 200.000 C 338.687 200.184,337.334 200.500,336.583 201.032 C 333.781 203.018,333.346 203.196,331.287 203.198 C 329.133 203.200,327.840 203.653,325.000 205.402 C 323.638 206.240,322.902 206.388,320.060 206.393 C 316.830 206.400,316.682 206.441,315.538 207.667 C 314.284 209.009,312.425 209.529,308.714 209.576 C 307.186 209.595,306.554 209.840,305.387 210.865 C 304.056 212.034,303.615 212.163,299.592 212.565 C 295.485 212.975,295.163 213.074,293.900 214.300 C 292.124 216.025,286.146 216.302,284.896 214.717 C 284.513 214.231,283.547 213.196,282.748 212.417 C 281.668 211.363,281.243 210.568,281.088 209.310 C 280.938 208.103,280.497 207.234,279.539 206.265 C 275.470 202.144,274.800 201.237,274.800 199.843 C 274.800 198.797,274.517 198.231,273.644 197.529 C 273.009 197.018,272.110 195.845,271.647 194.921 C 271.184 193.998,270.513 193.079,270.156 192.879 C 269.798 192.679,269.285 191.634,269.016 190.558 C 268.654 189.107,268.208 188.393,267.297 187.800 C 266.589 187.339,265.620 186.067,265.013 184.800 C 263.027 180.662,261.998 179.000,260.801 178.000 C 260.039 177.364,259.384 176.251,258.999 174.942 C 258.666 173.809,258.133 172.783,257.815 172.661 C 257.497 172.539,256.886 171.755,256.458 170.919 C 256.030 170.084,255.147 169.008,254.495 168.529 C 253.550 167.834,253.267 167.269,253.094 165.737 C 252.916 164.155,252.624 163.603,251.439 162.608 C 249.812 161.243,249.731 160.961,250.662 159.931 C 251.208 159.328,251.942 159.200,254.848 159.200 C 258.229 159.200,258.430 159.149,259.804 157.943 C 261.473 156.477,263.298 156.042,267.874 156.017 C 271.467 155.998,272.748 155.651,274.421 154.244 C 275.421 153.402,276.028 153.292,280.607 153.115 L 285.685 152.920 287.022 151.460 L 288.359 150.000 291.880 149.990 C 296.463 149.978,298.218 149.538,299.690 148.033 C 300.864 146.832,300.990 146.800,304.588 146.800 C 307.894 146.800,308.424 146.695,309.641 145.804 C 313.102 143.267,316.888 142.768,318.371 144.654 M211.000 169.444 C 211.550 169.748,211.903 170.527,212.130 171.937 C 212.397 173.598,212.700 174.156,213.730 174.875 C 215.460 176.082,215.587 176.326,215.594 178.453 C 215.599 180.096,215.758 180.425,217.000 181.373 C 218.664 182.642,218.753 183.519,217.383 185.147 C 216.824 185.811,216.086 187.179,215.743 188.186 C 215.383 189.241,214.734 190.225,214.210 190.508 C 212.585 191.387,209.321 195.331,209.003 196.800 C 208.163 200.678,200.953 207.172,200.182 204.743 C 200.045 204.312,199.318 203.345,198.567 202.593 C 197.521 201.548,197.200 200.891,197.200 199.798 C 197.200 198.632,196.871 198.050,195.400 196.621 C 194.410 195.659,193.600 194.647,193.600 194.373 C 193.600 194.100,193.157 193.295,192.616 192.585 C 192.074 191.875,191.338 190.561,190.979 189.665 C 190.566 188.632,189.829 187.742,188.964 187.232 C 187.736 186.507,187.600 186.249,187.600 184.640 C 187.600 182.952,187.432 182.682,184.600 179.813 C 181.588 176.761,181.277 176.102,181.981 174.250 C 182.581 172.672,183.875 172.223,188.473 172.002 C 192.123 171.827,192.910 171.666,193.873 170.895 C 195.811 169.344,196.864 169.066,201.687 168.830 C 205.333 168.651,206.524 168.450,207.047 167.926 C 207.679 167.293,207.797 167.305,208.960 168.127 C 209.642 168.608,210.560 169.201,211.000 169.444 M246.208 168.957 C 246.729 169.337,247.038 170.189,247.185 171.646 C 247.356 173.343,247.586 173.872,248.306 174.230 C 248.804 174.477,249.902 175.382,250.746 176.240 C 251.589 177.098,252.576 178.032,252.940 178.316 C 253.394 178.671,253.600 179.445,253.600 180.800 C 253.600 181.884,253.825 182.957,254.100 183.189 C 254.375 183.420,255.095 183.980,255.700 184.433 C 256.305 184.887,256.800 185.482,256.800 185.755 C 256.800 186.029,257.415 186.797,258.166 187.462 C 259.218 188.394,259.597 189.109,259.818 190.580 C 260.057 192.172,260.322 192.617,261.422 193.266 C 262.343 193.809,262.924 194.585,263.353 195.844 C 263.691 196.835,264.424 198.189,264.983 198.853 C 265.543 199.518,266.000 200.395,266.000 200.802 C 266.000 201.209,266.495 201.913,267.100 202.367 C 269.049 203.828,269.163 203.978,269.626 205.695 C 269.876 206.626,270.603 207.981,271.241 208.707 C 271.878 209.434,272.400 210.261,272.400 210.547 C 272.400 210.832,273.120 211.645,274.000 212.352 L 275.600 213.638 275.600 243.819 C 275.600 279.446,276.299 275.600,269.820 275.600 C 265.030 275.600,261.863 275.039,260.881 274.017 C 259.722 272.811,258.539 272.400,256.226 272.400 C 252.143 272.400,252.400 273.781,252.400 251.849 C 252.400 231.088,252.566 232.402,249.847 231.659 C 248.993 231.426,247.568 230.732,246.681 230.118 C 245.033 228.976,233.530 228.338,232.533 229.333 C 232.350 229.516,232.110 238.156,232.000 248.533 C 231.890 258.910,231.652 267.699,231.471 268.063 C 230.468 270.088,224.000 270.004,220.054 267.916 C 218.814 267.260,216.720 266.568,215.400 266.379 C 211.159 265.771,211.461 267.938,211.746 240.200 C 211.882 227.000,212.112 214.232,212.257 211.828 L 212.522 207.456 215.461 204.526 C 218.243 201.754,218.400 201.501,218.400 199.798 C 218.400 198.476,218.618 197.815,219.224 197.300 C 219.677 196.915,220.712 195.950,221.524 195.157 C 222.336 194.363,223.317 193.603,223.703 193.468 C 224.090 193.333,224.620 192.722,224.882 192.111 C 225.143 191.500,225.840 190.534,226.432 189.965 C 227.080 189.341,227.617 188.284,227.782 187.305 C 228.006 185.983,228.647 185.078,231.228 182.445 C 232.973 180.665,234.400 179.032,234.400 178.816 C 234.400 178.600,234.928 178.033,235.574 177.556 C 236.396 176.948,236.830 176.206,237.020 175.083 C 237.197 174.034,237.793 172.945,238.745 171.934 C 239.545 171.084,240.599 169.942,241.086 169.395 C 242.110 168.244,244.907 168.005,246.208 168.957 M94.667 172.849 C 93.481 173.541,91.597 175.672,91.377 176.570 C 90.862 178.666,91.394 192.511,92.000 192.808 C 94.112 193.846,95.547 194.296,95.850 194.018 C 96.043 193.841,96.856 193.487,97.659 193.231 C 98.843 192.853,99.162 192.524,99.355 191.483 C 100.994 182.624,99.994 172.800,97.453 172.800 C 96.910 172.800,96.226 172.715,95.933 172.611 C 95.640 172.507,95.070 172.614,94.667 172.849 M174.414 178.616 C 174.695 178.955,175.339 180.125,175.844 181.216 C 176.350 182.307,176.954 183.200,177.187 183.200 C 177.420 183.200,178.003 184.009,178.484 184.998 C 178.964 185.987,179.687 186.901,180.089 187.028 C 181.370 187.435,182.052 188.933,181.767 190.715 C 181.518 192.272,181.569 192.370,183.123 193.351 C 184.010 193.912,184.854 194.739,184.997 195.189 C 185.140 195.640,185.781 196.280,186.423 196.612 C 187.605 197.223,187.898 197.887,188.092 200.395 C 188.175 201.469,188.494 201.975,189.480 202.595 C 190.184 203.038,190.954 203.935,191.190 204.589 C 191.427 205.242,192.050 206.232,192.575 206.789 C 193.101 207.345,193.736 208.577,193.988 209.527 C 194.330 210.818,194.788 211.456,195.802 212.054 C 196.855 212.676,197.297 213.319,197.775 214.927 C 198.114 216.067,198.843 217.424,199.396 217.942 C 199.948 218.460,200.400 219.210,200.400 219.608 C 200.400 220.007,201.096 220.884,201.947 221.558 C 203.280 222.614,203.534 223.076,203.773 224.885 C 203.993 226.543,204.306 227.198,205.257 227.993 L 206.462 229.000 206.417 252.592 C 206.365 279.475,206.549 278.000,203.240 278.000 C 201.965 278.000,201.119 277.785,200.778 277.374 C 199.432 275.752,198.393 275.605,187.498 275.501 C 178.178 275.412,176.839 275.318,175.976 274.697 C 172.884 272.471,173.594 272.607,164.419 272.496 C 154.997 272.381,151.885 272.005,150.626 270.828 C 149.490 269.767,146.393 269.060,143.920 269.298 C 142.123 269.471,141.735 269.371,140.883 268.519 L 139.906 267.542 140.092 244.071 C 140.289 219.273,140.273 219.493,142.015 218.592 C 142.720 218.228,143.315 217.456,143.625 216.507 C 143.895 215.678,144.525 214.509,145.024 213.910 C 145.524 213.310,146.052 212.273,146.199 211.605 C 146.358 210.882,147.045 209.949,147.898 209.298 C 149.901 207.770,153.599 204.174,153.603 203.752 C 153.604 203.558,154.120 203.107,154.749 202.749 C 155.539 202.300,155.974 201.663,156.156 200.692 C 156.302 199.918,156.956 198.611,157.610 197.787 C 158.265 196.964,158.800 196.115,158.800 195.902 C 158.800 195.688,161.050 193.299,163.800 190.592 C 166.550 187.886,168.800 185.489,168.800 185.266 C 168.800 185.044,169.252 184.324,169.805 183.667 C 170.358 183.010,171.082 181.692,171.415 180.736 C 172.272 178.281,173.446 177.451,174.414 178.616 M241.030 195.952 C 240.476 196.830,239.747 197.702,239.409 197.891 C 238.194 198.571,240.121 212.603,241.717 214.700 C 242.617 215.881,246.400 214.803,246.400 213.366 C 246.400 213.042,246.918 211.747,247.551 210.489 C 249.880 205.856,250.143 199.597,248.077 197.978 C 247.485 197.514,246.729 196.564,246.398 195.867 C 245.386 193.734,242.401 193.781,241.030 195.952 M346.449 206.849 L 347.298 207.698 347.071 229.881 C 346.810 255.444,347.252 253.200,342.483 253.200 C 339.032 253.200,337.600 253.732,337.600 255.013 C 337.600 256.189,336.299 256.600,332.991 256.470 C 329.786 256.345,329.683 256.370,328.856 257.471 C 328.390 258.092,327.820 258.825,327.589 259.100 C 327.351 259.382,326.260 259.600,325.082 259.600 C 322.183 259.600,320.555 260.149,319.221 261.577 C 318.214 262.656,317.818 262.800,315.866 262.800 C 313.190 262.800,311.903 263.252,310.123 264.814 C 308.946 265.847,308.463 266.000,306.366 266.000 C 304.067 266.000,301.600 266.810,301.600 267.565 C 301.600 268.321,298.688 269.290,297.066 269.073 C 295.245 268.829,294.174 269.250,293.000 270.672 C 292.049 271.823,289.812 272.406,287.523 272.099 C 285.959 271.889,285.786 271.973,284.334 273.639 L 282.798 275.400 281.799 274.278 L 280.800 273.155 280.800 249.640 C 280.800 221.932,280.246 224.585,285.994 224.750 L 289.556 224.853 290.604 223.194 L 291.652 221.534 294.926 221.607 C 299.366 221.706,299.130 221.774,299.887 220.188 C 300.700 218.481,301.564 218.214,305.265 218.524 C 308.217 218.772,308.225 218.768,309.921 216.485 C 310.516 215.684,311.047 215.545,314.200 215.360 C 319.019 215.078,319.360 214.987,321.019 213.530 C 322.390 212.326,322.607 212.270,326.062 212.235 L 329.672 212.199 330.875 210.699 L 332.078 209.200 335.494 209.200 L 338.911 209.200 340.646 207.600 C 342.725 205.684,344.991 205.391,346.449 206.849 M324.000 222.672 C 323.670 222.797,322.916 223.350,322.326 223.900 C 321.735 224.451,320.835 225.108,320.326 225.362 C 319.187 225.929,318.640 243.881,319.717 245.354 C 320.701 246.700,323.490 246.875,324.405 245.648 C 325.379 244.342,325.543 244.179,326.900 243.164 L 328.000 242.342 327.994 233.471 C 327.987 222.716,327.482 221.351,324.000 222.672 M166.387 229.900 C 166.171 230.505,165.702 231.519,165.344 232.152 C 164.644 233.391,164.701 236.025,165.645 246.000 C 166.299 252.917,165.833 252.445,171.880 252.312 L 176.965 252.200 177.320 250.600 C 177.968 247.680,177.294 229.886,176.513 229.300 C 176.072 228.969,174.318 228.800,171.314 228.800 L 166.780 228.800 166.387 229.900 M301.621 231.214 C 297.357 233.340,297.200 233.721,297.200 241.955 L 297.200 248.523 298.700 250.030 C 299.525 250.858,300.515 251.911,300.900 252.368 C 302.210 253.925,306.400 253.051,306.400 251.220 C 306.400 251.011,306.985 250.294,307.700 249.626 L 309.000 248.411 309.137 241.049 C 309.291 232.801,309.202 232.425,306.787 231.193 C 305.914 230.748,305.200 230.207,305.200 229.992 C 305.200 229.457,305.024 229.518,301.621 231.214 M367.200 238.400 C 367.200 238.953,367.467 239.200,368.062 239.200 C 368.899 239.200,368.903 239.176,368.200 238.400 C 367.802 237.960,367.414 237.600,367.338 237.600 C 367.262 237.600,367.200 237.960,367.200 238.400 M42.838 264.400 C 42.802 265.245,43.243 265.802,44.400 266.376 L 45.400 266.871 44.340 265.936 C 43.757 265.421,43.186 264.730,43.071 264.400 C 42.886 263.867,42.860 263.867,42.838 264.400 M68.632 275.276 C 68.294 275.758,68.092 276.225,68.182 276.315 C 68.398 276.531,70.371 275.086,70.387 274.700 C 70.415 274.053,69.212 274.447,68.632 275.276 M80.400 292.400 C 80.400 292.919,81.881 294.400,82.400 294.400 C 83.063 294.400,82.854 293.790,81.874 292.870 C 80.868 291.924,80.400 291.775,80.400 292.400 M105.600 298.800 C 105.600 299.319,107.081 300.800,107.600 300.800 C 108.254 300.800,108.062 300.349,106.979 299.346 C 105.855 298.304,105.600 298.203,105.600 298.800 M149.305 307.887 C 149.914 307.979,150.814 307.977,151.305 307.882 C 151.797 307.787,151.300 307.711,150.200 307.714 C 149.100 307.717,148.697 307.795,149.305 307.887 M193.164 311.533 C 193.635 312.414,194.324 312.977,195.400 313.362 C 195.975 313.568,195.812 313.248,194.822 312.225 C 193.334 310.687,192.532 310.353,193.164 311.533 " stroke="none" fill="#153a4a" fill-rule="evenodd"></path><path id="path4" d="M215.996 134.500 C 215.244 135.733,215.203 136.550,215.201 150.295 L 215.200 164.790 216.848 165.830 C 218.465 166.851,218.492 166.905,218.286 168.734 C 218.084 170.528,218.142 170.657,219.838 172.215 C 220.807 173.104,221.600 174.116,221.600 174.462 C 221.600 174.809,221.982 175.577,222.448 176.170 L 223.296 177.249 224.237 176.366 C 224.754 175.880,225.367 174.905,225.600 174.200 C 225.833 173.495,226.459 172.719,226.992 172.476 C 227.525 172.233,228.249 171.479,228.600 170.800 C 228.951 170.121,229.671 169.401,230.200 169.200 C 230.729 168.999,231.467 168.244,231.840 167.522 C 232.213 166.800,233.004 165.757,233.596 165.203 C 234.229 164.612,234.797 163.537,234.972 162.598 C 235.153 161.626,235.765 160.495,236.535 159.711 C 238.795 157.407,239.791 156.395,240.291 155.893 C 242.361 153.814,242.984 153.211,243.645 152.645 C 245.611 150.964,244.483 137.586,242.281 136.461 C 241.796 136.214,240.891 135.604,240.269 135.106 C 239.168 134.224,238.887 134.199,229.469 134.162 C 223.159 134.137,219.409 133.964,218.674 133.662 C 217.058 132.999,216.876 133.056,215.996 134.500 M256.000 134.645 C 255.450 135.034,254.870 135.563,254.711 135.821 C 254.552 136.079,253.616 136.516,252.631 136.791 C 249.637 137.629,249.459 138.044,249.689 143.626 C 249.952 150.010,249.881 149.937,256.132 150.272 C 263.363 150.660,264.000 149.855,264.000 140.341 C 264.000 134.366,264.023 134.399,259.615 134.110 C 257.561 133.975,256.785 134.090,256.000 134.645 M237.073 136.655 C 237.824 137.801,239.809 138.800,241.337 138.800 C 242.607 138.800,242.800 139.835,242.800 146.628 L 242.800 151.956 241.704 152.482 C 241.101 152.771,240.363 153.516,240.065 154.138 C 239.767 154.760,239.014 155.446,238.391 155.663 C 237.699 155.904,237.104 156.499,236.863 157.191 C 236.646 157.814,235.963 158.566,235.345 158.862 C 234.613 159.213,234.007 159.983,233.604 161.076 C 233.263 161.998,232.576 163.187,232.076 163.719 C 231.576 164.252,230.982 165.356,230.756 166.174 C 230.455 167.265,230.044 167.766,229.210 168.056 C 228.578 168.277,227.815 168.989,227.488 169.664 C 227.165 170.331,226.477 171.087,225.958 171.346 C 225.440 171.604,224.808 172.232,224.554 172.742 C 223.670 174.516,223.289 174.587,222.664 173.092 C 222.328 172.287,221.584 171.445,220.937 171.136 C 219.930 170.655,219.777 170.333,219.597 168.313 C 219.385 165.939,219.093 165.419,217.534 164.642 L 216.600 164.176 216.600 151.388 C 216.600 144.355,216.738 138.108,216.906 137.506 L 217.212 136.413 223.306 136.663 C 230.631 136.963,232.364 136.925,232.953 136.448 C 233.436 136.057,234.585 135.721,235.691 135.646 C 236.071 135.621,236.692 136.075,237.073 136.655 M259.200 136.006 C 259.733 136.356,259.733 136.444,259.200 136.794 C 258.243 137.422,257.600 137.264,257.600 136.400 C 257.600 135.536,258.243 135.378,259.200 136.006 M254.000 139.265 C 254.000 139.521,253.511 140.556,252.913 141.565 L 251.826 143.400 251.560 142.200 C 250.922 139.316,251.080 138.800,252.600 138.800 C 253.397 138.800,254.000 139.000,254.000 139.265 M94.096 144.460 C 93.713 144.933,93.063 145.631,92.650 146.010 C 92.238 146.390,91.608 147.007,91.250 147.383 C 90.892 147.759,89.835 148.823,88.900 149.749 C 87.428 151.207,87.200 151.661,87.200 153.142 C 87.200 154.914,85.227 157.380,82.245 159.334 C 81.651 159.723,81.010 160.437,80.822 160.921 C 80.634 161.404,79.939 162.313,79.277 162.939 C 78.580 163.599,77.959 164.691,77.801 165.533 C 77.638 166.405,76.902 167.668,75.964 168.685 C 75.104 169.618,74.400 170.537,74.400 170.727 C 74.400 170.916,73.942 171.280,73.381 171.536 C 72.821 171.791,72.062 172.524,71.694 173.165 C 71.326 173.806,70.536 174.620,69.939 174.972 C 69.158 175.434,68.672 176.235,68.210 177.826 C 67.856 179.043,67.318 180.133,67.014 180.250 C 66.711 180.366,66.177 181.175,65.828 182.046 C 65.430 183.042,64.682 183.933,63.815 184.444 C 63.056 184.892,62.332 185.560,62.205 185.929 C 62.078 186.298,61.395 186.963,60.687 187.406 L 59.400 188.213 59.151 192.606 C 59.014 195.023,58.879 207.997,58.851 221.438 C 58.794 248.841,58.570 246.830,61.747 247.419 C 62.598 247.577,63.903 248.242,64.648 248.896 C 66.452 250.480,67.996 250.779,74.424 250.790 C 82.223 250.804,81.362 253.113,81.600 231.536 L 81.800 213.407 83.155 212.767 C 83.901 212.415,84.762 211.649,85.068 211.064 C 85.617 210.016,85.694 209.999,90.113 209.923 C 97.825 209.790,98.412 209.880,100.017 211.431 C 101.043 212.422,101.795 212.800,102.743 212.800 C 104.705 212.800,105.535 213.423,105.813 215.105 C 106.171 217.267,106.811 218.766,107.552 219.181 C 108.129 219.503,108.222 221.450,108.400 236.871 C 108.608 254.929,108.663 255.470,110.360 256.379 C 111.920 257.214,130.423 257.057,131.047 256.203 C 131.483 255.607,131.600 253.321,131.600 245.413 C 131.600 233.508,131.554 233.344,128.363 233.767 C 124.645 234.260,123.557 227.578,127.023 225.534 C 127.954 224.984,128.524 224.214,128.971 222.902 C 129.319 221.883,129.972 220.656,130.422 220.176 C 130.873 219.697,131.379 218.786,131.548 218.152 C 131.720 217.506,132.458 216.593,133.227 216.074 C 133.982 215.565,134.808 214.755,135.062 214.274 C 135.317 213.793,136.082 212.990,136.762 212.488 C 138.839 210.958,138.547 203.246,136.352 201.689 C 135.956 201.407,135.514 200.551,135.371 199.785 C 135.067 198.167,133.804 196.400,132.951 196.400 C 132.625 196.400,132.081 195.725,131.741 194.900 C 131.401 194.075,130.767 193.014,130.332 192.543 C 129.897 192.071,129.312 190.901,129.031 189.943 C 128.679 188.737,128.108 187.918,127.178 187.284 C 126.439 186.780,125.620 185.858,125.358 185.235 C 125.096 184.612,124.483 183.823,123.995 183.481 C 123.422 183.080,122.983 182.193,122.755 180.973 C 122.358 178.846,121.849 178.075,120.506 177.564 C 119.502 177.182,119.390 176.967,119.009 174.678 C 118.859 173.775,118.343 172.799,117.741 172.278 C 117.182 171.795,116.517 170.913,116.263 170.318 C 116.008 169.723,115.170 168.817,114.400 168.305 C 113.202 167.508,112.982 167.118,112.873 165.602 C 112.772 164.192,112.425 163.482,111.173 162.124 C 110.308 161.186,109.600 160.252,109.600 160.048 C 109.600 159.845,108.970 159.307,108.200 158.853 C 107.026 158.160,106.800 157.802,106.800 156.632 C 106.800 154.877,106.089 153.282,105.178 152.993 C 104.793 152.871,104.174 152.131,103.803 151.350 C 103.380 150.458,102.640 149.725,101.815 149.381 C 100.524 148.841,100.017 147.930,100.005 146.129 C 99.992 143.924,95.546 142.668,94.096 144.460 M98.800 149.567 C 98.800 149.768,99.557 150.186,100.482 150.494 C 101.841 150.947,102.226 151.298,102.493 152.325 C 102.674 153.024,103.255 153.880,103.786 154.227 C 104.320 154.577,104.861 155.425,105.000 156.129 C 105.463 158.481,106.062 159.529,107.217 160.007 C 107.972 160.320,108.520 160.953,108.818 161.855 C 109.068 162.611,109.691 163.504,110.205 163.840 C 110.825 164.246,111.232 165.014,111.416 166.126 C 111.795 168.417,112.191 169.049,113.540 169.519 C 114.419 169.826,114.758 170.252,114.954 171.296 C 115.096 172.051,115.740 173.260,116.385 173.983 C 117.030 174.705,117.673 175.823,117.814 176.466 C 117.984 177.237,118.603 177.971,119.636 178.622 C 121.110 179.553,121.200 179.723,121.200 181.585 C 121.200 183.382,121.330 183.658,122.639 184.657 C 123.431 185.261,124.238 186.173,124.432 186.685 C 124.627 187.196,125.280 187.802,125.885 188.032 C 127.318 188.577,127.586 189.055,127.594 191.071 C 127.599 192.428,127.817 192.917,128.754 193.671 C 129.389 194.182,130.198 195.175,130.553 195.878 C 130.907 196.580,131.691 197.392,132.294 197.681 C 133.194 198.112,133.442 198.561,133.673 200.180 C 133.896 201.736,134.256 202.429,135.378 203.456 C 136.902 204.853,136.996 205.312,136.537 209.133 C 136.325 210.895,136.114 211.328,135.321 211.630 C 134.793 211.831,134.106 212.605,133.795 213.351 C 133.423 214.242,132.868 214.797,132.175 214.970 C 131.436 215.156,130.942 215.694,130.518 216.773 C 130.186 217.619,129.488 218.505,128.968 218.742 C 128.034 219.168,127.883 219.531,127.399 222.529 C 127.201 223.760,126.924 224.138,125.978 224.468 C 125.168 224.750,124.575 225.393,124.067 226.539 C 123.662 227.452,123.031 228.447,122.665 228.749 C 121.784 229.476,121.823 230.277,122.765 230.781 C 123.186 231.007,123.842 232.006,124.222 233.002 C 124.961 234.937,125.278 235.112,128.400 235.295 L 130.200 235.400 130.307 244.950 C 130.374 250.889,130.264 254.682,130.015 254.982 C 129.581 255.505,112.137 255.579,111.301 255.062 C 110.295 254.441,110.032 250.368,110.009 235.064 C 109.986 218.927,109.905 217.952,108.482 216.671 C 108.036 216.269,107.554 215.459,107.409 214.871 C 106.969 213.081,106.103 212.096,104.514 211.579 C 103.681 211.308,102.288 210.527,101.417 209.843 L 99.835 208.600 92.811 208.469 C 85.438 208.331,83.600 208.756,83.600 210.596 C 83.600 210.892,82.925 211.464,82.100 211.867 L 80.600 212.600 80.390 230.800 C 80.274 240.810,80.139 249.061,80.090 249.136 C 79.532 249.981,67.435 248.890,66.662 247.925 C 65.657 246.672,64.098 246.000,62.198 246.000 C 60.192 246.000,60.253 246.817,60.335 221.256 C 60.422 194.304,60.367 194.773,63.591 193.259 C 64.492 192.836,65.047 192.269,65.129 191.689 C 65.200 191.190,65.785 190.391,66.429 189.915 C 67.073 189.439,67.601 188.678,67.602 188.225 C 67.607 186.352,68.463 184.354,69.454 183.903 C 70.007 183.650,70.728 182.926,71.056 182.292 C 71.383 181.659,72.178 180.957,72.822 180.732 C 73.466 180.508,74.221 179.848,74.500 179.266 C 74.779 178.684,75.494 177.974,76.089 177.689 C 76.781 177.357,77.307 176.676,77.550 175.797 C 77.758 175.041,78.350 173.840,78.865 173.127 C 79.379 172.414,79.988 171.104,80.217 170.215 C 80.540 168.967,80.942 168.454,81.987 167.957 C 82.732 167.603,83.486 166.920,83.664 166.438 C 83.842 165.957,84.537 165.371,85.207 165.138 C 86.012 164.857,86.618 164.251,86.994 163.354 C 87.317 162.579,87.999 161.828,88.581 161.607 C 89.466 161.271,89.600 160.982,89.600 159.410 C 89.600 157.539,90.579 156.000,91.769 156.000 C 92.082 156.000,92.552 155.352,92.813 154.561 C 93.118 153.635,93.773 152.835,94.644 152.321 C 95.390 151.881,96.000 151.282,96.000 150.989 C 96.000 150.697,96.283 150.174,96.629 149.829 C 97.308 149.149,98.800 148.969,98.800 149.567 M84.000 160.951 C 84.000 161.034,83.730 161.326,83.400 161.600 C 82.909 162.008,82.800 161.980,82.800 161.449 C 82.800 161.092,83.070 160.800,83.400 160.800 C 83.730 160.800,84.000 160.868,84.000 160.951 M241.086 169.395 C 240.599 169.942,239.545 171.084,238.745 171.934 C 237.793 172.945,237.197 174.034,237.020 175.083 C 236.830 176.206,236.396 176.948,235.574 177.556 C 234.928 178.033,234.400 178.600,234.400 178.816 C 234.400 179.032,232.973 180.665,231.228 182.445 C 228.647 185.078,228.006 185.983,227.782 187.305 C 227.617 188.284,227.080 189.341,226.432 189.965 C 225.840 190.534,225.143 191.500,224.882 192.111 C 224.620 192.722,224.090 193.333,223.703 193.468 C 223.317 193.603,222.336 194.363,221.524 195.157 C 220.712 195.950,219.677 196.915,219.224 197.300 C 218.618 197.815,218.400 198.476,218.400 199.798 C 218.400 201.501,218.243 201.754,215.461 204.526 L 212.522 207.456 212.257 211.828 C 212.112 214.232,211.882 227.000,211.746 240.200 C 211.461 267.938,211.159 265.771,215.400 266.379 C 216.720 266.568,218.814 267.260,220.054 267.916 C 224.000 270.004,230.468 270.088,231.471 268.063 C 231.652 267.699,231.890 258.910,232.000 248.533 C 232.110 238.156,232.350 229.516,232.533 229.333 C 233.530 228.338,245.033 228.976,246.681 230.118 C 247.568 230.732,248.993 231.426,249.847 231.659 C 252.566 232.402,252.400 231.088,252.400 251.849 C 252.400 273.781,252.143 272.400,256.226 272.400 C 258.539 272.400,259.722 272.811,260.881 274.017 C 261.863 275.039,265.030 275.600,269.820 275.600 C 276.299 275.600,275.600 279.446,275.600 243.819 L 275.600 213.638 274.000 212.352 C 273.120 211.645,272.400 210.832,272.400 210.547 C 272.400 210.261,271.878 209.434,271.241 208.707 C 270.603 207.981,269.876 206.626,269.626 205.695 C 269.163 203.978,269.049 203.828,267.100 202.367 C 266.495 201.913,266.000 201.209,266.000 200.802 C 266.000 200.395,265.543 199.518,264.983 198.853 C 264.424 198.189,263.691 196.835,263.353 195.844 C 262.924 194.585,262.343 193.809,261.422 193.266 C 260.322 192.617,260.057 192.172,259.818 190.580 C 259.597 189.109,259.218 188.394,258.166 187.462 C 257.415 186.797,256.800 186.029,256.800 185.755 C 256.800 185.482,256.305 184.887,255.700 184.433 C 255.095 183.980,254.375 183.420,254.100 183.189 C 253.825 182.957,253.600 181.884,253.600 180.800 C 253.600 179.445,253.394 178.671,252.940 178.316 C 252.576 178.032,251.589 177.098,250.746 176.240 C 249.902 175.382,248.804 174.477,248.306 174.230 C 247.586 173.872,247.356 173.343,247.185 171.646 C 246.850 168.326,243.228 166.989,241.086 169.395 M92.305 171.826 C 90.210 172.963,90.006 173.964,89.930 183.481 C 89.853 193.177,89.942 193.762,91.585 194.335 C 92.219 194.556,93.231 195.291,93.835 195.968 C 95.177 197.475,95.376 197.484,96.653 196.100 C 97.212 195.495,98.233 194.730,98.923 194.400 C 99.768 193.996,100.378 193.277,100.789 192.200 C 101.125 191.320,101.760 190.068,102.200 189.418 C 103.445 187.579,103.403 177.306,102.146 175.933 C 101.676 175.420,101.174 174.610,101.029 174.133 C 100.168 171.286,95.550 170.065,92.305 171.826 M97.453 172.800 C 99.994 172.800,100.994 182.624,99.355 191.483 C 99.162 192.524,98.843 192.853,97.659 193.231 C 96.856 193.487,96.043 193.841,95.850 194.018 C 95.547 194.296,94.112 193.846,92.000 192.808 C 91.394 192.511,90.862 178.666,91.377 176.570 C 91.774 174.949,94.891 172.241,95.933 172.611 C 96.226 172.715,96.910 172.800,97.453 172.800 M247.034 175.399 C 248.195 175.948,249.256 176.745,249.390 177.170 C 249.525 177.594,250.257 178.309,251.018 178.757 C 252.323 179.528,252.400 179.693,252.400 181.738 C 252.400 183.952,252.704 184.477,254.515 185.384 C 254.971 185.613,255.478 186.300,255.641 186.911 C 255.803 187.522,256.491 188.654,257.168 189.425 C 257.846 190.197,258.400 191.083,258.400 191.395 C 258.400 192.555,259.367 194.027,260.279 194.256 C 261.460 194.552,262.000 195.536,262.000 197.394 C 262.000 198.522,262.300 199.123,263.360 200.120 C 264.108 200.824,264.836 201.792,264.978 202.271 C 265.119 202.750,265.857 203.509,266.618 203.957 C 267.834 204.675,268.000 204.968,268.000 206.402 C 268.000 207.775,268.252 208.279,269.600 209.600 C 270.480 210.463,271.200 211.452,271.200 211.798 C 271.200 212.144,271.831 212.799,272.603 213.254 L 274.005 214.082 273.903 243.916 L 273.800 273.749 272.432 274.104 C 270.302 274.656,265.606 273.878,263.760 272.668 C 262.310 271.717,259.236 270.977,255.600 270.705 L 254.200 270.600 254.000 251.264 L 253.800 231.929 252.856 231.164 C 252.336 230.744,251.668 230.400,251.370 230.400 C 251.072 230.400,250.222 229.868,249.480 229.217 C 246.459 226.564,232.161 226.258,230.792 228.816 C 230.552 229.263,230.400 236.841,230.400 248.325 C 230.400 264.601,230.319 267.169,229.795 267.604 C 228.704 268.510,223.758 267.896,222.476 266.697 C 221.133 265.440,220.193 265.153,216.412 264.845 L 213.400 264.600 213.297 240.441 L 213.194 216.281 214.193 214.575 C 214.796 213.547,215.783 212.577,216.677 212.135 C 217.955 211.502,218.223 211.122,218.611 209.400 C 218.858 208.300,219.542 206.700,220.130 205.844 C 220.719 204.988,221.200 204.077,221.200 203.818 C 221.200 203.560,221.833 203.046,222.607 202.677 C 223.381 202.308,224.209 201.580,224.446 201.058 C 224.684 200.537,225.442 199.861,226.132 199.555 C 227.166 199.098,227.447 198.683,227.729 197.200 C 227.917 196.210,228.476 194.950,228.972 194.400 C 229.467 193.850,230.112 192.793,230.405 192.051 C 230.752 191.173,231.386 190.514,232.222 190.165 C 233.004 189.838,233.602 189.248,233.750 188.655 C 233.885 188.120,234.626 187.310,235.397 186.855 C 236.257 186.347,236.800 185.717,236.800 185.227 C 236.800 184.788,237.321 183.835,237.958 183.109 C 238.615 182.361,239.268 181.015,239.469 179.996 C 239.769 178.476,240.057 178.077,241.344 177.400 C 242.181 176.960,243.060 176.240,243.298 175.800 C 243.698 175.063,244.371 174.421,244.761 174.406 C 244.850 174.403,245.873 174.849,247.034 175.399 M172.687 178.500 C 172.321 178.775,171.749 179.781,171.415 180.736 C 171.082 181.692,170.358 183.010,169.805 183.667 C 169.252 184.324,168.800 185.044,168.800 185.266 C 168.800 185.489,166.550 187.886,163.800 190.592 C 161.050 193.299,158.800 195.688,158.800 195.902 C 158.800 196.115,158.265 196.964,157.610 197.787 C 156.956 198.611,156.302 199.918,156.156 200.692 C 155.974 201.663,155.539 202.300,154.749 202.749 C 154.120 203.107,153.604 203.558,153.603 203.752 C 153.599 204.174,149.901 207.770,147.898 209.298 C 147.045 209.949,146.358 210.882,146.199 211.605 C 146.052 212.273,145.524 213.310,145.024 213.910 C 144.525 214.509,143.895 215.678,143.625 216.507 C 143.315 217.456,142.720 218.228,142.015 218.592 C 140.273 219.493,140.289 219.273,140.092 244.071 L 139.906 267.542 140.883 268.519 C 141.735 269.371,142.123 269.471,143.920 269.298 C 146.393 269.060,149.490 269.767,150.626 270.828 C 151.885 272.005,154.997 272.381,164.419 272.496 C 173.594 272.607,172.884 272.471,175.976 274.697 C 176.839 275.318,178.178 275.412,187.498 275.501 C 198.393 275.605,199.432 275.752,200.778 277.374 C 201.119 277.785,201.965 278.000,203.240 278.000 C 206.549 278.000,206.365 279.475,206.417 252.592 L 206.462 229.000 205.257 227.993 C 204.306 227.198,203.993 226.543,203.773 224.885 C 203.534 223.076,203.280 222.614,201.947 221.558 C 201.096 220.884,200.400 220.007,200.400 219.608 C 200.400 219.210,199.948 218.460,199.396 217.942 C 198.843 217.424,198.114 216.067,197.775 214.927 C 197.297 213.319,196.855 212.676,195.802 212.054 C 194.788 211.456,194.330 210.818,193.988 209.527 C 193.736 208.577,193.101 207.345,192.575 206.789 C 192.050 206.232,191.427 205.242,191.190 204.589 C 190.954 203.935,190.184 203.038,189.480 202.595 C 188.494 201.975,188.175 201.469,188.092 200.395 C 187.898 197.887,187.605 197.223,186.423 196.612 C 185.781 196.280,185.140 195.640,184.997 195.189 C 184.854 194.739,184.010 193.912,183.123 193.351 C 181.569 192.370,181.518 192.272,181.767 190.715 C 182.052 188.933,181.370 187.435,180.089 187.028 C 179.687 186.901,178.964 185.987,178.484 184.998 C 178.003 184.009,177.420 183.200,177.187 183.200 C 176.954 183.200,176.350 182.307,175.844 181.216 C 174.369 178.032,173.876 177.608,172.687 178.500 M234.000 182.951 C 234.000 183.034,233.730 183.326,233.400 183.600 C 232.909 184.008,232.800 183.980,232.800 183.449 C 232.800 183.092,233.070 182.800,233.400 182.800 C 233.730 182.800,234.000 182.868,234.000 182.951 M177.422 186.190 C 177.747 186.969,178.530 187.854,179.201 188.201 C 180.299 188.768,180.401 188.996,180.406 190.910 C 180.413 193.350,180.578 193.672,182.253 194.530 C 182.965 194.895,183.615 195.607,183.759 196.179 C 183.898 196.733,184.548 197.463,185.206 197.803 C 186.104 198.267,186.400 198.701,186.400 199.551 C 186.400 201.668,187.206 203.192,188.644 203.792 C 189.670 204.221,190.000 204.601,190.000 205.354 C 190.000 206.772,190.692 208.401,191.716 209.397 C 192.202 209.869,192.908 210.829,193.283 211.531 C 193.659 212.233,194.400 212.972,194.929 213.173 C 196.073 213.608,196.400 214.330,196.400 216.421 C 196.400 217.695,196.623 218.141,197.636 218.888 C 198.315 219.390,199.116 220.386,199.416 221.103 C 199.716 221.819,200.406 222.574,200.949 222.781 C 201.786 223.099,201.981 223.509,202.226 225.466 C 202.447 227.240,202.778 228.039,203.651 228.913 L 204.789 230.050 204.360 233.925 C 204.123 236.056,203.880 245.885,203.818 255.767 C 203.691 275.992,203.817 275.207,200.800 274.554 C 200.030 274.388,195.350 274.227,190.400 274.197 C 180.665 274.139,180.579 274.127,176.956 272.342 L 174.513 271.138 165.556 271.063 L 156.600 270.987 154.095 269.624 C 151.740 268.343,151.295 268.247,146.695 268.030 L 141.800 267.800 141.800 248.000 C 141.800 225.694,141.838 225.380,144.677 224.194 C 145.505 223.848,146.066 223.278,146.233 222.612 C 146.377 222.036,147.008 221.306,147.647 220.976 C 148.640 220.462,148.801 220.145,148.806 218.690 C 148.813 216.520,149.545 215.096,150.803 214.800 C 151.351 214.672,152.036 214.077,152.324 213.478 C 152.612 212.880,153.443 212.142,154.170 211.838 C 155.021 211.483,155.584 210.917,155.752 210.250 C 155.898 209.667,156.533 208.945,157.206 208.597 C 157.987 208.193,158.401 207.672,158.402 207.090 C 158.407 205.192,159.206 203.326,160.209 202.869 C 160.763 202.616,161.390 201.953,161.602 201.395 C 161.814 200.837,162.592 200.024,163.331 199.588 C 164.069 199.152,164.874 198.355,165.119 197.817 C 165.365 197.279,166.092 196.566,166.735 196.233 C 167.576 195.798,167.981 195.228,168.173 194.206 C 168.319 193.423,168.950 192.202,169.573 191.491 C 170.196 190.781,170.988 189.525,171.333 188.700 C 171.677 187.875,172.142 187.200,172.366 187.200 C 172.589 187.200,173.325 186.660,174.000 186.000 C 175.655 184.382,176.690 184.440,177.422 186.190 M240.686 193.795 C 240.199 194.342,239.125 195.504,238.300 196.379 L 236.800 197.968 236.828 201.484 C 236.882 208.083,237.325 211.210,238.323 212.018 C 238.814 212.416,239.472 213.354,239.785 214.103 C 240.996 217.000,245.956 217.489,247.278 214.842 C 247.651 214.094,248.524 212.897,249.218 212.181 L 250.480 210.879 250.697 205.093 C 250.949 198.361,250.788 197.421,249.251 196.626 C 248.625 196.303,247.879 195.474,247.594 194.785 C 246.673 192.561,242.338 191.939,240.686 193.795 M246.398 195.867 C 246.729 196.564,247.485 197.514,248.077 197.978 C 250.143 199.597,249.880 205.856,247.551 210.489 C 246.918 211.747,246.400 213.042,246.400 213.366 C 246.400 214.803,242.617 215.881,241.717 214.700 C 240.121 212.603,238.194 198.571,239.409 197.891 C 239.747 197.702,240.476 196.830,241.030 195.952 C 242.401 193.781,245.386 193.734,246.398 195.867 M340.646 207.600 L 338.911 209.200 335.494 209.200 L 332.078 209.200 330.875 210.699 L 329.672 212.199 326.062 212.235 C 322.607 212.270,322.390 212.326,321.019 213.530 C 319.360 214.987,319.019 215.078,314.200 215.360 C 311.047 215.545,310.516 215.684,309.921 216.485 C 308.225 218.768,308.217 218.772,305.265 218.524 C 301.564 218.214,300.700 218.481,299.887 220.188 C 299.130 221.774,299.366 221.706,294.926 221.607 L 291.652 221.534 290.604 223.194 L 289.556 224.853 285.994 224.750 C 280.246 224.585,280.800 221.932,280.800 249.640 L 280.800 273.155 281.799 274.278 L 282.798 275.400 284.334 273.639 C 285.786 271.973,285.959 271.889,287.523 272.099 C 289.812 272.406,292.049 271.823,293.000 270.672 C 294.174 269.250,295.245 268.829,297.066 269.073 C 298.688 269.290,301.600 268.321,301.600 267.565 C 301.600 266.810,304.067 266.000,306.366 266.000 C 308.463 266.000,308.946 265.847,310.123 264.814 C 311.903 263.252,313.190 262.800,315.866 262.800 C 317.818 262.800,318.214 262.656,319.221 261.577 C 320.555 260.149,322.183 259.600,325.082 259.600 C 326.260 259.600,327.351 259.382,327.589 259.100 C 327.820 258.825,328.390 258.092,328.856 257.471 C 329.683 256.370,329.786 256.345,332.991 256.470 C 336.299 256.600,337.600 256.189,337.600 255.013 C 337.600 253.732,339.032 253.200,342.483 253.200 C 347.252 253.200,346.810 255.444,347.071 229.881 L 347.298 207.698 346.449 206.849 C 344.991 205.391,342.725 205.684,340.646 207.600 M150.140 211.411 C 149.860 212.141,148.400 213.010,148.400 212.447 C 148.400 212.237,148.291 211.781,148.157 211.433 C 147.968 210.940,148.187 210.800,149.145 210.800 C 150.084 210.800,150.319 210.945,150.140 211.411 M324.400 214.600 C 324.126 214.930,323.744 215.200,323.551 215.200 C 323.358 215.200,323.200 214.930,323.200 214.600 C 323.200 214.255,323.561 214.000,324.049 214.000 C 324.758 214.000,324.816 214.099,324.400 214.600 M302.709 220.336 C 303.099 220.583,303.028 220.832,302.409 221.391 C 301.616 222.109,301.600 222.103,301.600 221.062 C 301.600 219.955,301.851 219.791,302.709 220.336 M327.485 223.600 C 327.844 224.312,327.990 227.151,327.994 233.471 L 328.000 242.342 326.900 243.164 C 325.543 244.179,325.379 244.342,324.405 245.648 C 323.490 246.875,320.701 246.700,319.717 245.354 C 318.640 243.881,319.187 225.929,320.326 225.362 C 320.835 225.108,321.735 224.451,322.326 223.900 C 324.294 222.067,326.645 221.930,327.485 223.600 M284.852 228.663 C 284.990 229.797,285.105 239.615,285.108 250.481 L 285.112 270.236 283.986 270.882 C 283.367 271.237,282.757 271.424,282.631 271.297 C 282.316 270.983,282.336 227.832,282.651 227.012 C 283.237 225.484,284.587 226.497,284.852 228.663 M166.225 227.690 C 165.881 227.882,165.311 228.598,164.958 229.281 C 164.605 229.964,163.771 230.981,163.104 231.542 L 161.892 232.562 162.165 239.181 C 162.403 244.981,162.555 246.047,163.387 247.800 C 163.909 248.900,164.537 250.562,164.782 251.493 C 165.385 253.787,165.974 254.000,171.729 254.000 C 179.217 254.000,180.634 251.480,179.261 240.600 C 179.011 238.620,178.805 235.168,178.803 232.929 C 178.799 227.351,178.621 227.208,171.790 227.285 C 169.073 227.315,166.569 227.498,166.225 227.690 M176.513 229.300 C 177.294 229.886,177.968 247.680,177.320 250.600 L 176.965 252.200 171.880 252.312 C 165.833 252.445,166.299 252.917,165.645 246.000 C 164.701 236.025,164.644 233.391,165.344 232.152 C 165.702 231.519,166.171 230.505,166.387 229.900 L 166.780 228.800 171.314 228.800 C 174.318 228.800,176.072 228.969,176.513 229.300 M305.200 229.992 C 305.200 230.207,305.914 230.748,306.787 231.193 C 309.202 232.425,309.291 232.801,309.137 241.049 L 309.000 248.411 307.700 249.626 C 306.985 250.294,306.400 251.011,306.400 251.220 C 306.400 253.051,302.210 253.925,300.900 252.368 C 300.515 251.911,299.525 250.858,298.700 250.030 L 297.200 248.523 297.200 241.955 C 297.200 233.721,297.357 233.340,301.621 231.214 C 305.024 229.518,305.200 229.457,305.200 229.992 M357.984 235.170 C 358.228 235.626,358.602 236.000,358.814 236.000 C 359.501 236.000,359.223 235.241,358.370 234.784 C 357.610 234.377,357.577 234.410,357.984 235.170 M326.800 257.200 C 326.800 257.738,326.533 258.000,325.986 258.000 C 325.296 258.000,325.237 257.878,325.600 257.200 C 325.835 256.760,326.202 256.400,326.414 256.400 C 326.626 256.400,326.800 256.760,326.800 257.200 M308.000 263.363 C 308.000 264.134,307.838 264.283,307.184 264.112 C 306.413 263.910,306.405 263.857,307.046 263.149 C 307.918 262.186,308.000 262.204,308.000 263.363 M44.000 264.318 C 44.000 264.529,44.291 264.943,44.646 265.238 C 45.205 265.702,45.273 265.673,45.146 265.020 C 44.995 264.243,44.000 263.633,44.000 264.318 M195.263 312.000 C 195.751 312.660,196.309 313.200,196.504 313.200 C 196.698 313.200,196.574 312.917,196.229 312.571 C 195.883 312.226,195.600 311.686,195.600 311.371 C 195.600 311.057,195.325 310.800,194.988 310.800 C 194.500 310.800,194.556 311.043,195.263 312.000 " stroke="none" fill="#648ca4" fill-rule="evenodd"></path></g></svg>